<?xml version="1.0" encoding="utf-8" standalone="no"?>
<!DOCTYPE svg PUBLIC "-//W3C//DTD SVG 1.1//EN"
  "http://www.w3.org/Graphics/SVG/1.1/DTD/svg11.dtd">
<svg xmlns:xlink="http://www.w3.org/1999/xlink" width="1440pt" height="1080pt" viewBox="0 0 1440 1080" xmlns="http://www.w3.org/2000/svg" version="1.1">
 <metadata>
  <rdf:RDF xmlns:dc="http://purl.org/dc/elements/1.1/" xmlns:cc="http://creativecommons.org/ns#" xmlns:rdf="http://www.w3.org/1999/02/22-rdf-syntax-ns#">
   <cc:Work>
    <dc:type rdf:resource="http://purl.org/dc/dcmitype/StillImage"/>
    <dc:date>2024-05-17T21:02:59.490967</dc:date>
    <dc:format>image/svg+xml</dc:format>
    <dc:creator>
     <cc:Agent>
      <dc:title>Matplotlib v3.8.1, https://matplotlib.org/</dc:title>
     </cc:Agent>
    </dc:creator>
   </cc:Work>
  </rdf:RDF>
 </metadata>
 <defs>
  <style type="text/css">*{stroke-linejoin: round; stroke-linecap: butt}</style>
 </defs>
 <g id="figure_1">
  <g id="patch_1">
   <path d="M 0 1080 
L 1440 1080 
L 1440 0 
L 0 0 
z
" style="fill: #ffffff"/>
  </g>
  <g id="axes_1">
   <g id="patch_2">
    <path d="M 78.77 530.44 
L 1429.2 530.44 
L 1429.2 106.8 
L 78.77 106.8 
z
" style="fill: #ffffff"/>
   </g>
   <g id="matplotlib.axis_1">
    <g id="xtick_1">
     <g id="line2d_1">
      <path d="M 140.153182 530.44 
L 140.153182 106.8 
" clip-path="url(#pfa8e8b350e)" style="fill: none; stroke: #b0b0b0; stroke-width: 0.8; stroke-linecap: square"/>
     </g>
     <g id="line2d_2">
      <defs>
       <path id="me74a6ecf5e" d="M 0 0 
L 0 3.5 
" style="stroke: #000000; stroke-width: 0.8"/>
      </defs>
      <g>
       <use xlink:href="#me74a6ecf5e" x="140.153182" y="530.44" style="stroke: #000000; stroke-width: 0.8"/>
      </g>
     </g>
     <g id="text_1">
      <!-- 0.0 -->
      <g transform="translate(132.201619 545.038438) scale(0.1 -0.1)">
       <defs>
        <path id="DejaVuSans-30" d="M 2034 4250 
Q 1547 4250 1301 3770 
Q 1056 3291 1056 2328 
Q 1056 1369 1301 889 
Q 1547 409 2034 409 
Q 2525 409 2770 889 
Q 3016 1369 3016 2328 
Q 3016 3291 2770 3770 
Q 2525 4250 2034 4250 
z
M 2034 4750 
Q 2819 4750 3233 4129 
Q 3647 3509 3647 2328 
Q 3647 1150 3233 529 
Q 2819 -91 2034 -91 
Q 1250 -91 836 529 
Q 422 1150 422 2328 
Q 422 3509 836 4129 
Q 1250 4750 2034 4750 
z
" transform="scale(0.015625)"/>
        <path id="DejaVuSans-2e" d="M 684 794 
L 1344 794 
L 1344 0 
L 684 0 
L 684 794 
z
" transform="scale(0.015625)"/>
       </defs>
       <use xlink:href="#DejaVuSans-30"/>
       <use xlink:href="#DejaVuSans-2e" x="63.623047"/>
       <use xlink:href="#DejaVuSans-30" x="95.410156"/>
      </g>
     </g>
    </g>
    <g id="xtick_2">
     <g id="line2d_3">
      <path d="M 315.199293 530.44 
L 315.199293 106.8 
" clip-path="url(#pfa8e8b350e)" style="fill: none; stroke: #b0b0b0; stroke-width: 0.8; stroke-linecap: square"/>
     </g>
     <g id="line2d_4">
      <g>
       <use xlink:href="#me74a6ecf5e" x="315.199293" y="530.44" style="stroke: #000000; stroke-width: 0.8"/>
      </g>
     </g>
     <g id="text_2">
      <!-- 2.5 -->
      <g transform="translate(307.247731 545.038438) scale(0.1 -0.1)">
       <defs>
        <path id="DejaVuSans-32" d="M 1228 531 
L 3431 531 
L 3431 0 
L 469 0 
L 469 531 
Q 828 903 1448 1529 
Q 2069 2156 2228 2338 
Q 2531 2678 2651 2914 
Q 2772 3150 2772 3378 
Q 2772 3750 2511 3984 
Q 2250 4219 1831 4219 
Q 1534 4219 1204 4116 
Q 875 4013 500 3803 
L 500 4441 
Q 881 4594 1212 4672 
Q 1544 4750 1819 4750 
Q 2544 4750 2975 4387 
Q 3406 4025 3406 3419 
Q 3406 3131 3298 2873 
Q 3191 2616 2906 2266 
Q 2828 2175 2409 1742 
Q 1991 1309 1228 531 
z
" transform="scale(0.015625)"/>
        <path id="DejaVuSans-35" d="M 691 4666 
L 3169 4666 
L 3169 4134 
L 1269 4134 
L 1269 2991 
Q 1406 3038 1543 3061 
Q 1681 3084 1819 3084 
Q 2600 3084 3056 2656 
Q 3513 2228 3513 1497 
Q 3513 744 3044 326 
Q 2575 -91 1722 -91 
Q 1428 -91 1123 -41 
Q 819 9 494 109 
L 494 744 
Q 775 591 1075 516 
Q 1375 441 1709 441 
Q 2250 441 2565 725 
Q 2881 1009 2881 1497 
Q 2881 1984 2565 2268 
Q 2250 2553 1709 2553 
Q 1456 2553 1204 2497 
Q 953 2441 691 2322 
L 691 4666 
z
" transform="scale(0.015625)"/>
       </defs>
       <use xlink:href="#DejaVuSans-32"/>
       <use xlink:href="#DejaVuSans-2e" x="63.623047"/>
       <use xlink:href="#DejaVuSans-35" x="95.410156"/>
      </g>
     </g>
    </g>
    <g id="xtick_3">
     <g id="line2d_5">
      <path d="M 490.245404 530.44 
L 490.245404 106.8 
" clip-path="url(#pfa8e8b350e)" style="fill: none; stroke: #b0b0b0; stroke-width: 0.8; stroke-linecap: square"/>
     </g>
     <g id="line2d_6">
      <g>
       <use xlink:href="#me74a6ecf5e" x="490.245404" y="530.44" style="stroke: #000000; stroke-width: 0.8"/>
      </g>
     </g>
     <g id="text_3">
      <!-- 5.0 -->
      <g transform="translate(482.293842 545.038438) scale(0.1 -0.1)">
       <use xlink:href="#DejaVuSans-35"/>
       <use xlink:href="#DejaVuSans-2e" x="63.623047"/>
       <use xlink:href="#DejaVuSans-30" x="95.410156"/>
      </g>
     </g>
    </g>
    <g id="xtick_4">
     <g id="line2d_7">
      <path d="M 665.291516 530.44 
L 665.291516 106.8 
" clip-path="url(#pfa8e8b350e)" style="fill: none; stroke: #b0b0b0; stroke-width: 0.8; stroke-linecap: square"/>
     </g>
     <g id="line2d_8">
      <g>
       <use xlink:href="#me74a6ecf5e" x="665.291516" y="530.44" style="stroke: #000000; stroke-width: 0.8"/>
      </g>
     </g>
     <g id="text_4">
      <!-- 7.5 -->
      <g transform="translate(657.339953 545.038438) scale(0.1 -0.1)">
       <defs>
        <path id="DejaVuSans-37" d="M 525 4666 
L 3525 4666 
L 3525 4397 
L 1831 0 
L 1172 0 
L 2766 4134 
L 525 4134 
L 525 4666 
z
" transform="scale(0.015625)"/>
       </defs>
       <use xlink:href="#DejaVuSans-37"/>
       <use xlink:href="#DejaVuSans-2e" x="63.623047"/>
       <use xlink:href="#DejaVuSans-35" x="95.410156"/>
      </g>
     </g>
    </g>
    <g id="xtick_5">
     <g id="line2d_9">
      <path d="M 840.337627 530.44 
L 840.337627 106.8 
" clip-path="url(#pfa8e8b350e)" style="fill: none; stroke: #b0b0b0; stroke-width: 0.8; stroke-linecap: square"/>
     </g>
     <g id="line2d_10">
      <g>
       <use xlink:href="#me74a6ecf5e" x="840.337627" y="530.44" style="stroke: #000000; stroke-width: 0.8"/>
      </g>
     </g>
     <g id="text_5">
      <!-- 10.0 -->
      <g transform="translate(829.204815 545.038438) scale(0.1 -0.1)">
       <defs>
        <path id="DejaVuSans-31" d="M 794 531 
L 1825 531 
L 1825 4091 
L 703 3866 
L 703 4441 
L 1819 4666 
L 2450 4666 
L 2450 531 
L 3481 531 
L 3481 0 
L 794 0 
L 794 531 
z
" transform="scale(0.015625)"/>
       </defs>
       <use xlink:href="#DejaVuSans-31"/>
       <use xlink:href="#DejaVuSans-30" x="63.623047"/>
       <use xlink:href="#DejaVuSans-2e" x="127.246094"/>
       <use xlink:href="#DejaVuSans-30" x="159.033203"/>
      </g>
     </g>
    </g>
    <g id="xtick_6">
     <g id="line2d_11">
      <path d="M 1015.383738 530.44 
L 1015.383738 106.8 
" clip-path="url(#pfa8e8b350e)" style="fill: none; stroke: #b0b0b0; stroke-width: 0.8; stroke-linecap: square"/>
     </g>
     <g id="line2d_12">
      <g>
       <use xlink:href="#me74a6ecf5e" x="1015.383738" y="530.44" style="stroke: #000000; stroke-width: 0.8"/>
      </g>
     </g>
     <g id="text_6">
      <!-- 12.5 -->
      <g transform="translate(1004.250926 545.038438) scale(0.1 -0.1)">
       <use xlink:href="#DejaVuSans-31"/>
       <use xlink:href="#DejaVuSans-32" x="63.623047"/>
       <use xlink:href="#DejaVuSans-2e" x="127.246094"/>
       <use xlink:href="#DejaVuSans-35" x="159.033203"/>
      </g>
     </g>
    </g>
    <g id="xtick_7">
     <g id="line2d_13">
      <path d="M 1190.42985 530.44 
L 1190.42985 106.8 
" clip-path="url(#pfa8e8b350e)" style="fill: none; stroke: #b0b0b0; stroke-width: 0.8; stroke-linecap: square"/>
     </g>
     <g id="line2d_14">
      <g>
       <use xlink:href="#me74a6ecf5e" x="1190.42985" y="530.44" style="stroke: #000000; stroke-width: 0.8"/>
      </g>
     </g>
     <g id="text_7">
      <!-- 15.0 -->
      <g transform="translate(1179.297037 545.038438) scale(0.1 -0.1)">
       <use xlink:href="#DejaVuSans-31"/>
       <use xlink:href="#DejaVuSans-35" x="63.623047"/>
       <use xlink:href="#DejaVuSans-2e" x="127.246094"/>
       <use xlink:href="#DejaVuSans-30" x="159.033203"/>
      </g>
     </g>
    </g>
    <g id="xtick_8">
     <g id="line2d_15">
      <path d="M 1365.475961 530.44 
L 1365.475961 106.8 
" clip-path="url(#pfa8e8b350e)" style="fill: none; stroke: #b0b0b0; stroke-width: 0.8; stroke-linecap: square"/>
     </g>
     <g id="line2d_16">
      <g>
       <use xlink:href="#me74a6ecf5e" x="1365.475961" y="530.44" style="stroke: #000000; stroke-width: 0.8"/>
      </g>
     </g>
     <g id="text_8">
      <!-- 17.5 -->
      <g transform="translate(1354.343149 545.038438) scale(0.1 -0.1)">
       <use xlink:href="#DejaVuSans-31"/>
       <use xlink:href="#DejaVuSans-37" x="63.623047"/>
       <use xlink:href="#DejaVuSans-2e" x="127.246094"/>
       <use xlink:href="#DejaVuSans-35" x="159.033203"/>
      </g>
     </g>
    </g>
    <g id="text_9">
     <!-- Time (s) -->
     <g transform="translate(713.327188 566.315) scale(0.2 -0.2)">
      <defs>
       <path id="DejaVuSans-54" d="M -19 4666 
L 3928 4666 
L 3928 4134 
L 2272 4134 
L 2272 0 
L 1638 0 
L 1638 4134 
L -19 4134 
L -19 4666 
z
" transform="scale(0.015625)"/>
       <path id="DejaVuSans-69" d="M 603 3500 
L 1178 3500 
L 1178 0 
L 603 0 
L 603 3500 
z
M 603 4863 
L 1178 4863 
L 1178 4134 
L 603 4134 
L 603 4863 
z
" transform="scale(0.015625)"/>
       <path id="DejaVuSans-6d" d="M 3328 2828 
Q 3544 3216 3844 3400 
Q 4144 3584 4550 3584 
Q 5097 3584 5394 3201 
Q 5691 2819 5691 2113 
L 5691 0 
L 5113 0 
L 5113 2094 
Q 5113 2597 4934 2840 
Q 4756 3084 4391 3084 
Q 3944 3084 3684 2787 
Q 3425 2491 3425 1978 
L 3425 0 
L 2847 0 
L 2847 2094 
Q 2847 2600 2669 2842 
Q 2491 3084 2119 3084 
Q 1678 3084 1418 2786 
Q 1159 2488 1159 1978 
L 1159 0 
L 581 0 
L 581 3500 
L 1159 3500 
L 1159 2956 
Q 1356 3278 1631 3431 
Q 1906 3584 2284 3584 
Q 2666 3584 2933 3390 
Q 3200 3197 3328 2828 
z
" transform="scale(0.015625)"/>
       <path id="DejaVuSans-65" d="M 3597 1894 
L 3597 1613 
L 953 1613 
Q 991 1019 1311 708 
Q 1631 397 2203 397 
Q 2534 397 2845 478 
Q 3156 559 3463 722 
L 3463 178 
Q 3153 47 2828 -22 
Q 2503 -91 2169 -91 
Q 1331 -91 842 396 
Q 353 884 353 1716 
Q 353 2575 817 3079 
Q 1281 3584 2069 3584 
Q 2775 3584 3186 3129 
Q 3597 2675 3597 1894 
z
M 3022 2063 
Q 3016 2534 2758 2815 
Q 2500 3097 2075 3097 
Q 1594 3097 1305 2825 
Q 1016 2553 972 2059 
L 3022 2063 
z
" transform="scale(0.015625)"/>
       <path id="DejaVuSans-20" transform="scale(0.015625)"/>
       <path id="DejaVuSans-28" d="M 1984 4856 
Q 1566 4138 1362 3434 
Q 1159 2731 1159 2009 
Q 1159 1288 1364 580 
Q 1569 -128 1984 -844 
L 1484 -844 
Q 1016 -109 783 600 
Q 550 1309 550 2009 
Q 550 2706 781 3412 
Q 1013 4119 1484 4856 
L 1984 4856 
z
" transform="scale(0.015625)"/>
       <path id="DejaVuSans-73" d="M 2834 3397 
L 2834 2853 
Q 2591 2978 2328 3040 
Q 2066 3103 1784 3103 
Q 1356 3103 1142 2972 
Q 928 2841 928 2578 
Q 928 2378 1081 2264 
Q 1234 2150 1697 2047 
L 1894 2003 
Q 2506 1872 2764 1633 
Q 3022 1394 3022 966 
Q 3022 478 2636 193 
Q 2250 -91 1575 -91 
Q 1294 -91 989 -36 
Q 684 19 347 128 
L 347 722 
Q 666 556 975 473 
Q 1284 391 1588 391 
Q 1994 391 2212 530 
Q 2431 669 2431 922 
Q 2431 1156 2273 1281 
Q 2116 1406 1581 1522 
L 1381 1569 
Q 847 1681 609 1914 
Q 372 2147 372 2553 
Q 372 3047 722 3315 
Q 1072 3584 1716 3584 
Q 2034 3584 2315 3537 
Q 2597 3491 2834 3397 
z
" transform="scale(0.015625)"/>
       <path id="DejaVuSans-29" d="M 513 4856 
L 1013 4856 
Q 1481 4119 1714 3412 
Q 1947 2706 1947 2009 
Q 1947 1309 1714 600 
Q 1481 -109 1013 -844 
L 513 -844 
Q 928 -128 1133 580 
Q 1338 1288 1338 2009 
Q 1338 2731 1133 3434 
Q 928 4138 513 4856 
z
" transform="scale(0.015625)"/>
      </defs>
      <use xlink:href="#DejaVuSans-54"/>
      <use xlink:href="#DejaVuSans-69" x="57.958984"/>
      <use xlink:href="#DejaVuSans-6d" x="85.742188"/>
      <use xlink:href="#DejaVuSans-65" x="183.154297"/>
      <use xlink:href="#DejaVuSans-20" x="244.677734"/>
      <use xlink:href="#DejaVuSans-28" x="276.464844"/>
      <use xlink:href="#DejaVuSans-73" x="315.478516"/>
      <use xlink:href="#DejaVuSans-29" x="367.578125"/>
     </g>
    </g>
   </g>
   <g id="matplotlib.axis_2">
    <g id="ytick_1">
     <g id="line2d_17">
      <path d="M 78.77 480.889837 
L 1429.2 480.889837 
" clip-path="url(#pfa8e8b350e)" style="fill: none; stroke: #b0b0b0; stroke-width: 0.8; stroke-linecap: square"/>
     </g>
     <g id="line2d_18">
      <defs>
       <path id="m385243afbf" d="M 0 0 
L -3.5 0 
" style="stroke: #000000; stroke-width: 0.8"/>
      </defs>
      <g>
       <use xlink:href="#m385243afbf" x="78.77" y="480.889837" style="stroke: #000000; stroke-width: 0.8"/>
      </g>
     </g>
     <g id="text_10">
      <!-- 70 -->
      <g transform="translate(59.045 484.689056) scale(0.1 -0.1)">
       <use xlink:href="#DejaVuSans-37"/>
       <use xlink:href="#DejaVuSans-30" x="63.623047"/>
      </g>
     </g>
    </g>
    <g id="ytick_2">
     <g id="line2d_19">
      <path d="M 78.77 413.569424 
L 1429.2 413.569424 
" clip-path="url(#pfa8e8b350e)" style="fill: none; stroke: #b0b0b0; stroke-width: 0.8; stroke-linecap: square"/>
     </g>
     <g id="line2d_20">
      <g>
       <use xlink:href="#m385243afbf" x="78.77" y="413.569424" style="stroke: #000000; stroke-width: 0.8"/>
      </g>
     </g>
     <g id="text_11">
      <!-- 80 -->
      <g transform="translate(59.045 417.368643) scale(0.1 -0.1)">
       <defs>
        <path id="DejaVuSans-38" d="M 2034 2216 
Q 1584 2216 1326 1975 
Q 1069 1734 1069 1313 
Q 1069 891 1326 650 
Q 1584 409 2034 409 
Q 2484 409 2743 651 
Q 3003 894 3003 1313 
Q 3003 1734 2745 1975 
Q 2488 2216 2034 2216 
z
M 1403 2484 
Q 997 2584 770 2862 
Q 544 3141 544 3541 
Q 544 4100 942 4425 
Q 1341 4750 2034 4750 
Q 2731 4750 3128 4425 
Q 3525 4100 3525 3541 
Q 3525 3141 3298 2862 
Q 3072 2584 2669 2484 
Q 3125 2378 3379 2068 
Q 3634 1759 3634 1313 
Q 3634 634 3220 271 
Q 2806 -91 2034 -91 
Q 1263 -91 848 271 
Q 434 634 434 1313 
Q 434 1759 690 2068 
Q 947 2378 1403 2484 
z
M 1172 3481 
Q 1172 3119 1398 2916 
Q 1625 2713 2034 2713 
Q 2441 2713 2670 2916 
Q 2900 3119 2900 3481 
Q 2900 3844 2670 4047 
Q 2441 4250 2034 4250 
Q 1625 4250 1398 4047 
Q 1172 3844 1172 3481 
z
" transform="scale(0.015625)"/>
       </defs>
       <use xlink:href="#DejaVuSans-38"/>
       <use xlink:href="#DejaVuSans-30" x="63.623047"/>
      </g>
     </g>
    </g>
    <g id="ytick_3">
     <g id="line2d_21">
      <path d="M 78.77 346.249011 
L 1429.2 346.249011 
" clip-path="url(#pfa8e8b350e)" style="fill: none; stroke: #b0b0b0; stroke-width: 0.8; stroke-linecap: square"/>
     </g>
     <g id="line2d_22">
      <g>
       <use xlink:href="#m385243afbf" x="78.77" y="346.249011" style="stroke: #000000; stroke-width: 0.8"/>
      </g>
     </g>
     <g id="text_12">
      <!-- 90 -->
      <g transform="translate(59.045 350.04823) scale(0.1 -0.1)">
       <defs>
        <path id="DejaVuSans-39" d="M 703 97 
L 703 672 
Q 941 559 1184 500 
Q 1428 441 1663 441 
Q 2288 441 2617 861 
Q 2947 1281 2994 2138 
Q 2813 1869 2534 1725 
Q 2256 1581 1919 1581 
Q 1219 1581 811 2004 
Q 403 2428 403 3163 
Q 403 3881 828 4315 
Q 1253 4750 1959 4750 
Q 2769 4750 3195 4129 
Q 3622 3509 3622 2328 
Q 3622 1225 3098 567 
Q 2575 -91 1691 -91 
Q 1453 -91 1209 -44 
Q 966 3 703 97 
z
M 1959 2075 
Q 2384 2075 2632 2365 
Q 2881 2656 2881 3163 
Q 2881 3666 2632 3958 
Q 2384 4250 1959 4250 
Q 1534 4250 1286 3958 
Q 1038 3666 1038 3163 
Q 1038 2656 1286 2365 
Q 1534 2075 1959 2075 
z
" transform="scale(0.015625)"/>
       </defs>
       <use xlink:href="#DejaVuSans-39"/>
       <use xlink:href="#DejaVuSans-30" x="63.623047"/>
      </g>
     </g>
    </g>
    <g id="ytick_4">
     <g id="line2d_23">
      <path d="M 78.77 278.928599 
L 1429.2 278.928599 
" clip-path="url(#pfa8e8b350e)" style="fill: none; stroke: #b0b0b0; stroke-width: 0.8; stroke-linecap: square"/>
     </g>
     <g id="line2d_24">
      <g>
       <use xlink:href="#m385243afbf" x="78.77" y="278.928599" style="stroke: #000000; stroke-width: 0.8"/>
      </g>
     </g>
     <g id="text_13">
      <!-- 100 -->
      <g transform="translate(52.6825 282.727817) scale(0.1 -0.1)">
       <use xlink:href="#DejaVuSans-31"/>
       <use xlink:href="#DejaVuSans-30" x="63.623047"/>
       <use xlink:href="#DejaVuSans-30" x="127.246094"/>
      </g>
     </g>
    </g>
    <g id="ytick_5">
     <g id="line2d_25">
      <path d="M 78.77 211.608186 
L 1429.2 211.608186 
" clip-path="url(#pfa8e8b350e)" style="fill: none; stroke: #b0b0b0; stroke-width: 0.8; stroke-linecap: square"/>
     </g>
     <g id="line2d_26">
      <g>
       <use xlink:href="#m385243afbf" x="78.77" y="211.608186" style="stroke: #000000; stroke-width: 0.8"/>
      </g>
     </g>
     <g id="text_14">
      <!-- 110 -->
      <g transform="translate(52.6825 215.407404) scale(0.1 -0.1)">
       <use xlink:href="#DejaVuSans-31"/>
       <use xlink:href="#DejaVuSans-31" x="63.623047"/>
       <use xlink:href="#DejaVuSans-30" x="127.246094"/>
      </g>
     </g>
    </g>
    <g id="ytick_6">
     <g id="line2d_27">
      <path d="M 78.77 144.287773 
L 1429.2 144.287773 
" clip-path="url(#pfa8e8b350e)" style="fill: none; stroke: #b0b0b0; stroke-width: 0.8; stroke-linecap: square"/>
     </g>
     <g id="line2d_28">
      <g>
       <use xlink:href="#m385243afbf" x="78.77" y="144.287773" style="stroke: #000000; stroke-width: 0.8"/>
      </g>
     </g>
     <g id="text_15">
      <!-- 120 -->
      <g transform="translate(52.6825 148.086992) scale(0.1 -0.1)">
       <use xlink:href="#DejaVuSans-31"/>
       <use xlink:href="#DejaVuSans-32" x="63.623047"/>
       <use xlink:href="#DejaVuSans-30" x="127.246094"/>
      </g>
     </g>
    </g>
    <g id="text_16">
     <!-- Distance (cm) -->
     <g transform="translate(44.523125 388.565313) rotate(-90) scale(0.2 -0.2)">
      <defs>
       <path id="DejaVuSans-44" d="M 1259 4147 
L 1259 519 
L 2022 519 
Q 2988 519 3436 956 
Q 3884 1394 3884 2338 
Q 3884 3275 3436 3711 
Q 2988 4147 2022 4147 
L 1259 4147 
z
M 628 4666 
L 1925 4666 
Q 3281 4666 3915 4102 
Q 4550 3538 4550 2338 
Q 4550 1131 3912 565 
Q 3275 0 1925 0 
L 628 0 
L 628 4666 
z
" transform="scale(0.015625)"/>
       <path id="DejaVuSans-74" d="M 1172 4494 
L 1172 3500 
L 2356 3500 
L 2356 3053 
L 1172 3053 
L 1172 1153 
Q 1172 725 1289 603 
Q 1406 481 1766 481 
L 2356 481 
L 2356 0 
L 1766 0 
Q 1100 0 847 248 
Q 594 497 594 1153 
L 594 3053 
L 172 3053 
L 172 3500 
L 594 3500 
L 594 4494 
L 1172 4494 
z
" transform="scale(0.015625)"/>
       <path id="DejaVuSans-61" d="M 2194 1759 
Q 1497 1759 1228 1600 
Q 959 1441 959 1056 
Q 959 750 1161 570 
Q 1363 391 1709 391 
Q 2188 391 2477 730 
Q 2766 1069 2766 1631 
L 2766 1759 
L 2194 1759 
z
M 3341 1997 
L 3341 0 
L 2766 0 
L 2766 531 
Q 2569 213 2275 61 
Q 1981 -91 1556 -91 
Q 1019 -91 701 211 
Q 384 513 384 1019 
Q 384 1609 779 1909 
Q 1175 2209 1959 2209 
L 2766 2209 
L 2766 2266 
Q 2766 2663 2505 2880 
Q 2244 3097 1772 3097 
Q 1472 3097 1187 3025 
Q 903 2953 641 2809 
L 641 3341 
Q 956 3463 1253 3523 
Q 1550 3584 1831 3584 
Q 2591 3584 2966 3190 
Q 3341 2797 3341 1997 
z
" transform="scale(0.015625)"/>
       <path id="DejaVuSans-6e" d="M 3513 2113 
L 3513 0 
L 2938 0 
L 2938 2094 
Q 2938 2591 2744 2837 
Q 2550 3084 2163 3084 
Q 1697 3084 1428 2787 
Q 1159 2491 1159 1978 
L 1159 0 
L 581 0 
L 581 3500 
L 1159 3500 
L 1159 2956 
Q 1366 3272 1645 3428 
Q 1925 3584 2291 3584 
Q 2894 3584 3203 3211 
Q 3513 2838 3513 2113 
z
" transform="scale(0.015625)"/>
       <path id="DejaVuSans-63" d="M 3122 3366 
L 3122 2828 
Q 2878 2963 2633 3030 
Q 2388 3097 2138 3097 
Q 1578 3097 1268 2742 
Q 959 2388 959 1747 
Q 959 1106 1268 751 
Q 1578 397 2138 397 
Q 2388 397 2633 464 
Q 2878 531 3122 666 
L 3122 134 
Q 2881 22 2623 -34 
Q 2366 -91 2075 -91 
Q 1284 -91 818 406 
Q 353 903 353 1747 
Q 353 2603 823 3093 
Q 1294 3584 2113 3584 
Q 2378 3584 2631 3529 
Q 2884 3475 3122 3366 
z
" transform="scale(0.015625)"/>
      </defs>
      <use xlink:href="#DejaVuSans-44"/>
      <use xlink:href="#DejaVuSans-69" x="77.001953"/>
      <use xlink:href="#DejaVuSans-73" x="104.785156"/>
      <use xlink:href="#DejaVuSans-74" x="156.884766"/>
      <use xlink:href="#DejaVuSans-61" x="196.09375"/>
      <use xlink:href="#DejaVuSans-6e" x="257.373047"/>
      <use xlink:href="#DejaVuSans-63" x="320.751953"/>
      <use xlink:href="#DejaVuSans-65" x="375.732422"/>
      <use xlink:href="#DejaVuSans-20" x="437.255859"/>
      <use xlink:href="#DejaVuSans-28" x="469.042969"/>
      <use xlink:href="#DejaVuSans-63" x="508.056641"/>
      <use xlink:href="#DejaVuSans-6d" x="563.037109"/>
      <use xlink:href="#DejaVuSans-29" x="660.449219"/>
     </g>
    </g>
   </g>
   <g id="line2d_29">
    <path d="M 140.153182 455.794545 
L 155.712593 450.169091 
L 172.08876 448.438182 
L 184.198085 449.303636 
L 193.770218 449.303636 
L 204.462582 446.707273 
L 214.69874 448.438182 
L 225.053006 467.478182 
L 235.844714 469.641818 
L 246.350793 465.747273 
L 256.326914 449.303636 
L 266.678459 449.303636 
L 278.03448 431.561818 
L 288.260422 432.86 
L 298.417853 400.405455 
L 308.377647 400.405455 
L 318.714902 383.961818 
L 328.116743 385.26 
L 338.691099 378.769091 
L 346.490178 385.26 
L 355.531819 362.325455 
L 363.856131 368.816364 
L 374.565639 368.816364 
L 385.51153 374.009091 
L 393.876208 376.605455 
L 404.048797 377.903636 
L 414.972518 357.132727 
L 424.830247 336.361818 
L 432.123657 336.361818 
L 442.314776 336.361818 
L 450.558959 338.092727 
L 460.285792 322.081818 
L 470.208727 323.38 
L 489.094942 275.347273 
L 499.073783 282.270909 
L 506.23139 268.423636 
L 519.467856 280.54 
L 528.545288 278.809091 
L 561.44224 248.518182 
L 572.582563 233.372727 
L 583.64334 235.103636 
L 593.926791 246.787273 
L 604.829896 219.525455 
L 614.903475 225.583636 
L 624.907424 194.427273 
L 635.540909 194.427273 
L 646.139621 205.245455 
L 656.242964 198.754545 
L 665.965791 205.245455 
L 676.085411 205.245455 
L 686.285477 190.1 
L 696.394079 194.427273 
L 707.027731 187.936364 
L 716.521671 178.849091 
L 746.299489 138.605455 
L 756.131876 133.845455 
L 776.746006 126.056364 
L 787.924958 143.798182 
L 859.912023 143.798182 
L 868.706931 148.558182 
L 890.082143 160.674545 
L 902.648191 158.078182 
L 912.896519 158.078182 
L 926.404875 178.849091 
L 936.875363 172.358182 
L 949.221638 206.976364 
L 959.8612 223.42 
L 970.1951 223.42 
L 980.623653 229.478182 
L 990.78494 227.314545 
L 1001.055003 225.583636 
L 1011.758652 237.267273 
L 1023.61071 242.892727 
L 1032.359076 241.161818 
L 1042.963981 248.518182 
L 1085.502245 261.5 
L 1096.328208 270.154545 
L 1107.680875 270.154545 
L 1118.602877 273.616364 
L 1129.195078 273.616364 
L 1140.003513 271.885455 
L 1150.993008 271.885455 
L 1162.024137 264.961818 
L 1183.330955 280.54 
L 1194.199153 303.474545 
L 1204.407183 300.445455 
L 1216.021022 288.761818 
L 1226.733435 324.678182 
L 1238.514478 348.910909 
L 1248.411704 346.314545 
L 1259.098175 361.027273 
L 1270.30008 361.027273 
L 1281.628624 382.663636 
L 1292.17208 381.365455 
L 1309.738458 414.685455 
L 1322.047155 441.514545 
L 1334.258879 471.372727 
L 1345.201916 471.372727 
L 1357.286751 498.201818 
L 1367.816818 496.903636 
" clip-path="url(#pfa8e8b350e)" style="fill: none; stroke: #1f77b4; stroke-width: 1.5; stroke-linecap: square"/>
   </g>
   <g id="line2d_30">
    <path d="M 140.153182 448.438182 
L 155.300943 457.958182 
L 166.485671 449.303636 
L 181.69974 451.467273 
L 191.599687 451.467273 
L 202.588714 449.303636 
L 213.236957 449.303636 
L 225.981911 468.776364 
L 240.080573 462.285455 
L 259.55272 434.590909 
L 269.25882 445.409091 
L 282.298502 411.656364 
L 291.9107 415.983636 
L 302.773356 385.26 
L 312.546781 393.481818 
L 322.742608 380.067273 
L 332.695925 385.26 
L 341.896156 390.02 
L 351.820809 396.943636 
L 361.508096 367.518182 
L 369.99644 370.114545 
L 380.752607 374.009091 
L 390.728311 374.009091 
L 401.475597 364.921818 
L 411.458428 366.22 
L 421.928682 338.092727 
L 430.183415 335.063636 
L 439.995921 305.205455 
L 447.112845 314.292727 
L 462.539842 305.205455 
L 471.767701 311.263636 
L 482.375511 298.714545 
L 489.722741 301.743636 
L 500.064187 271.885455 
L 509.98607 271.885455 
L 520.157022 273.616364 
L 528.134724 273.616364 
L 539.671505 277.078182 
L 548.097432 280.54 
L 558.80472 248.518182 
L 566.324663 248.518182 
L 577.203245 229.478182 
L 586.677703 225.583636 
L 597.525385 248.518182 
L 616.450363 219.525455 
L 627.18825 219.525455 
L 638.152704 205.245455 
L 649.73995 217.361818 
L 664.039772 219.525455 
L 676.418183 215.198182 
L 686.9788 221.256364 
L 699.099025 221.256364 
L 709.034964 211.303636 
L 722.56544 221.256364 
L 732.741017 229.478182 
L 743.302302 219.525455 
L 753.343528 225.583636 
L 763.747191 200.918182 
L 773.415463 200.918182 
L 783.860459 196.590909 
L 794.589182 196.590909 
L 804.579475 185.772727 
L 814.401396 185.772727 
L 824.256137 185.772727 
L 834.241656 183.609091 
L 844.629176 194.427273 
L 854.520226 187.936364 
L 864.791875 194.427273 
L 874.509911 192.263636 
L 884.676106 174.521818 
L 894.645382 176.685455 
L 907.48973 169.761818 
L 922.114111 169.761818 
L 931.998199 183.609091 
L 941.609279 190.1 
L 951.511146 194.427273 
L 963.097791 196.590909 
L 972.571314 205.245455 
L 982.661486 205.245455 
L 993.374016 196.590909 
L 1003.849011 198.754545 
L 1014.277631 187.936364 
L 1024.481036 198.754545 
L 1034.351051 196.590909 
L 1044.494626 203.081818 
L 1054.990973 200.918182 
L 1064.692148 206.976364 
L 1075.427915 223.42 
L 1085.540958 223.42 
L 1096.271567 217.361818 
L 1106.698634 215.198182 
L 1117.211424 238.998182 
L 1127.612833 238.998182 
L 1138.727414 221.256364 
L 1149.991586 221.256364 
L 1159.651128 219.525455 
L 1170.288703 219.525455 
L 1181.634992 241.161818 
L 1192.856028 238.998182 
L 1203.431953 257.605455 
L 1214.027093 277.078182 
L 1225.2712 277.078182 
L 1236.877293 317.321818 
L 1247.683942 316.023636 
L 1259.224613 330.736364 
L 1269.553822 330.736364 
L 1280.784424 374.009091 
L 1292.120597 401.270909 
L 1303.0642 396.943636 
L 1314.574756 440.649091 
L 1326.954401 439.783636 
L 1338.25722 469.641818 
L 1350.385008 509.452727 
L 1362.544681 499.932727 
" clip-path="url(#pfa8e8b350e)" style="fill: none; stroke: #ff7f0e; stroke-width: 1.5; stroke-linecap: square"/>
   </g>
   <g id="line2d_31">
    <path d="M 140.153182 452.332727 
L 154.622762 456.66 
L 167.349837 456.66 
L 192.172982 456.66 
L 205.292609 454.929091 
L 215.613271 468.776364 
L 226.339373 468.776364 
L 237.039365 464.016364 
L 247.711112 464.016364 
L 258.935571 438.485455 
L 269.472299 438.485455 
L 280.985208 418.147273 
L 291.551869 415.983636 
L 303.084376 422.474545 
L 315.520947 383.961818 
L 326.370833 394.347273 
L 337.692766 381.365455 
L 350.606944 385.26 
L 361.231398 388.721818 
L 373.250476 378.769091 
L 384.300519 381.365455 
L 395.57182 374.009091 
L 407.275488 374.009091 
L 418.74294 368.816364 
L 429.571124 368.816364 
L 440.383265 336.361818 
L 451.340057 339.390909 
L 463.623413 320.350909 
L 475.345044 320.350909 
L 485.653769 320.350909 
L 497.499618 322.081818 
L 507.790431 319.052727 
L 521.982962 311.263636 
L 532.888705 298.714545 
L 543.977677 300.445455 
L 554.977723 288.761818 
L 565.221176 288.761818 
L 577.571291 278.809091 
L 589.623306 278.809091 
L 600.492857 287.030909 
L 611.039852 285.732727 
L 621.400578 295.252727 
L 632.804027 290.492727 
L 645.469235 287.030909 
L 656.881598 278.809091 
L 668.870995 290.492727 
L 678.92808 271.885455 
L 690.137515 271.885455 
L 700.788478 282.270909 
L 711.400328 282.270909 
L 721.644482 270.154545 
L 732.556435 270.154545 
L 742.766601 266.692727 
L 753.038167 259.336364 
L 763.690866 263.230909 
L 774.687873 263.230909 
L 784.998485 271.885455 
L 795.245178 250.249091 
L 805.602966 264.961818 
L 816.007263 266.692727 
L 827.565997 257.605455 
L 839.449355 268.423636 
L 850.230045 271.885455 
L 861.205501 263.230909 
L 872.882359 259.336364 
L 884.209166 268.423636 
L 894.57859 271.885455 
L 905.869991 261.5 
L 919.601209 242.892727 
L 930.812312 242.892727 
L 941.87798 248.518182 
L 952.818947 246.787273 
L 963.53974 246.787273 
L 973.6123 252.412727 
L 984.204101 250.249091 
L 995.421665 268.423636 
L 1006.747287 268.423636 
L 1017.509297 263.230909 
L 1028.618886 261.5 
L 1039.28681 264.961818 
L 1049.901231 263.230909 
L 1061.196838 266.692727 
L 1071.43894 266.692727 
L 1082.661812 277.078182 
L 1093.585501 263.230909 
L 1105.758362 264.961818 
L 1116.539986 270.154545 
L 1127.124993 271.885455 
L 1138.51542 305.205455 
L 1149.090077 348.910909 
L 1160.152773 343.718182 
L 1171.149063 385.26 
L 1183.165921 375.307273 
L 1194.587983 431.561818 
L 1206.217598 418.147273 
L 1217.262849 465.747273 
L 1230.266906 492.143636 
L 1243.665018 492.143636 
L 1256.268059 511.183636 
L 1268.494657 509.02 
" clip-path="url(#pfa8e8b350e)" style="fill: none; stroke: #2ca02c; stroke-width: 1.5; stroke-linecap: square"/>
   </g>
   <g id="patch_3">
    <path d="M 78.77 530.44 
L 78.77 106.8 
" style="fill: none; stroke: #000000; stroke-width: 0.8; stroke-linejoin: miter; stroke-linecap: square"/>
   </g>
   <g id="patch_4">
    <path d="M 1429.2 530.44 
L 1429.2 106.8 
" style="fill: none; stroke: #000000; stroke-width: 0.8; stroke-linejoin: miter; stroke-linecap: square"/>
   </g>
   <g id="patch_5">
    <path d="M 78.77 530.44 
L 1429.2 530.44 
" style="fill: none; stroke: #000000; stroke-width: 0.8; stroke-linejoin: miter; stroke-linecap: square"/>
   </g>
   <g id="patch_6">
    <path d="M 78.77 106.8 
L 1429.2 106.8 
" style="fill: none; stroke: #000000; stroke-width: 0.8; stroke-linejoin: miter; stroke-linecap: square"/>
   </g>
   <g id="text_17">
    <!-- Distance to object -->
    <g transform="translate(663.0475 100.8) scale(0.2 -0.2)">
     <defs>
      <path id="DejaVuSans-6f" d="M 1959 3097 
Q 1497 3097 1228 2736 
Q 959 2375 959 1747 
Q 959 1119 1226 758 
Q 1494 397 1959 397 
Q 2419 397 2687 759 
Q 2956 1122 2956 1747 
Q 2956 2369 2687 2733 
Q 2419 3097 1959 3097 
z
M 1959 3584 
Q 2709 3584 3137 3096 
Q 3566 2609 3566 1747 
Q 3566 888 3137 398 
Q 2709 -91 1959 -91 
Q 1206 -91 779 398 
Q 353 888 353 1747 
Q 353 2609 779 3096 
Q 1206 3584 1959 3584 
z
" transform="scale(0.015625)"/>
      <path id="DejaVuSans-62" d="M 3116 1747 
Q 3116 2381 2855 2742 
Q 2594 3103 2138 3103 
Q 1681 3103 1420 2742 
Q 1159 2381 1159 1747 
Q 1159 1113 1420 752 
Q 1681 391 2138 391 
Q 2594 391 2855 752 
Q 3116 1113 3116 1747 
z
M 1159 2969 
Q 1341 3281 1617 3432 
Q 1894 3584 2278 3584 
Q 2916 3584 3314 3078 
Q 3713 2572 3713 1747 
Q 3713 922 3314 415 
Q 2916 -91 2278 -91 
Q 1894 -91 1617 61 
Q 1341 213 1159 525 
L 1159 0 
L 581 0 
L 581 4863 
L 1159 4863 
L 1159 2969 
z
" transform="scale(0.015625)"/>
      <path id="DejaVuSans-6a" d="M 603 3500 
L 1178 3500 
L 1178 -63 
Q 1178 -731 923 -1031 
Q 669 -1331 103 -1331 
L -116 -1331 
L -116 -844 
L 38 -844 
Q 366 -844 484 -692 
Q 603 -541 603 -63 
L 603 3500 
z
M 603 4863 
L 1178 4863 
L 1178 4134 
L 603 4134 
L 603 4863 
z
" transform="scale(0.015625)"/>
     </defs>
     <use xlink:href="#DejaVuSans-44"/>
     <use xlink:href="#DejaVuSans-69" x="77.001953"/>
     <use xlink:href="#DejaVuSans-73" x="104.785156"/>
     <use xlink:href="#DejaVuSans-74" x="156.884766"/>
     <use xlink:href="#DejaVuSans-61" x="196.09375"/>
     <use xlink:href="#DejaVuSans-6e" x="257.373047"/>
     <use xlink:href="#DejaVuSans-63" x="320.751953"/>
     <use xlink:href="#DejaVuSans-65" x="375.732422"/>
     <use xlink:href="#DejaVuSans-20" x="437.255859"/>
     <use xlink:href="#DejaVuSans-74" x="469.042969"/>
     <use xlink:href="#DejaVuSans-6f" x="508.251953"/>
     <use xlink:href="#DejaVuSans-20" x="569.433594"/>
     <use xlink:href="#DejaVuSans-6f" x="601.220703"/>
     <use xlink:href="#DejaVuSans-62" x="662.402344"/>
     <use xlink:href="#DejaVuSans-6a" x="725.878906"/>
     <use xlink:href="#DejaVuSans-65" x="753.662109"/>
     <use xlink:href="#DejaVuSans-63" x="815.185547"/>
     <use xlink:href="#DejaVuSans-74" x="870.166016"/>
    </g>
   </g>
   <g id="legend_1">
    <g id="patch_7">
     <path d="M 1361.485938 158.834375 
L 1422.2 158.834375 
Q 1424.2 158.834375 1424.2 156.834375 
L 1424.2 113.8 
Q 1424.2 111.8 1422.2 111.8 
L 1361.485938 111.8 
Q 1359.485938 111.8 1359.485938 113.8 
L 1359.485938 156.834375 
Q 1359.485938 158.834375 1361.485938 158.834375 
z
" style="fill: #ffffff; opacity: 0.8; stroke: #cccccc; stroke-linejoin: miter"/>
    </g>
    <g id="line2d_32">
     <path d="M 1363.485938 119.898438 
L 1373.485938 119.898438 
L 1383.485938 119.898438 
" style="fill: none; stroke: #1f77b4; stroke-width: 1.5; stroke-linecap: square"/>
    </g>
    <g id="text_18">
     <!-- Run 1 -->
     <g transform="translate(1391.485938 123.398438) scale(0.1 -0.1)">
      <defs>
       <path id="DejaVuSans-52" d="M 2841 2188 
Q 3044 2119 3236 1894 
Q 3428 1669 3622 1275 
L 4263 0 
L 3584 0 
L 2988 1197 
Q 2756 1666 2539 1819 
Q 2322 1972 1947 1972 
L 1259 1972 
L 1259 0 
L 628 0 
L 628 4666 
L 2053 4666 
Q 2853 4666 3247 4331 
Q 3641 3997 3641 3322 
Q 3641 2881 3436 2590 
Q 3231 2300 2841 2188 
z
M 1259 4147 
L 1259 2491 
L 2053 2491 
Q 2509 2491 2742 2702 
Q 2975 2913 2975 3322 
Q 2975 3731 2742 3939 
Q 2509 4147 2053 4147 
L 1259 4147 
z
" transform="scale(0.015625)"/>
       <path id="DejaVuSans-75" d="M 544 1381 
L 544 3500 
L 1119 3500 
L 1119 1403 
Q 1119 906 1312 657 
Q 1506 409 1894 409 
Q 2359 409 2629 706 
Q 2900 1003 2900 1516 
L 2900 3500 
L 3475 3500 
L 3475 0 
L 2900 0 
L 2900 538 
Q 2691 219 2414 64 
Q 2138 -91 1772 -91 
Q 1169 -91 856 284 
Q 544 659 544 1381 
z
M 1991 3584 
L 1991 3584 
z
" transform="scale(0.015625)"/>
      </defs>
      <use xlink:href="#DejaVuSans-52"/>
      <use xlink:href="#DejaVuSans-75" x="64.982422"/>
      <use xlink:href="#DejaVuSans-6e" x="128.361328"/>
      <use xlink:href="#DejaVuSans-20" x="191.740234"/>
      <use xlink:href="#DejaVuSans-31" x="223.527344"/>
     </g>
    </g>
    <g id="line2d_33">
     <path d="M 1363.485938 134.576563 
L 1373.485938 134.576563 
L 1383.485938 134.576563 
" style="fill: none; stroke: #ff7f0e; stroke-width: 1.5; stroke-linecap: square"/>
    </g>
    <g id="text_19">
     <!-- Run 2 -->
     <g transform="translate(1391.485938 138.076563) scale(0.1 -0.1)">
      <use xlink:href="#DejaVuSans-52"/>
      <use xlink:href="#DejaVuSans-75" x="64.982422"/>
      <use xlink:href="#DejaVuSans-6e" x="128.361328"/>
      <use xlink:href="#DejaVuSans-20" x="191.740234"/>
      <use xlink:href="#DejaVuSans-32" x="223.527344"/>
     </g>
    </g>
    <g id="line2d_34">
     <path d="M 1363.485938 149.254688 
L 1373.485938 149.254688 
L 1383.485938 149.254688 
" style="fill: none; stroke: #2ca02c; stroke-width: 1.5; stroke-linecap: square"/>
    </g>
    <g id="text_20">
     <!-- Run 3 -->
     <g transform="translate(1391.485938 152.754688) scale(0.1 -0.1)">
      <defs>
       <path id="DejaVuSans-33" d="M 2597 2516 
Q 3050 2419 3304 2112 
Q 3559 1806 3559 1356 
Q 3559 666 3084 287 
Q 2609 -91 1734 -91 
Q 1441 -91 1130 -33 
Q 819 25 488 141 
L 488 750 
Q 750 597 1062 519 
Q 1375 441 1716 441 
Q 2309 441 2620 675 
Q 2931 909 2931 1356 
Q 2931 1769 2642 2001 
Q 2353 2234 1838 2234 
L 1294 2234 
L 1294 2753 
L 1863 2753 
Q 2328 2753 2575 2939 
Q 2822 3125 2822 3475 
Q 2822 3834 2567 4026 
Q 2313 4219 1838 4219 
Q 1578 4219 1281 4162 
Q 984 4106 628 3988 
L 628 4550 
Q 988 4650 1302 4700 
Q 1616 4750 1894 4750 
Q 2613 4750 3031 4423 
Q 3450 4097 3450 3541 
Q 3450 3153 3228 2886 
Q 3006 2619 2597 2516 
z
" transform="scale(0.015625)"/>
      </defs>
      <use xlink:href="#DejaVuSans-52"/>
      <use xlink:href="#DejaVuSans-75" x="64.982422"/>
      <use xlink:href="#DejaVuSans-6e" x="128.361328"/>
      <use xlink:href="#DejaVuSans-20" x="191.740234"/>
      <use xlink:href="#DejaVuSans-33" x="223.527344"/>
     </g>
    </g>
   </g>
  </g>
  <g id="axes_2">
   <g id="patch_8">
    <path d="M 78.77 1027.96 
L 1429.2 1027.96 
L 1429.2 604.32 
L 78.77 604.32 
z
" style="fill: #ffffff"/>
   </g>
   <g id="matplotlib.axis_3">
    <g id="xtick_9">
     <g id="line2d_35">
      <path d="M 140.153182 1027.96 
L 140.153182 604.32 
" clip-path="url(#pf072d9c7a8)" style="fill: none; stroke: #b0b0b0; stroke-width: 0.8; stroke-linecap: square"/>
     </g>
     <g id="line2d_36">
      <g>
       <use xlink:href="#me74a6ecf5e" x="140.153182" y="1027.96" style="stroke: #000000; stroke-width: 0.8"/>
      </g>
     </g>
     <g id="text_21">
      <!-- 0.0 -->
      <g transform="translate(132.201619 1042.558437) scale(0.1 -0.1)">
       <use xlink:href="#DejaVuSans-30"/>
       <use xlink:href="#DejaVuSans-2e" x="63.623047"/>
       <use xlink:href="#DejaVuSans-30" x="95.410156"/>
      </g>
     </g>
    </g>
    <g id="xtick_10">
     <g id="line2d_37">
      <path d="M 315.199293 1027.96 
L 315.199293 604.32 
" clip-path="url(#pf072d9c7a8)" style="fill: none; stroke: #b0b0b0; stroke-width: 0.8; stroke-linecap: square"/>
     </g>
     <g id="line2d_38">
      <g>
       <use xlink:href="#me74a6ecf5e" x="315.199293" y="1027.96" style="stroke: #000000; stroke-width: 0.8"/>
      </g>
     </g>
     <g id="text_22">
      <!-- 2.5 -->
      <g transform="translate(307.247731 1042.558437) scale(0.1 -0.1)">
       <use xlink:href="#DejaVuSans-32"/>
       <use xlink:href="#DejaVuSans-2e" x="63.623047"/>
       <use xlink:href="#DejaVuSans-35" x="95.410156"/>
      </g>
     </g>
    </g>
    <g id="xtick_11">
     <g id="line2d_39">
      <path d="M 490.245404 1027.96 
L 490.245404 604.32 
" clip-path="url(#pf072d9c7a8)" style="fill: none; stroke: #b0b0b0; stroke-width: 0.8; stroke-linecap: square"/>
     </g>
     <g id="line2d_40">
      <g>
       <use xlink:href="#me74a6ecf5e" x="490.245404" y="1027.96" style="stroke: #000000; stroke-width: 0.8"/>
      </g>
     </g>
     <g id="text_23">
      <!-- 5.0 -->
      <g transform="translate(482.293842 1042.558437) scale(0.1 -0.1)">
       <use xlink:href="#DejaVuSans-35"/>
       <use xlink:href="#DejaVuSans-2e" x="63.623047"/>
       <use xlink:href="#DejaVuSans-30" x="95.410156"/>
      </g>
     </g>
    </g>
    <g id="xtick_12">
     <g id="line2d_41">
      <path d="M 665.291516 1027.96 
L 665.291516 604.32 
" clip-path="url(#pf072d9c7a8)" style="fill: none; stroke: #b0b0b0; stroke-width: 0.8; stroke-linecap: square"/>
     </g>
     <g id="line2d_42">
      <g>
       <use xlink:href="#me74a6ecf5e" x="665.291516" y="1027.96" style="stroke: #000000; stroke-width: 0.8"/>
      </g>
     </g>
     <g id="text_24">
      <!-- 7.5 -->
      <g transform="translate(657.339953 1042.558437) scale(0.1 -0.1)">
       <use xlink:href="#DejaVuSans-37"/>
       <use xlink:href="#DejaVuSans-2e" x="63.623047"/>
       <use xlink:href="#DejaVuSans-35" x="95.410156"/>
      </g>
     </g>
    </g>
    <g id="xtick_13">
     <g id="line2d_43">
      <path d="M 840.337627 1027.96 
L 840.337627 604.32 
" clip-path="url(#pf072d9c7a8)" style="fill: none; stroke: #b0b0b0; stroke-width: 0.8; stroke-linecap: square"/>
     </g>
     <g id="line2d_44">
      <g>
       <use xlink:href="#me74a6ecf5e" x="840.337627" y="1027.96" style="stroke: #000000; stroke-width: 0.8"/>
      </g>
     </g>
     <g id="text_25">
      <!-- 10.0 -->
      <g transform="translate(829.204815 1042.558437) scale(0.1 -0.1)">
       <use xlink:href="#DejaVuSans-31"/>
       <use xlink:href="#DejaVuSans-30" x="63.623047"/>
       <use xlink:href="#DejaVuSans-2e" x="127.246094"/>
       <use xlink:href="#DejaVuSans-30" x="159.033203"/>
      </g>
     </g>
    </g>
    <g id="xtick_14">
     <g id="line2d_45">
      <path d="M 1015.383738 1027.96 
L 1015.383738 604.32 
" clip-path="url(#pf072d9c7a8)" style="fill: none; stroke: #b0b0b0; stroke-width: 0.8; stroke-linecap: square"/>
     </g>
     <g id="line2d_46">
      <g>
       <use xlink:href="#me74a6ecf5e" x="1015.383738" y="1027.96" style="stroke: #000000; stroke-width: 0.8"/>
      </g>
     </g>
     <g id="text_26">
      <!-- 12.5 -->
      <g transform="translate(1004.250926 1042.558437) scale(0.1 -0.1)">
       <use xlink:href="#DejaVuSans-31"/>
       <use xlink:href="#DejaVuSans-32" x="63.623047"/>
       <use xlink:href="#DejaVuSans-2e" x="127.246094"/>
       <use xlink:href="#DejaVuSans-35" x="159.033203"/>
      </g>
     </g>
    </g>
    <g id="xtick_15">
     <g id="line2d_47">
      <path d="M 1190.42985 1027.96 
L 1190.42985 604.32 
" clip-path="url(#pf072d9c7a8)" style="fill: none; stroke: #b0b0b0; stroke-width: 0.8; stroke-linecap: square"/>
     </g>
     <g id="line2d_48">
      <g>
       <use xlink:href="#me74a6ecf5e" x="1190.42985" y="1027.96" style="stroke: #000000; stroke-width: 0.8"/>
      </g>
     </g>
     <g id="text_27">
      <!-- 15.0 -->
      <g transform="translate(1179.297037 1042.558437) scale(0.1 -0.1)">
       <use xlink:href="#DejaVuSans-31"/>
       <use xlink:href="#DejaVuSans-35" x="63.623047"/>
       <use xlink:href="#DejaVuSans-2e" x="127.246094"/>
       <use xlink:href="#DejaVuSans-30" x="159.033203"/>
      </g>
     </g>
    </g>
    <g id="xtick_16">
     <g id="line2d_49">
      <path d="M 1365.475961 1027.96 
L 1365.475961 604.32 
" clip-path="url(#pf072d9c7a8)" style="fill: none; stroke: #b0b0b0; stroke-width: 0.8; stroke-linecap: square"/>
     </g>
     <g id="line2d_50">
      <g>
       <use xlink:href="#me74a6ecf5e" x="1365.475961" y="1027.96" style="stroke: #000000; stroke-width: 0.8"/>
      </g>
     </g>
     <g id="text_28">
      <!-- 17.5 -->
      <g transform="translate(1354.343149 1042.558437) scale(0.1 -0.1)">
       <use xlink:href="#DejaVuSans-31"/>
       <use xlink:href="#DejaVuSans-37" x="63.623047"/>
       <use xlink:href="#DejaVuSans-2e" x="127.246094"/>
       <use xlink:href="#DejaVuSans-35" x="159.033203"/>
      </g>
     </g>
    </g>
    <g id="text_29">
     <!-- Time (s) -->
     <g transform="translate(713.327188 1063.835) scale(0.2 -0.2)">
      <use xlink:href="#DejaVuSans-54"/>
      <use xlink:href="#DejaVuSans-69" x="57.958984"/>
      <use xlink:href="#DejaVuSans-6d" x="85.742188"/>
      <use xlink:href="#DejaVuSans-65" x="183.154297"/>
      <use xlink:href="#DejaVuSans-20" x="244.677734"/>
      <use xlink:href="#DejaVuSans-28" x="276.464844"/>
      <use xlink:href="#DejaVuSans-73" x="315.478516"/>
      <use xlink:href="#DejaVuSans-29" x="367.578125"/>
     </g>
    </g>
   </g>
   <g id="matplotlib.axis_4">
    <g id="ytick_7">
     <g id="line2d_51">
      <path d="M 78.77 1013.189192 
L 1429.2 1013.189192 
" clip-path="url(#pf072d9c7a8)" style="fill: none; stroke: #b0b0b0; stroke-width: 0.8; stroke-linecap: square"/>
     </g>
     <g id="line2d_52">
      <g>
       <use xlink:href="#m385243afbf" x="78.77" y="1013.189192" style="stroke: #000000; stroke-width: 0.8"/>
      </g>
     </g>
     <g id="text_30">
      <!-- −0.100 -->
      <g transform="translate(34.762187 1016.988411) scale(0.1 -0.1)">
       <defs>
        <path id="DejaVuSans-2212" d="M 678 2272 
L 4684 2272 
L 4684 1741 
L 678 1741 
L 678 2272 
z
" transform="scale(0.015625)"/>
       </defs>
       <use xlink:href="#DejaVuSans-2212"/>
       <use xlink:href="#DejaVuSans-30" x="83.789062"/>
       <use xlink:href="#DejaVuSans-2e" x="147.412109"/>
       <use xlink:href="#DejaVuSans-31" x="179.199219"/>
       <use xlink:href="#DejaVuSans-30" x="242.822266"/>
       <use xlink:href="#DejaVuSans-30" x="306.445312"/>
      </g>
     </g>
    </g>
    <g id="ytick_8">
     <g id="line2d_53">
      <path d="M 78.77 955.215682 
L 1429.2 955.215682 
" clip-path="url(#pf072d9c7a8)" style="fill: none; stroke: #b0b0b0; stroke-width: 0.8; stroke-linecap: square"/>
     </g>
     <g id="line2d_54">
      <g>
       <use xlink:href="#m385243afbf" x="78.77" y="955.215682" style="stroke: #000000; stroke-width: 0.8"/>
      </g>
     </g>
     <g id="text_31">
      <!-- −0.075 -->
      <g transform="translate(34.762187 959.014901) scale(0.1 -0.1)">
       <use xlink:href="#DejaVuSans-2212"/>
       <use xlink:href="#DejaVuSans-30" x="83.789062"/>
       <use xlink:href="#DejaVuSans-2e" x="147.412109"/>
       <use xlink:href="#DejaVuSans-30" x="179.199219"/>
       <use xlink:href="#DejaVuSans-37" x="242.822266"/>
       <use xlink:href="#DejaVuSans-35" x="306.445312"/>
      </g>
     </g>
    </g>
    <g id="ytick_9">
     <g id="line2d_55">
      <path d="M 78.77 897.242172 
L 1429.2 897.242172 
" clip-path="url(#pf072d9c7a8)" style="fill: none; stroke: #b0b0b0; stroke-width: 0.8; stroke-linecap: square"/>
     </g>
     <g id="line2d_56">
      <g>
       <use xlink:href="#m385243afbf" x="78.77" y="897.242172" style="stroke: #000000; stroke-width: 0.8"/>
      </g>
     </g>
     <g id="text_32">
      <!-- −0.050 -->
      <g transform="translate(34.762187 901.041391) scale(0.1 -0.1)">
       <use xlink:href="#DejaVuSans-2212"/>
       <use xlink:href="#DejaVuSans-30" x="83.789062"/>
       <use xlink:href="#DejaVuSans-2e" x="147.412109"/>
       <use xlink:href="#DejaVuSans-30" x="179.199219"/>
       <use xlink:href="#DejaVuSans-35" x="242.822266"/>
       <use xlink:href="#DejaVuSans-30" x="306.445312"/>
      </g>
     </g>
    </g>
    <g id="ytick_10">
     <g id="line2d_57">
      <path d="M 78.77 839.268662 
L 1429.2 839.268662 
" clip-path="url(#pf072d9c7a8)" style="fill: none; stroke: #b0b0b0; stroke-width: 0.8; stroke-linecap: square"/>
     </g>
     <g id="line2d_58">
      <g>
       <use xlink:href="#m385243afbf" x="78.77" y="839.268662" style="stroke: #000000; stroke-width: 0.8"/>
      </g>
     </g>
     <g id="text_33">
      <!-- −0.025 -->
      <g transform="translate(34.762187 843.06788) scale(0.1 -0.1)">
       <use xlink:href="#DejaVuSans-2212"/>
       <use xlink:href="#DejaVuSans-30" x="83.789062"/>
       <use xlink:href="#DejaVuSans-2e" x="147.412109"/>
       <use xlink:href="#DejaVuSans-30" x="179.199219"/>
       <use xlink:href="#DejaVuSans-32" x="242.822266"/>
       <use xlink:href="#DejaVuSans-35" x="306.445312"/>
      </g>
     </g>
    </g>
    <g id="ytick_11">
     <g id="line2d_59">
      <path d="M 78.77 781.295152 
L 1429.2 781.295152 
" clip-path="url(#pf072d9c7a8)" style="fill: none; stroke: #b0b0b0; stroke-width: 0.8; stroke-linecap: square"/>
     </g>
     <g id="line2d_60">
      <g>
       <use xlink:href="#m385243afbf" x="78.77" y="781.295152" style="stroke: #000000; stroke-width: 0.8"/>
      </g>
     </g>
     <g id="text_34">
      <!-- 0.000 -->
      <g transform="translate(43.141875 785.09437) scale(0.1 -0.1)">
       <use xlink:href="#DejaVuSans-30"/>
       <use xlink:href="#DejaVuSans-2e" x="63.623047"/>
       <use xlink:href="#DejaVuSans-30" x="95.410156"/>
       <use xlink:href="#DejaVuSans-30" x="159.033203"/>
       <use xlink:href="#DejaVuSans-30" x="222.65625"/>
      </g>
     </g>
    </g>
    <g id="ytick_12">
     <g id="line2d_61">
      <path d="M 78.77 723.321641 
L 1429.2 723.321641 
" clip-path="url(#pf072d9c7a8)" style="fill: none; stroke: #b0b0b0; stroke-width: 0.8; stroke-linecap: square"/>
     </g>
     <g id="line2d_62">
      <g>
       <use xlink:href="#m385243afbf" x="78.77" y="723.321641" style="stroke: #000000; stroke-width: 0.8"/>
      </g>
     </g>
     <g id="text_35">
      <!-- 0.025 -->
      <g transform="translate(43.141875 727.12086) scale(0.1 -0.1)">
       <use xlink:href="#DejaVuSans-30"/>
       <use xlink:href="#DejaVuSans-2e" x="63.623047"/>
       <use xlink:href="#DejaVuSans-30" x="95.410156"/>
       <use xlink:href="#DejaVuSans-32" x="159.033203"/>
       <use xlink:href="#DejaVuSans-35" x="222.65625"/>
      </g>
     </g>
    </g>
    <g id="ytick_13">
     <g id="line2d_63">
      <path d="M 78.77 665.348131 
L 1429.2 665.348131 
" clip-path="url(#pf072d9c7a8)" style="fill: none; stroke: #b0b0b0; stroke-width: 0.8; stroke-linecap: square"/>
     </g>
     <g id="line2d_64">
      <g>
       <use xlink:href="#m385243afbf" x="78.77" y="665.348131" style="stroke: #000000; stroke-width: 0.8"/>
      </g>
     </g>
     <g id="text_36">
      <!-- 0.050 -->
      <g transform="translate(43.141875 669.14735) scale(0.1 -0.1)">
       <use xlink:href="#DejaVuSans-30"/>
       <use xlink:href="#DejaVuSans-2e" x="63.623047"/>
       <use xlink:href="#DejaVuSans-30" x="95.410156"/>
       <use xlink:href="#DejaVuSans-35" x="159.033203"/>
       <use xlink:href="#DejaVuSans-30" x="222.65625"/>
      </g>
     </g>
    </g>
    <g id="ytick_14">
     <g id="line2d_65">
      <path d="M 78.77 607.374621 
L 1429.2 607.374621 
" clip-path="url(#pf072d9c7a8)" style="fill: none; stroke: #b0b0b0; stroke-width: 0.8; stroke-linecap: square"/>
     </g>
     <g id="line2d_66">
      <g>
       <use xlink:href="#m385243afbf" x="78.77" y="607.374621" style="stroke: #000000; stroke-width: 0.8"/>
      </g>
     </g>
     <g id="text_37">
      <!-- 0.075 -->
      <g transform="translate(43.141875 611.17384) scale(0.1 -0.1)">
       <use xlink:href="#DejaVuSans-30"/>
       <use xlink:href="#DejaVuSans-2e" x="63.623047"/>
       <use xlink:href="#DejaVuSans-30" x="95.410156"/>
       <use xlink:href="#DejaVuSans-37" x="159.033203"/>
       <use xlink:href="#DejaVuSans-35" x="222.65625"/>
      </g>
     </g>
    </g>
    <g id="text_38">
     <!-- Angle error (rad) -->
     <g transform="translate(26.602812 899.549375) rotate(-90) scale(0.2 -0.2)">
      <defs>
       <path id="DejaVuSans-41" d="M 2188 4044 
L 1331 1722 
L 3047 1722 
L 2188 4044 
z
M 1831 4666 
L 2547 4666 
L 4325 0 
L 3669 0 
L 3244 1197 
L 1141 1197 
L 716 0 
L 50 0 
L 1831 4666 
z
" transform="scale(0.015625)"/>
       <path id="DejaVuSans-67" d="M 2906 1791 
Q 2906 2416 2648 2759 
Q 2391 3103 1925 3103 
Q 1463 3103 1205 2759 
Q 947 2416 947 1791 
Q 947 1169 1205 825 
Q 1463 481 1925 481 
Q 2391 481 2648 825 
Q 2906 1169 2906 1791 
z
M 3481 434 
Q 3481 -459 3084 -895 
Q 2688 -1331 1869 -1331 
Q 1566 -1331 1297 -1286 
Q 1028 -1241 775 -1147 
L 775 -588 
Q 1028 -725 1275 -790 
Q 1522 -856 1778 -856 
Q 2344 -856 2625 -561 
Q 2906 -266 2906 331 
L 2906 616 
Q 2728 306 2450 153 
Q 2172 0 1784 0 
Q 1141 0 747 490 
Q 353 981 353 1791 
Q 353 2603 747 3093 
Q 1141 3584 1784 3584 
Q 2172 3584 2450 3431 
Q 2728 3278 2906 2969 
L 2906 3500 
L 3481 3500 
L 3481 434 
z
" transform="scale(0.015625)"/>
       <path id="DejaVuSans-6c" d="M 603 4863 
L 1178 4863 
L 1178 0 
L 603 0 
L 603 4863 
z
" transform="scale(0.015625)"/>
       <path id="DejaVuSans-72" d="M 2631 2963 
Q 2534 3019 2420 3045 
Q 2306 3072 2169 3072 
Q 1681 3072 1420 2755 
Q 1159 2438 1159 1844 
L 1159 0 
L 581 0 
L 581 3500 
L 1159 3500 
L 1159 2956 
Q 1341 3275 1631 3429 
Q 1922 3584 2338 3584 
Q 2397 3584 2469 3576 
Q 2541 3569 2628 3553 
L 2631 2963 
z
" transform="scale(0.015625)"/>
       <path id="DejaVuSans-64" d="M 2906 2969 
L 2906 4863 
L 3481 4863 
L 3481 0 
L 2906 0 
L 2906 525 
Q 2725 213 2448 61 
Q 2172 -91 1784 -91 
Q 1150 -91 751 415 
Q 353 922 353 1747 
Q 353 2572 751 3078 
Q 1150 3584 1784 3584 
Q 2172 3584 2448 3432 
Q 2725 3281 2906 2969 
z
M 947 1747 
Q 947 1113 1208 752 
Q 1469 391 1925 391 
Q 2381 391 2643 752 
Q 2906 1113 2906 1747 
Q 2906 2381 2643 2742 
Q 2381 3103 1925 3103 
Q 1469 3103 1208 2742 
Q 947 2381 947 1747 
z
" transform="scale(0.015625)"/>
      </defs>
      <use xlink:href="#DejaVuSans-41"/>
      <use xlink:href="#DejaVuSans-6e" x="68.408203"/>
      <use xlink:href="#DejaVuSans-67" x="131.787109"/>
      <use xlink:href="#DejaVuSans-6c" x="195.263672"/>
      <use xlink:href="#DejaVuSans-65" x="223.046875"/>
      <use xlink:href="#DejaVuSans-20" x="284.570312"/>
      <use xlink:href="#DejaVuSans-65" x="316.357422"/>
      <use xlink:href="#DejaVuSans-72" x="377.880859"/>
      <use xlink:href="#DejaVuSans-72" x="417.244141"/>
      <use xlink:href="#DejaVuSans-6f" x="456.107422"/>
      <use xlink:href="#DejaVuSans-72" x="517.289062"/>
      <use xlink:href="#DejaVuSans-20" x="558.402344"/>
      <use xlink:href="#DejaVuSans-28" x="590.189453"/>
      <use xlink:href="#DejaVuSans-72" x="629.203125"/>
      <use xlink:href="#DejaVuSans-61" x="670.316406"/>
      <use xlink:href="#DejaVuSans-64" x="731.595703"/>
      <use xlink:href="#DejaVuSans-29" x="795.072266"/>
     </g>
    </g>
   </g>
   <g id="line2d_67">
    <path d="M 140.153182 713.439394 
L 155.712593 711.605455 
L 172.08876 713.439394 
L 184.198085 711.605455 
L 193.770218 709.771515 
L 204.462582 709.771515 
L 214.69874 706.103636 
L 225.053006 709.771515 
L 235.844714 724.44303 
L 246.350793 724.44303 
L 256.326914 746.450303 
L 266.678459 751.952121 
L 278.03448 834.479394 
L 288.260422 838.147273 
L 298.417853 850.984848 
L 308.377647 845.48303 
L 318.714902 828.977576 
L 328.116743 828.977576 
L 338.691099 812.472121 
L 346.490178 876.66 
L 355.531819 893.165455 
L 363.856131 964.689091 
L 374.565639 973.858788 
L 385.51153 1003.201818 
L 393.876208 1003.201818 
L 404.048797 979.360606 
L 414.972518 972.024848 
L 424.830247 909.670909 
L 432.123657 896.833333 
L 442.314776 819.807879 
L 450.558959 814.306061 
L 460.285792 838.147273 
L 470.208727 839.981212 
L 489.094942 887.663636 
L 499.073783 889.497576 
L 506.23139 885.829697 
L 519.467856 832.645455 
L 528.545288 720.775152 
L 561.44224 654.753333 
L 572.582563 641.915758 
L 583.64334 638.247879 
L 593.926791 673.092727 
L 604.829896 682.262424 
L 614.903475 709.771515 
L 624.907424 707.937576 
L 635.540909 711.605455 
L 646.139621 711.605455 
L 656.242964 720.775152 
L 665.965791 715.273333 
L 676.085411 665.75697 
L 686.285477 665.75697 
L 696.394079 654.753333 
L 707.027731 660.255152 
L 716.521671 722.609091 
L 746.299489 816.14 
L 756.131876 869.324242 
L 776.746006 924.342424 
L 787.924958 926.176364 
L 859.912023 856.486667 
L 868.706931 858.320606 
L 890.082143 874.826061 
L 902.648191 849.150909 
L 912.896519 823.475758 
L 926.404875 823.475758 
L 936.875363 790.464848 
L 949.221638 788.630909 
L 959.8612 762.955758 
L 970.1951 761.121818 
L 980.623653 770.291515 
L 990.78494 770.291515 
L 1001.055003 779.461212 
L 1011.758652 781.295152 
L 1023.61071 762.955758 
L 1032.359076 762.955758 
L 1042.963981 726.27697 
L 1085.502245 651.085455 
L 1096.328208 704.269697 
L 1107.680875 715.273333 
L 1118.602877 750.118182 
L 1129.195078 755.62 
L 1140.003513 806.970303 
L 1150.993008 814.306061 
L 1162.024137 898.667273 
L 1183.330955 935.346061 
L 1194.199153 939.013939 
L 1204.407183 940.847879 
L 1216.021022 907.83697 
L 1226.733435 900.501212 
L 1238.514478 821.641818 
L 1248.411704 801.468485 
L 1259.098175 718.941212 
L 1270.30008 715.273333 
L 1281.628624 704.269697 
L 1292.17208 706.103636 
L 1309.738458 702.435758 
L 1322.047155 704.269697 
L 1334.258879 702.435758 
L 1345.201916 702.435758 
L 1357.286751 706.103636 
L 1367.816818 702.435758 
" clip-path="url(#pf072d9c7a8)" style="fill: none; stroke: #1f77b4; stroke-width: 1.5; stroke-linecap: square"/>
   </g>
   <g id="line2d_68">
    <path d="M 140.153182 630.912121 
L 155.300943 630.912121 
L 166.485671 630.912121 
L 181.69974 632.746061 
L 191.599687 623.576364 
L 202.588714 625.410303 
L 213.236957 641.915758 
L 225.981911 647.417576 
L 240.080573 698.767879 
L 259.55272 761.121818 
L 269.25882 775.793333 
L 282.298502 772.125455 
L 291.9107 775.793333 
L 302.773356 775.793333 
L 312.546781 797.800606 
L 322.742608 805.136364 
L 332.695925 871.158182 
L 341.896156 883.995758 
L 351.820809 948.183636 
L 361.508096 957.353333 
L 369.99644 1008.703636 
L 380.752607 1008.703636 
L 390.728311 1008.703636 
L 401.475597 1006.869697 
L 411.458428 929.844242 
L 421.928682 917.006667 
L 430.183415 806.970303 
L 439.995921 784.96303 
L 447.112845 645.583636 
L 462.539842 640.081818 
L 471.767701 660.255152 
L 482.375511 665.75697 
L 489.722741 706.103636 
L 500.064187 713.439394 
L 509.98607 726.27697 
L 520.157022 726.27697 
L 528.134724 720.775152 
L 539.671505 717.107273 
L 548.097432 689.598182 
L 558.80472 684.096364 
L 566.324663 671.258788 
L 577.203245 671.258788 
L 586.677703 704.269697 
L 597.525385 711.605455 
L 616.450363 812.472121 
L 627.18825 896.833333 
L 638.152704 904.169091 
L 649.73995 931.678182 
L 664.039772 931.678182 
L 676.418183 926.176364 
L 686.9788 867.490303 
L 699.099025 863.822424 
L 709.034964 819.807879 
L 722.56544 821.641818 
L 732.741017 828.977576 
L 743.302302 832.645455 
L 753.343528 858.320606 
L 763.747191 861.988485 
L 773.415463 876.66 
L 783.860459 872.992121 
L 794.589182 865.656364 
L 804.579475 863.822424 
L 814.401396 819.807879 
L 824.256137 816.14 
L 834.241656 755.62 
L 844.629176 753.786061 
L 854.520226 731.778788 
L 864.791875 731.778788 
L 874.509911 761.121818 
L 884.676106 762.955758 
L 894.645382 777.627273 
L 907.48973 779.461212 
L 922.114111 801.468485 
L 931.998199 814.306061 
L 941.609279 808.804242 
L 951.511146 775.793333 
L 963.097791 768.457576 
L 972.571314 731.778788 
L 982.661486 728.110909 
L 993.374016 718.941212 
L 1003.849011 715.273333 
L 1014.277631 737.280606 
L 1024.481036 740.948485 
L 1034.351051 766.623636 
L 1044.494626 775.793333 
L 1054.990973 812.472121 
L 1064.692148 814.306061 
L 1075.427915 836.313333 
L 1085.540958 838.147273 
L 1096.271567 841.815152 
L 1106.698634 841.815152 
L 1117.211424 825.309697 
L 1127.612833 821.641818 
L 1138.727414 757.453939 
L 1149.991586 748.284242 
L 1159.651128 711.605455 
L 1170.288703 707.937576 
L 1181.634992 733.612727 
L 1192.856028 740.948485 
L 1203.431953 770.291515 
L 1214.027093 761.121818 
L 1225.2712 762.955758 
L 1236.877293 773.959394 
L 1247.683942 773.959394 
L 1259.224613 786.79697 
L 1269.553822 786.79697 
L 1280.784424 794.132727 
L 1292.120597 788.630909 
L 1303.0642 797.800606 
L 1314.574756 803.302424 
L 1326.954401 805.136364 
L 1338.25722 801.468485 
L 1350.385008 801.468485 
L 1362.544681 823.475758 
" clip-path="url(#pf072d9c7a8)" style="fill: none; stroke: #ff7f0e; stroke-width: 1.5; stroke-linecap: square"/>
   </g>
   <g id="line2d_69">
    <path d="M 140.153182 689.598182 
L 154.622762 676.760606 
L 167.349837 676.760606 
L 192.172982 658.421212 
L 205.292609 656.587273 
L 215.613271 663.92303 
L 226.339373 669.424848 
L 237.039365 720.775152 
L 247.711112 726.27697 
L 258.935571 704.269697 
L 269.472299 700.601818 
L 280.985208 676.760606 
L 291.551869 676.760606 
L 303.084376 715.273333 
L 315.520947 724.44303 
L 326.370833 814.306061 
L 337.692766 828.977576 
L 350.606944 874.826061 
L 361.231398 878.493939 
L 373.250476 906.00303 
L 384.300519 904.169091 
L 395.57182 860.154545 
L 407.275488 847.31697 
L 418.74294 871.158182 
L 429.571124 874.826061 
L 440.383265 928.010303 
L 451.340057 931.678182 
L 463.623413 935.346061 
L 475.345044 917.006667 
L 485.653769 911.504848 
L 497.499618 860.154545 
L 507.790431 852.818788 
L 521.982962 805.136364 
L 532.888705 834.479394 
L 543.977677 839.981212 
L 554.977723 850.984848 
L 565.221176 850.984848 
L 577.571291 845.48303 
L 589.623306 843.649091 
L 600.492857 797.800606 
L 611.039852 788.630909 
L 621.400578 726.27697 
L 632.804027 718.941212 
L 645.469235 689.598182 
L 656.881598 693.266061 
L 668.870995 750.118182 
L 678.92808 806.970303 
L 690.137515 814.306061 
L 700.788478 834.479394 
L 711.400328 832.645455 
L 721.644482 823.475758 
L 732.556435 823.475758 
L 742.766601 790.464848 
L 753.038167 786.79697 
L 763.690866 792.298788 
L 774.687873 792.298788 
L 784.998485 854.652727 
L 795.245178 863.822424 
L 805.602966 942.681818 
L 816.007263 957.353333 
L 827.565997 957.353333 
L 839.449355 940.847879 
L 850.230045 935.346061 
L 861.205501 858.320606 
L 872.882359 812.472121 
L 884.209166 808.804242 
L 894.57859 821.641818 
L 905.869991 823.475758 
L 919.601209 828.977576 
L 930.812312 801.468485 
L 941.87798 797.800606 
L 952.818947 740.948485 
L 963.53974 729.944848 
L 973.6123 660.255152 
L 984.204101 652.919394 
L 995.421665 647.417576 
L 1006.747287 649.251515 
L 1017.509297 722.609091 
L 1028.618886 728.110909 
L 1039.28681 762.955758 
L 1049.901231 764.789697 
L 1061.196838 762.955758 
L 1071.43894 761.121818 
L 1082.661812 713.439394 
L 1093.585501 711.605455 
L 1105.758362 726.27697 
L 1116.539986 731.778788 
L 1127.124993 783.129091 
L 1138.51542 805.136364 
L 1149.090077 812.472121 
L 1160.152773 836.313333 
L 1171.149063 838.147273 
L 1183.165921 839.981212 
L 1194.587983 841.815152 
L 1206.217598 845.48303 
L 1217.262849 847.31697 
L 1230.266906 843.649091 
L 1243.665018 839.981212 
L 1256.268059 821.641818 
L 1268.494657 821.641818 
" clip-path="url(#pf072d9c7a8)" style="fill: none; stroke: #2ca02c; stroke-width: 1.5; stroke-linecap: square"/>
   </g>
   <g id="patch_9">
    <path d="M 78.77 1027.96 
L 78.77 604.32 
" style="fill: none; stroke: #000000; stroke-width: 0.8; stroke-linejoin: miter; stroke-linecap: square"/>
   </g>
   <g id="patch_10">
    <path d="M 1429.2 1027.96 
L 1429.2 604.32 
" style="fill: none; stroke: #000000; stroke-width: 0.8; stroke-linejoin: miter; stroke-linecap: square"/>
   </g>
   <g id="patch_11">
    <path d="M 78.77 1027.96 
L 1429.2 1027.96 
" style="fill: none; stroke: #000000; stroke-width: 0.8; stroke-linejoin: miter; stroke-linecap: square"/>
   </g>
   <g id="patch_12">
    <path d="M 78.77 604.32 
L 1429.2 604.32 
" style="fill: none; stroke: #000000; stroke-width: 0.8; stroke-linejoin: miter; stroke-linecap: square"/>
   </g>
   <g id="text_39">
    <!-- Angle error -->
    <g transform="translate(698.144375 598.32) scale(0.2 -0.2)">
     <use xlink:href="#DejaVuSans-41"/>
     <use xlink:href="#DejaVuSans-6e" x="68.408203"/>
     <use xlink:href="#DejaVuSans-67" x="131.787109"/>
     <use xlink:href="#DejaVuSans-6c" x="195.263672"/>
     <use xlink:href="#DejaVuSans-65" x="223.046875"/>
     <use xlink:href="#DejaVuSans-20" x="284.570312"/>
     <use xlink:href="#DejaVuSans-65" x="316.357422"/>
     <use xlink:href="#DejaVuSans-72" x="377.880859"/>
     <use xlink:href="#DejaVuSans-72" x="417.244141"/>
     <use xlink:href="#DejaVuSans-6f" x="456.107422"/>
     <use xlink:href="#DejaVuSans-72" x="517.289062"/>
    </g>
   </g>
   <g id="legend_2">
    <g id="patch_13">
     <path d="M 1361.485938 656.354375 
L 1422.2 656.354375 
Q 1424.2 656.354375 1424.2 654.354375 
L 1424.2 611.32 
Q 1424.2 609.32 1422.2 609.32 
L 1361.485938 609.32 
Q 1359.485938 609.32 1359.485938 611.32 
L 1359.485938 654.354375 
Q 1359.485938 656.354375 1361.485938 656.354375 
z
" style="fill: #ffffff; opacity: 0.8; stroke: #cccccc; stroke-linejoin: miter"/>
    </g>
    <g id="line2d_70">
     <path d="M 1363.485938 617.418437 
L 1373.485938 617.418437 
L 1383.485938 617.418437 
" style="fill: none; stroke: #1f77b4; stroke-width: 1.5; stroke-linecap: square"/>
    </g>
    <g id="text_40">
     <!-- Run 1 -->
     <g transform="translate(1391.485938 620.918437) scale(0.1 -0.1)">
      <use xlink:href="#DejaVuSans-52"/>
      <use xlink:href="#DejaVuSans-75" x="64.982422"/>
      <use xlink:href="#DejaVuSans-6e" x="128.361328"/>
      <use xlink:href="#DejaVuSans-20" x="191.740234"/>
      <use xlink:href="#DejaVuSans-31" x="223.527344"/>
     </g>
    </g>
    <g id="line2d_71">
     <path d="M 1363.485938 632.096563 
L 1373.485938 632.096563 
L 1383.485938 632.096563 
" style="fill: none; stroke: #ff7f0e; stroke-width: 1.5; stroke-linecap: square"/>
    </g>
    <g id="text_41">
     <!-- Run 2 -->
     <g transform="translate(1391.485938 635.596563) scale(0.1 -0.1)">
      <use xlink:href="#DejaVuSans-52"/>
      <use xlink:href="#DejaVuSans-75" x="64.982422"/>
      <use xlink:href="#DejaVuSans-6e" x="128.361328"/>
      <use xlink:href="#DejaVuSans-20" x="191.740234"/>
      <use xlink:href="#DejaVuSans-32" x="223.527344"/>
     </g>
    </g>
    <g id="line2d_72">
     <path d="M 1363.485938 646.774688 
L 1373.485938 646.774688 
L 1383.485938 646.774688 
" style="fill: none; stroke: #2ca02c; stroke-width: 1.5; stroke-linecap: square"/>
    </g>
    <g id="text_42">
     <!-- Run 3 -->
     <g transform="translate(1391.485938 650.274688) scale(0.1 -0.1)">
      <use xlink:href="#DejaVuSans-52"/>
      <use xlink:href="#DejaVuSans-75" x="64.982422"/>
      <use xlink:href="#DejaVuSans-6e" x="128.361328"/>
      <use xlink:href="#DejaVuSans-20" x="191.740234"/>
      <use xlink:href="#DejaVuSans-33" x="223.527344"/>
     </g>
    </g>
   </g>
  </g>
  <g id="text_43">
   <!-- Experiment 2 -->
   <g transform="translate(652.679688 36.796875) scale(0.2 -0.2)">
    <defs>
     <path id="DejaVuSans-45" d="M 628 4666 
L 3578 4666 
L 3578 4134 
L 1259 4134 
L 1259 2753 
L 3481 2753 
L 3481 2222 
L 1259 2222 
L 1259 531 
L 3634 531 
L 3634 0 
L 628 0 
L 628 4666 
z
" transform="scale(0.015625)"/>
     <path id="DejaVuSans-78" d="M 3513 3500 
L 2247 1797 
L 3578 0 
L 2900 0 
L 1881 1375 
L 863 0 
L 184 0 
L 1544 1831 
L 300 3500 
L 978 3500 
L 1906 2253 
L 2834 3500 
L 3513 3500 
z
" transform="scale(0.015625)"/>
     <path id="DejaVuSans-70" d="M 1159 525 
L 1159 -1331 
L 581 -1331 
L 581 3500 
L 1159 3500 
L 1159 2969 
Q 1341 3281 1617 3432 
Q 1894 3584 2278 3584 
Q 2916 3584 3314 3078 
Q 3713 2572 3713 1747 
Q 3713 922 3314 415 
Q 2916 -91 2278 -91 
Q 1894 -91 1617 61 
Q 1341 213 1159 525 
z
M 3116 1747 
Q 3116 2381 2855 2742 
Q 2594 3103 2138 3103 
Q 1681 3103 1420 2742 
Q 1159 2381 1159 1747 
Q 1159 1113 1420 752 
Q 1681 391 2138 391 
Q 2594 391 2855 752 
Q 3116 1113 3116 1747 
z
" transform="scale(0.015625)"/>
    </defs>
    <use xlink:href="#DejaVuSans-45"/>
    <use xlink:href="#DejaVuSans-78" x="63.183594"/>
    <use xlink:href="#DejaVuSans-70" x="122.363281"/>
    <use xlink:href="#DejaVuSans-65" x="185.839844"/>
    <use xlink:href="#DejaVuSans-72" x="247.363281"/>
    <use xlink:href="#DejaVuSans-69" x="288.476562"/>
    <use xlink:href="#DejaVuSans-6d" x="316.259766"/>
    <use xlink:href="#DejaVuSans-65" x="413.671875"/>
    <use xlink:href="#DejaVuSans-6e" x="475.195312"/>
    <use xlink:href="#DejaVuSans-74" x="538.574219"/>
    <use xlink:href="#DejaVuSans-20" x="577.783203"/>
    <use xlink:href="#DejaVuSans-32" x="609.570312"/>
   </g>
  </g>
 </g>
 <defs>
  <clipPath id="pfa8e8b350e">
   <rect x="78.77" y="106.8" width="1350.43" height="423.64"/>
  </clipPath>
  <clipPath id="pf072d9c7a8">
   <rect x="78.77" y="604.32" width="1350.43" height="423.64"/>
  </clipPath>
 </defs>
</svg>
