<?xml version="1.0" encoding="utf-8" standalone="no"?>
<!DOCTYPE svg PUBLIC "-//W3C//DTD SVG 1.1//EN"
  "http://www.w3.org/Graphics/SVG/1.1/DTD/svg11.dtd">
<svg xmlns:xlink="http://www.w3.org/1999/xlink" width="1440pt" height="1080pt" viewBox="0 0 1440 1080" xmlns="http://www.w3.org/2000/svg" version="1.1">
 <metadata>
  <rdf:RDF xmlns:dc="http://purl.org/dc/elements/1.1/" xmlns:cc="http://creativecommons.org/ns#" xmlns:rdf="http://www.w3.org/1999/02/22-rdf-syntax-ns#">
   <cc:Work>
    <dc:type rdf:resource="http://purl.org/dc/dcmitype/StillImage"/>
    <dc:date>2024-05-17T21:03:00.247196</dc:date>
    <dc:format>image/svg+xml</dc:format>
    <dc:creator>
     <cc:Agent>
      <dc:title>Matplotlib v3.8.1, https://matplotlib.org/</dc:title>
     </cc:Agent>
    </dc:creator>
   </cc:Work>
  </rdf:RDF>
 </metadata>
 <defs>
  <style type="text/css">*{stroke-linejoin: round; stroke-linecap: butt}</style>
 </defs>
 <g id="figure_1">
  <g id="patch_1">
   <path d="M 0 1080 
L 1440 1080 
L 1440 0 
L 0 0 
z
" style="fill: #ffffff"/>
  </g>
  <g id="axes_1">
   <g id="patch_2">
    <path d="M 66.17 530.44 
L 1429.2 530.44 
L 1429.2 106.8 
L 66.17 106.8 
z
" style="fill: #ffffff"/>
   </g>
   <g id="matplotlib.axis_1">
    <g id="xtick_1">
     <g id="line2d_1">
      <path d="M 128.125909 530.44 
L 128.125909 106.8 
" clip-path="url(#pa45095be50)" style="fill: none; stroke: #b0b0b0; stroke-width: 0.8; stroke-linecap: square"/>
     </g>
     <g id="line2d_2">
      <defs>
       <path id="m0e010f5292" d="M 0 0 
L 0 3.5 
" style="stroke: #000000; stroke-width: 0.8"/>
      </defs>
      <g>
       <use xlink:href="#m0e010f5292" x="128.125909" y="530.44" style="stroke: #000000; stroke-width: 0.8"/>
      </g>
     </g>
     <g id="text_1">
      <!-- 0 -->
      <g transform="translate(124.944659 545.038438) scale(0.1 -0.1)">
       <defs>
        <path id="DejaVuSans-30" d="M 2034 4250 
Q 1547 4250 1301 3770 
Q 1056 3291 1056 2328 
Q 1056 1369 1301 889 
Q 1547 409 2034 409 
Q 2525 409 2770 889 
Q 3016 1369 3016 2328 
Q 3016 3291 2770 3770 
Q 2525 4250 2034 4250 
z
M 2034 4750 
Q 2819 4750 3233 4129 
Q 3647 3509 3647 2328 
Q 3647 1150 3233 529 
Q 2819 -91 2034 -91 
Q 1250 -91 836 529 
Q 422 1150 422 2328 
Q 422 3509 836 4129 
Q 1250 4750 2034 4750 
z
" transform="scale(0.015625)"/>
       </defs>
       <use xlink:href="#DejaVuSans-30"/>
      </g>
     </g>
    </g>
    <g id="xtick_2">
     <g id="line2d_3">
      <path d="M 406.741465 530.44 
L 406.741465 106.8 
" clip-path="url(#pa45095be50)" style="fill: none; stroke: #b0b0b0; stroke-width: 0.8; stroke-linecap: square"/>
     </g>
     <g id="line2d_4">
      <g>
       <use xlink:href="#m0e010f5292" x="406.741465" y="530.44" style="stroke: #000000; stroke-width: 0.8"/>
      </g>
     </g>
     <g id="text_2">
      <!-- 10 -->
      <g transform="translate(400.378965 545.038438) scale(0.1 -0.1)">
       <defs>
        <path id="DejaVuSans-31" d="M 794 531 
L 1825 531 
L 1825 4091 
L 703 3866 
L 703 4441 
L 1819 4666 
L 2450 4666 
L 2450 531 
L 3481 531 
L 3481 0 
L 794 0 
L 794 531 
z
" transform="scale(0.015625)"/>
       </defs>
       <use xlink:href="#DejaVuSans-31"/>
       <use xlink:href="#DejaVuSans-30" x="63.623047"/>
      </g>
     </g>
    </g>
    <g id="xtick_3">
     <g id="line2d_5">
      <path d="M 685.35702 530.44 
L 685.35702 106.8 
" clip-path="url(#pa45095be50)" style="fill: none; stroke: #b0b0b0; stroke-width: 0.8; stroke-linecap: square"/>
     </g>
     <g id="line2d_6">
      <g>
       <use xlink:href="#m0e010f5292" x="685.35702" y="530.44" style="stroke: #000000; stroke-width: 0.8"/>
      </g>
     </g>
     <g id="text_3">
      <!-- 20 -->
      <g transform="translate(678.99452 545.038438) scale(0.1 -0.1)">
       <defs>
        <path id="DejaVuSans-32" d="M 1228 531 
L 3431 531 
L 3431 0 
L 469 0 
L 469 531 
Q 828 903 1448 1529 
Q 2069 2156 2228 2338 
Q 2531 2678 2651 2914 
Q 2772 3150 2772 3378 
Q 2772 3750 2511 3984 
Q 2250 4219 1831 4219 
Q 1534 4219 1204 4116 
Q 875 4013 500 3803 
L 500 4441 
Q 881 4594 1212 4672 
Q 1544 4750 1819 4750 
Q 2544 4750 2975 4387 
Q 3406 4025 3406 3419 
Q 3406 3131 3298 2873 
Q 3191 2616 2906 2266 
Q 2828 2175 2409 1742 
Q 1991 1309 1228 531 
z
" transform="scale(0.015625)"/>
       </defs>
       <use xlink:href="#DejaVuSans-32"/>
       <use xlink:href="#DejaVuSans-30" x="63.623047"/>
      </g>
     </g>
    </g>
    <g id="xtick_4">
     <g id="line2d_7">
      <path d="M 963.972575 530.44 
L 963.972575 106.8 
" clip-path="url(#pa45095be50)" style="fill: none; stroke: #b0b0b0; stroke-width: 0.8; stroke-linecap: square"/>
     </g>
     <g id="line2d_8">
      <g>
       <use xlink:href="#m0e010f5292" x="963.972575" y="530.44" style="stroke: #000000; stroke-width: 0.8"/>
      </g>
     </g>
     <g id="text_4">
      <!-- 30 -->
      <g transform="translate(957.610075 545.038438) scale(0.1 -0.1)">
       <defs>
        <path id="DejaVuSans-33" d="M 2597 2516 
Q 3050 2419 3304 2112 
Q 3559 1806 3559 1356 
Q 3559 666 3084 287 
Q 2609 -91 1734 -91 
Q 1441 -91 1130 -33 
Q 819 25 488 141 
L 488 750 
Q 750 597 1062 519 
Q 1375 441 1716 441 
Q 2309 441 2620 675 
Q 2931 909 2931 1356 
Q 2931 1769 2642 2001 
Q 2353 2234 1838 2234 
L 1294 2234 
L 1294 2753 
L 1863 2753 
Q 2328 2753 2575 2939 
Q 2822 3125 2822 3475 
Q 2822 3834 2567 4026 
Q 2313 4219 1838 4219 
Q 1578 4219 1281 4162 
Q 984 4106 628 3988 
L 628 4550 
Q 988 4650 1302 4700 
Q 1616 4750 1894 4750 
Q 2613 4750 3031 4423 
Q 3450 4097 3450 3541 
Q 3450 3153 3228 2886 
Q 3006 2619 2597 2516 
z
" transform="scale(0.015625)"/>
       </defs>
       <use xlink:href="#DejaVuSans-33"/>
       <use xlink:href="#DejaVuSans-30" x="63.623047"/>
      </g>
     </g>
    </g>
    <g id="xtick_5">
     <g id="line2d_9">
      <path d="M 1242.588131 530.44 
L 1242.588131 106.8 
" clip-path="url(#pa45095be50)" style="fill: none; stroke: #b0b0b0; stroke-width: 0.8; stroke-linecap: square"/>
     </g>
     <g id="line2d_10">
      <g>
       <use xlink:href="#m0e010f5292" x="1242.588131" y="530.44" style="stroke: #000000; stroke-width: 0.8"/>
      </g>
     </g>
     <g id="text_5">
      <!-- 40 -->
      <g transform="translate(1236.225631 545.038438) scale(0.1 -0.1)">
       <defs>
        <path id="DejaVuSans-34" d="M 2419 4116 
L 825 1625 
L 2419 1625 
L 2419 4116 
z
M 2253 4666 
L 3047 4666 
L 3047 1625 
L 3713 1625 
L 3713 1100 
L 3047 1100 
L 3047 0 
L 2419 0 
L 2419 1100 
L 313 1100 
L 313 1709 
L 2253 4666 
z
" transform="scale(0.015625)"/>
       </defs>
       <use xlink:href="#DejaVuSans-34"/>
       <use xlink:href="#DejaVuSans-30" x="63.623047"/>
      </g>
     </g>
    </g>
    <g id="text_6">
     <!-- Time (s) -->
     <g transform="translate(707.027187 566.315) scale(0.2 -0.2)">
      <defs>
       <path id="DejaVuSans-54" d="M -19 4666 
L 3928 4666 
L 3928 4134 
L 2272 4134 
L 2272 0 
L 1638 0 
L 1638 4134 
L -19 4134 
L -19 4666 
z
" transform="scale(0.015625)"/>
       <path id="DejaVuSans-69" d="M 603 3500 
L 1178 3500 
L 1178 0 
L 603 0 
L 603 3500 
z
M 603 4863 
L 1178 4863 
L 1178 4134 
L 603 4134 
L 603 4863 
z
" transform="scale(0.015625)"/>
       <path id="DejaVuSans-6d" d="M 3328 2828 
Q 3544 3216 3844 3400 
Q 4144 3584 4550 3584 
Q 5097 3584 5394 3201 
Q 5691 2819 5691 2113 
L 5691 0 
L 5113 0 
L 5113 2094 
Q 5113 2597 4934 2840 
Q 4756 3084 4391 3084 
Q 3944 3084 3684 2787 
Q 3425 2491 3425 1978 
L 3425 0 
L 2847 0 
L 2847 2094 
Q 2847 2600 2669 2842 
Q 2491 3084 2119 3084 
Q 1678 3084 1418 2786 
Q 1159 2488 1159 1978 
L 1159 0 
L 581 0 
L 581 3500 
L 1159 3500 
L 1159 2956 
Q 1356 3278 1631 3431 
Q 1906 3584 2284 3584 
Q 2666 3584 2933 3390 
Q 3200 3197 3328 2828 
z
" transform="scale(0.015625)"/>
       <path id="DejaVuSans-65" d="M 3597 1894 
L 3597 1613 
L 953 1613 
Q 991 1019 1311 708 
Q 1631 397 2203 397 
Q 2534 397 2845 478 
Q 3156 559 3463 722 
L 3463 178 
Q 3153 47 2828 -22 
Q 2503 -91 2169 -91 
Q 1331 -91 842 396 
Q 353 884 353 1716 
Q 353 2575 817 3079 
Q 1281 3584 2069 3584 
Q 2775 3584 3186 3129 
Q 3597 2675 3597 1894 
z
M 3022 2063 
Q 3016 2534 2758 2815 
Q 2500 3097 2075 3097 
Q 1594 3097 1305 2825 
Q 1016 2553 972 2059 
L 3022 2063 
z
" transform="scale(0.015625)"/>
       <path id="DejaVuSans-20" transform="scale(0.015625)"/>
       <path id="DejaVuSans-28" d="M 1984 4856 
Q 1566 4138 1362 3434 
Q 1159 2731 1159 2009 
Q 1159 1288 1364 580 
Q 1569 -128 1984 -844 
L 1484 -844 
Q 1016 -109 783 600 
Q 550 1309 550 2009 
Q 550 2706 781 3412 
Q 1013 4119 1484 4856 
L 1984 4856 
z
" transform="scale(0.015625)"/>
       <path id="DejaVuSans-73" d="M 2834 3397 
L 2834 2853 
Q 2591 2978 2328 3040 
Q 2066 3103 1784 3103 
Q 1356 3103 1142 2972 
Q 928 2841 928 2578 
Q 928 2378 1081 2264 
Q 1234 2150 1697 2047 
L 1894 2003 
Q 2506 1872 2764 1633 
Q 3022 1394 3022 966 
Q 3022 478 2636 193 
Q 2250 -91 1575 -91 
Q 1294 -91 989 -36 
Q 684 19 347 128 
L 347 722 
Q 666 556 975 473 
Q 1284 391 1588 391 
Q 1994 391 2212 530 
Q 2431 669 2431 922 
Q 2431 1156 2273 1281 
Q 2116 1406 1581 1522 
L 1381 1569 
Q 847 1681 609 1914 
Q 372 2147 372 2553 
Q 372 3047 722 3315 
Q 1072 3584 1716 3584 
Q 2034 3584 2315 3537 
Q 2597 3491 2834 3397 
z
" transform="scale(0.015625)"/>
       <path id="DejaVuSans-29" d="M 513 4856 
L 1013 4856 
Q 1481 4119 1714 3412 
Q 1947 2706 1947 2009 
Q 1947 1309 1714 600 
Q 1481 -109 1013 -844 
L 513 -844 
Q 928 -128 1133 580 
Q 1338 1288 1338 2009 
Q 1338 2731 1133 3434 
Q 928 4138 513 4856 
z
" transform="scale(0.015625)"/>
      </defs>
      <use xlink:href="#DejaVuSans-54"/>
      <use xlink:href="#DejaVuSans-69" x="57.958984"/>
      <use xlink:href="#DejaVuSans-6d" x="85.742188"/>
      <use xlink:href="#DejaVuSans-65" x="183.154297"/>
      <use xlink:href="#DejaVuSans-20" x="244.677734"/>
      <use xlink:href="#DejaVuSans-28" x="276.464844"/>
      <use xlink:href="#DejaVuSans-73" x="315.478516"/>
      <use xlink:href="#DejaVuSans-29" x="367.578125"/>
     </g>
    </g>
   </g>
   <g id="matplotlib.axis_2">
    <g id="ytick_1">
     <g id="line2d_11">
      <path d="M 66.17 511.183636 
L 1429.2 511.183636 
" clip-path="url(#pa45095be50)" style="fill: none; stroke: #b0b0b0; stroke-width: 0.8; stroke-linecap: square"/>
     </g>
     <g id="line2d_12">
      <defs>
       <path id="m06642ed3f4" d="M 0 0 
L -3.5 0 
" style="stroke: #000000; stroke-width: 0.8"/>
      </defs>
      <g>
       <use xlink:href="#m06642ed3f4" x="66.17" y="511.183636" style="stroke: #000000; stroke-width: 0.8"/>
      </g>
     </g>
     <g id="text_7">
      <!-- 0 -->
      <g transform="translate(52.8075 514.982855) scale(0.1 -0.1)">
       <use xlink:href="#DejaVuSans-30"/>
      </g>
     </g>
    </g>
    <g id="ytick_2">
     <g id="line2d_13">
      <path d="M 66.17 433.189406 
L 1429.2 433.189406 
" clip-path="url(#pa45095be50)" style="fill: none; stroke: #b0b0b0; stroke-width: 0.8; stroke-linecap: square"/>
     </g>
     <g id="line2d_14">
      <g>
       <use xlink:href="#m06642ed3f4" x="66.17" y="433.189406" style="stroke: #000000; stroke-width: 0.8"/>
      </g>
     </g>
     <g id="text_8">
      <!-- 50 -->
      <g transform="translate(46.445 436.988625) scale(0.1 -0.1)">
       <defs>
        <path id="DejaVuSans-35" d="M 691 4666 
L 3169 4666 
L 3169 4134 
L 1269 4134 
L 1269 2991 
Q 1406 3038 1543 3061 
Q 1681 3084 1819 3084 
Q 2600 3084 3056 2656 
Q 3513 2228 3513 1497 
Q 3513 744 3044 326 
Q 2575 -91 1722 -91 
Q 1428 -91 1123 -41 
Q 819 9 494 109 
L 494 744 
Q 775 591 1075 516 
Q 1375 441 1709 441 
Q 2250 441 2565 725 
Q 2881 1009 2881 1497 
Q 2881 1984 2565 2268 
Q 2250 2553 1709 2553 
Q 1456 2553 1204 2497 
Q 953 2441 691 2322 
L 691 4666 
z
" transform="scale(0.015625)"/>
       </defs>
       <use xlink:href="#DejaVuSans-35"/>
       <use xlink:href="#DejaVuSans-30" x="63.623047"/>
      </g>
     </g>
    </g>
    <g id="ytick_3">
     <g id="line2d_15">
      <path d="M 66.17 355.195176 
L 1429.2 355.195176 
" clip-path="url(#pa45095be50)" style="fill: none; stroke: #b0b0b0; stroke-width: 0.8; stroke-linecap: square"/>
     </g>
     <g id="line2d_16">
      <g>
       <use xlink:href="#m06642ed3f4" x="66.17" y="355.195176" style="stroke: #000000; stroke-width: 0.8"/>
      </g>
     </g>
     <g id="text_9">
      <!-- 100 -->
      <g transform="translate(40.0825 358.994395) scale(0.1 -0.1)">
       <use xlink:href="#DejaVuSans-31"/>
       <use xlink:href="#DejaVuSans-30" x="63.623047"/>
       <use xlink:href="#DejaVuSans-30" x="127.246094"/>
      </g>
     </g>
    </g>
    <g id="ytick_4">
     <g id="line2d_17">
      <path d="M 66.17 277.200946 
L 1429.2 277.200946 
" clip-path="url(#pa45095be50)" style="fill: none; stroke: #b0b0b0; stroke-width: 0.8; stroke-linecap: square"/>
     </g>
     <g id="line2d_18">
      <g>
       <use xlink:href="#m06642ed3f4" x="66.17" y="277.200946" style="stroke: #000000; stroke-width: 0.8"/>
      </g>
     </g>
     <g id="text_10">
      <!-- 150 -->
      <g transform="translate(40.0825 281.000165) scale(0.1 -0.1)">
       <use xlink:href="#DejaVuSans-31"/>
       <use xlink:href="#DejaVuSans-35" x="63.623047"/>
       <use xlink:href="#DejaVuSans-30" x="127.246094"/>
      </g>
     </g>
    </g>
    <g id="ytick_5">
     <g id="line2d_19">
      <path d="M 66.17 199.206717 
L 1429.2 199.206717 
" clip-path="url(#pa45095be50)" style="fill: none; stroke: #b0b0b0; stroke-width: 0.8; stroke-linecap: square"/>
     </g>
     <g id="line2d_20">
      <g>
       <use xlink:href="#m06642ed3f4" x="66.17" y="199.206717" style="stroke: #000000; stroke-width: 0.8"/>
      </g>
     </g>
     <g id="text_11">
      <!-- 200 -->
      <g transform="translate(40.0825 203.005935) scale(0.1 -0.1)">
       <use xlink:href="#DejaVuSans-32"/>
       <use xlink:href="#DejaVuSans-30" x="63.623047"/>
       <use xlink:href="#DejaVuSans-30" x="127.246094"/>
      </g>
     </g>
    </g>
    <g id="ytick_6">
     <g id="line2d_21">
      <path d="M 66.17 121.212487 
L 1429.2 121.212487 
" clip-path="url(#pa45095be50)" style="fill: none; stroke: #b0b0b0; stroke-width: 0.8; stroke-linecap: square"/>
     </g>
     <g id="line2d_22">
      <g>
       <use xlink:href="#m06642ed3f4" x="66.17" y="121.212487" style="stroke: #000000; stroke-width: 0.8"/>
      </g>
     </g>
     <g id="text_12">
      <!-- 250 -->
      <g transform="translate(40.0825 125.011705) scale(0.1 -0.1)">
       <use xlink:href="#DejaVuSans-32"/>
       <use xlink:href="#DejaVuSans-35" x="63.623047"/>
       <use xlink:href="#DejaVuSans-30" x="127.246094"/>
      </g>
     </g>
    </g>
    <g id="text_13">
     <!-- Distance (cm) -->
     <g transform="translate(31.923125 388.565313) rotate(-90) scale(0.2 -0.2)">
      <defs>
       <path id="DejaVuSans-44" d="M 1259 4147 
L 1259 519 
L 2022 519 
Q 2988 519 3436 956 
Q 3884 1394 3884 2338 
Q 3884 3275 3436 3711 
Q 2988 4147 2022 4147 
L 1259 4147 
z
M 628 4666 
L 1925 4666 
Q 3281 4666 3915 4102 
Q 4550 3538 4550 2338 
Q 4550 1131 3912 565 
Q 3275 0 1925 0 
L 628 0 
L 628 4666 
z
" transform="scale(0.015625)"/>
       <path id="DejaVuSans-74" d="M 1172 4494 
L 1172 3500 
L 2356 3500 
L 2356 3053 
L 1172 3053 
L 1172 1153 
Q 1172 725 1289 603 
Q 1406 481 1766 481 
L 2356 481 
L 2356 0 
L 1766 0 
Q 1100 0 847 248 
Q 594 497 594 1153 
L 594 3053 
L 172 3053 
L 172 3500 
L 594 3500 
L 594 4494 
L 1172 4494 
z
" transform="scale(0.015625)"/>
       <path id="DejaVuSans-61" d="M 2194 1759 
Q 1497 1759 1228 1600 
Q 959 1441 959 1056 
Q 959 750 1161 570 
Q 1363 391 1709 391 
Q 2188 391 2477 730 
Q 2766 1069 2766 1631 
L 2766 1759 
L 2194 1759 
z
M 3341 1997 
L 3341 0 
L 2766 0 
L 2766 531 
Q 2569 213 2275 61 
Q 1981 -91 1556 -91 
Q 1019 -91 701 211 
Q 384 513 384 1019 
Q 384 1609 779 1909 
Q 1175 2209 1959 2209 
L 2766 2209 
L 2766 2266 
Q 2766 2663 2505 2880 
Q 2244 3097 1772 3097 
Q 1472 3097 1187 3025 
Q 903 2953 641 2809 
L 641 3341 
Q 956 3463 1253 3523 
Q 1550 3584 1831 3584 
Q 2591 3584 2966 3190 
Q 3341 2797 3341 1997 
z
" transform="scale(0.015625)"/>
       <path id="DejaVuSans-6e" d="M 3513 2113 
L 3513 0 
L 2938 0 
L 2938 2094 
Q 2938 2591 2744 2837 
Q 2550 3084 2163 3084 
Q 1697 3084 1428 2787 
Q 1159 2491 1159 1978 
L 1159 0 
L 581 0 
L 581 3500 
L 1159 3500 
L 1159 2956 
Q 1366 3272 1645 3428 
Q 1925 3584 2291 3584 
Q 2894 3584 3203 3211 
Q 3513 2838 3513 2113 
z
" transform="scale(0.015625)"/>
       <path id="DejaVuSans-63" d="M 3122 3366 
L 3122 2828 
Q 2878 2963 2633 3030 
Q 2388 3097 2138 3097 
Q 1578 3097 1268 2742 
Q 959 2388 959 1747 
Q 959 1106 1268 751 
Q 1578 397 2138 397 
Q 2388 397 2633 464 
Q 2878 531 3122 666 
L 3122 134 
Q 2881 22 2623 -34 
Q 2366 -91 2075 -91 
Q 1284 -91 818 406 
Q 353 903 353 1747 
Q 353 2603 823 3093 
Q 1294 3584 2113 3584 
Q 2378 3584 2631 3529 
Q 2884 3475 3122 3366 
z
" transform="scale(0.015625)"/>
      </defs>
      <use xlink:href="#DejaVuSans-44"/>
      <use xlink:href="#DejaVuSans-69" x="77.001953"/>
      <use xlink:href="#DejaVuSans-73" x="104.785156"/>
      <use xlink:href="#DejaVuSans-74" x="156.884766"/>
      <use xlink:href="#DejaVuSans-61" x="196.09375"/>
      <use xlink:href="#DejaVuSans-6e" x="257.373047"/>
      <use xlink:href="#DejaVuSans-63" x="320.751953"/>
      <use xlink:href="#DejaVuSans-65" x="375.732422"/>
      <use xlink:href="#DejaVuSans-20" x="437.255859"/>
      <use xlink:href="#DejaVuSans-28" x="469.042969"/>
      <use xlink:href="#DejaVuSans-63" x="508.056641"/>
      <use xlink:href="#DejaVuSans-6d" x="563.037109"/>
      <use xlink:href="#DejaVuSans-29" x="660.449219"/>
     </g>
    </g>
   </g>
   <g id="line2d_23">
    <path d="M 128.125909 408.509768 
L 135.111312 408.509768 
L 139.479733 407.607361 
L 143.466523 407.607361 
L 148.082703 408.810571 
L 152.386258 408.810571 
L 156.630326 408.509768 
L 163.567769 410.314582 
L 172.744245 409.311908 
L 177.383867 409.111373 
L 182.441888 405.70228 
L 186.948888 401.892117 
L 191.851084 403.596663 
L 196.108531 400.98971 
L 200.563241 401.290512 
L 204.484301 401.290512 
L 208.195711 401.089977 
L 214.280183 401.290512 
L 218.64208 402.293186 
L 223.746134 403.596663 
L 228.340885 403.797198 
L 232.858787 403.797198 
L 241.639715 404.599338 
L 246.837366 402.894791 
L 251.289551 405.802547 
L 255.344136 404.90014 
L 265.33069 404.90014 
L 270.704266 409.111373 
L 276.909722 411.016455 
L 282.158886 410.515117 
L 287.951504 407.106024 
L 293.346124 406.905489 
L 298.993367 408.610036 
L 303.746839 405.501745 
L 308.620331 410.01378 
L 313.59365 410.515117 
L 318.730267 414.124745 
L 323.792133 413.723676 
L 328.552879 412.119396 
L 333.639895 413.222338 
L 338.552174 413.523141 
L 344.333573 422.547211 
L 349.47838 424.15149 
L 354.970017 424.15149 
L 360.339707 427.360049 
L 366.448431 428.061921 
L 372.386691 428.462991 
L 378.566698 429.26513 
L 384.217176 426.658177 
L 390.217325 424.251758 
L 395.97194 424.051223 
L 401.371947 511.183636 
L 407.307709 181.604531 
L 412.927119 406.704954 
L 418.283171 407.106024 
L 424.238542 412.721001 
L 429.496143 412.219664 
L 434.740843 403.295861 
L 440.729953 408.108698 
L 446.791208 408.108698 
L 452.187237 414.024478 
L 457.656487 410.01378 
L 462.976549 409.311908 
L 467.769672 407.807896 
L 472.863948 407.607361 
L 478.517667 408.509768 
L 484.036578 405.30121 
L 489.854645 410.515117 
L 495.369179 406.003082 
L 500.902153 406.003082 
L 506.175424 397.279814 
L 511.748567 391.965639 
L 517.654144 391.965639 
L 523.237165 389.860023 
L 529.377469 511.183636 
L 539.790498 511.183636 
L 544.117103 402.694256 
L 549.33223 403.295861 
L 554.282373 411.317257 
L 559.174704 411.317257 
L 564.425356 407.406826 
L 569.385251 398.683558 
L 574.416594 399.184896 
L 579.412286 398.683558 
L 585.052075 400.388105 
L 590.908655 400.18757 
L 597.055576 406.404152 
L 602.440271 408.509768 
L 607.521382 410.81592 
L 612.521783 412.420199 
L 617.459345 415.027152 
L 622.791516 412.921536 
L 627.472297 411.918862 
L 632.367631 406.905489 
L 637.66718 413.222338 
L 643.020303 423.650153 
L 648.547405 425.856037 
L 654.40091 423.650153 
L 659.494243 426.858712 
L 664.635205 426.156839 
L 670.010009 431.571282 
L 675.561948 432.072619 
L 681.003579 429.365398 
L 686.258954 428.86406 
L 692.558006 426.858712 
L 698.289843 419.83999 
L 704.279916 419.03785 
L 709.897478 511.183636 
L 716.222762 511.183636 
L 721.913335 402.293186 
L 727.729661 404.90014 
L 733.283553 412.921536 
L 740.317202 409.011106 
L 745.990384 397.881419 
L 751.686962 395.174198 
L 757.114915 403.095326 
L 762.305384 397.680884 
L 772.261568 393.369383 
L 777.393243 401.290512 
L 782.100315 401.290512 
L 787.018168 410.615385 
L 791.960559 411.818594 
L 796.876804 414.024478 
L 801.878069 411.618059 
L 806.757925 411.618059 
L 811.506873 401.089977 
L 816.57234 397.079279 
L 822.208535 395.976337 
L 828.013854 400.98971 
L 833.020925 405.802547 
L 838.314031 412.620734 
L 843.803349 414.32528 
L 849.229568 414.024478 
L 853.975687 414.124745 
L 858.879849 411.317257 
L 864.111842 406.003082 
L 869.68725 406.003082 
L 875.406207 407.106024 
L 882.053855 407.607361 
L 887.190857 408.610036 
L 892.09474 410.01378 
L 897.094729 408.309233 
L 903.693175 407.106024 
L 909.386677 407.406826 
L 914.480601 405.501745 
L 919.9014 405.501745 
L 925.480428 403.596663 
L 932.693245 389.860023 
L 939.057348 511.183636 
L 944.600513 193.536357 
L 950.009614 511.183636 
L 955.106753 388.656813 
L 960.194526 387.453604 
L 965.500452 397.881419 
L 971.033055 400.18757 
L 976.011907 403.797198 
L 981.137212 403.596663 
L 985.94346 401.892117 
L 990.621344 402.293186 
L 995.430515 406.905489 
L 1000.340324 410.615385 
L 1005.462978 410.114047 
L 1010.218289 411.417524 
L 1015.422469 413.021804 
L 1020.094209 405.501745 
L 1024.681348 399.7865 
L 1029.720616 179.899984 
L 1035.102947 403.295861 
L 1040.87549 402.092652 
L 1046.827095 414.124745 
L 1051.998958 416.932234 
L 1056.90215 417.132769 
L 1061.514245 413.222338 
L 1066.328923 410.615385 
L 1076.381466 410.314582 
L 1081.261422 418.837316 
L 1085.868395 421.444269 
L 1090.603321 421.644804 
L 1095.228814 421.344002 
L 1100.192223 420.64213 
L 1105.410379 183.409345 
L 1111.1003 178.09517 
L 1117.100895 179.899984 
L 1143.828573 432.774491 
L 1149.541385 433.576631 
L 1155.260289 433.175561 
L 1161.186552 164.960134 
L 1167.699971 193.536357 
L 1167.699971 193.536357 
" clip-path="url(#pa45095be50)" style="fill: none; stroke: #1f77b4; stroke-width: 1.5; stroke-linecap: square"/>
   </g>
   <g id="line2d_24">
    <path d="M 128.125909 414.72635 
L 133.362858 414.72635 
L 137.734546 414.926885 
L 142.129205 413.523141 
L 149.440467 412.219664 
L 157.273142 412.921536 
L 161.639324 411.317257 
L 170.463762 411.417524 
L 174.5574 411.116722 
L 178.829807 411.016455 
L 182.941546 411.116722 
L 187.216776 410.615385 
L 191.4861 411.618059 
L 195.894091 411.317257 
L 200.229245 411.918862 
L 204.484288 411.618059 
L 208.962897 412.921536 
L 213.448881 413.322606 
L 222.489459 413.222338 
L 226.60268 412.721001 
L 230.876302 412.721001 
L 236.314964 409.311908 
L 240.655744 409.311908 
L 245.04572 409.512443 
L 253.406643 409.011106 
L 258.279996 406.003082 
L 263.336289 405.802547 
L 268.124296 511.183636 
L 272.744416 511.183636 
L 277.693456 166.865215 
L 282.76419 406.003082 
L 287.507771 410.615385 
L 296.764125 405.70228 
L 301.196887 409.61271 
L 308.254158 401.691582 
L 319.003189 403.997733 
L 324.287049 397.881419 
L 329.794276 407.908164 
L 335.06198 409.813245 
L 340.379963 410.114047 
L 345.781246 413.523141 
L 356.647122 418.135443 
L 361.877747 417.934909 
L 367.647879 416.531164 
L 372.641439 415.92956 
L 378.207766 416.130094 
L 383.904105 414.72635 
L 389.709769 415.327955 
L 394.814242 415.227687 
L 400.324717 415.628757 
L 411.183958 415.628757 
L 416.979167 413.322606 
L 422.338587 403.095326 
L 428.275577 392.166174 
L 433.709104 395.174198 
L 439.589299 399.987035 
L 445.17772 409.011106 
L 450.329509 409.512443 
L 455.896501 415.227687 
L 461.335799 415.227687 
L 466.270558 418.235711 
L 475.65305 418.235711 
L 480.584288 416.531164 
L 485.572447 418.335978 
L 490.777497 417.533839 
L 496.170463 417.433571 
L 501.363071 417.132769 
L 506.800271 417.533839 
L 512.415356 419.03785 
L 517.409021 419.639455 
L 522.683335 419.43892 
L 528.167678 420.441595 
L 533.50541 420.441595 
L 539.672484 419.338653 
L 545.663998 420.842665 
L 550.870357 414.626083 
L 556.139616 413.021804 
L 561.702695 413.021804 
L 566.772738 412.420199 
L 572.056199 412.420199 
L 577.265115 415.327955 
L 587.506809 421.344002 
L 592.171329 423.750421 
L 597.074381 424.95363 
L 601.70568 425.154165 
L 606.517263 424.95363 
L 611.81106 424.15149 
L 637.337668 423.650153 
L 642.095804 422.647479 
L 647.211616 422.647479 
L 652.705272 417.934909 
L 657.932356 168.770297 
L 663.483744 168.770297 
L 668.768991 181.604531 
L 674.332927 178.09517 
L 679.703461 176.290356 
L 685.70177 181.604531 
L 691.299697 172.58046 
L 696.147827 174.385274 
L 701.227018 432.072619 
L 705.944566 432.072619 
L 771.748213 419.238385 
L 782.906761 416.932234 
L 788.297853 416.831967 
L 794.615644 411.818594 
L 800.192885 410.01378 
L 805.479276 406.704954 
L 811.386394 406.704954 
L 817.111037 406.905489 
L 822.366911 406.604687 
L 833.93459 407.306559 
L 839.224042 410.81592 
L 844.154788 410.615385 
L 849.048853 414.024478 
L 853.586577 414.124745 
L 858.531332 416.230362 
L 873.152633 416.531164 
L 878.090062 417.533839 
L 883.012551 418.135443 
L 887.78706 418.937583 
L 893.449162 418.636781 
L 898.292304 419.238385 
L 903.564226 418.937583 
L 908.789955 418.937583 
L 914.126431 412.119396 
L 919.428412 412.921536 
L 925.358122 411.016455 
L 930.375602 416.330629 
L 935.892182 416.831967 
L 940.969858 419.739723 
L 946.076769 419.43892 
L 950.990483 421.344002 
L 960.686771 417.433571 
L 965.459434 416.831967 
L 970.254183 410.515117 
L 975.072488 410.01378 
L 979.684078 408.309233 
L 984.748615 408.610036 
L 989.876696 408.610036 
L 995.122798 409.011106 
L 1000.084579 409.011106 
L 1005.470749 412.620734 
L 1009.803439 418.235711 
L 1014.444503 418.235711 
L 1018.935229 421.243734 
L 1023.546467 421.444269 
L 1028.062787 420.64213 
L 1032.690964 420.64213 
L 1037.552121 420.140792 
L 1042.027197 420.140792 
L 1046.681653 420.541862 
L 1051.474529 421.243734 
L 1057.306964 421.644804 
L 1063.072393 417.233036 
L 1068.787145 417.233036 
L 1074.547015 416.330629 
L 1080.10278 416.631432 
L 1085.55292 418.837316 
L 1091.090145 418.837316 
L 1095.698228 419.338653 
L 1100.478988 418.837316 
L 1106.124012 419.03785 
L 1110.715973 420.24106 
L 1115.714661 423.048548 
L 1120.625924 423.048548 
L 1125.271491 426.958979 
L 1130.454534 426.457642 
L 1135.573893 424.352025 
L 1141.411615 424.753095 
L 1146.743269 420.140792 
L 1151.795736 419.43892 
L 1157.054546 414.626083 
L 1162.536006 414.425548 
L 1169.401209 407.908164 
L 1174.607023 397.680884 
L 1179.747945 511.183636 
L 1195.298143 511.183636 
L 1200.135193 406.604687 
L 1204.665815 402.293186 
L 1209.980643 401.491047 
L 1214.74843 390.060558 
L 1220.801402 385.147453 
L 1226.50805 385.147453 
L 1231.531575 174.385274 
L 1236.530283 183.409345 
L 1241.691464 181.604531 
L 1246.63988 126.056364 
L 1260.483193 394.071256 
L 1265.264611 394.67286 
L 1270.132125 401.892117 
L 1274.998862 402.293186 
L 1279.520676 409.011106 
L 1294.174393 416.230362 
L 1303.802055 415.027152 
L 1308.412529 409.61271 
L 1313.385031 409.61271 
L 1319.216795 174.385274 
L 1325.105958 157.039005 
L 1329.655279 161.049703 
L 1334.700752 166.865215 
L 1340.025909 186.818438 
L 1345.370077 185.113891 
L 1351.074526 168.770297 
L 1356.653701 179.899984 
L 1362.235758 185.113891 
L 1367.244091 203.061765 
L 1367.244091 203.061765 
" clip-path="url(#pa45095be50)" style="fill: none; stroke: #ff7f0e; stroke-width: 1.5; stroke-linecap: square"/>
   </g>
   <g id="line2d_25">
    <path d="M 128.125909 390.561895 
L 134.472317 391.564569 
L 138.719428 391.564569 
L 143.544362 392.868046 
L 147.880459 392.868046 
L 152.025771 391.765104 
L 156.040527 391.263767 
L 160.124147 394.67286 
L 166.05043 395.374732 
L 171.10034 391.965639 
L 175.6925 396.377407 
L 181.247222 395.575267 
L 185.339359 395.575267 
L 189.623318 398.483023 
L 194.359538 398.683558 
L 200.111749 397.079279 
L 204.792908 395.174198 
L 208.817057 395.575267 
L 212.995921 397.279814 
L 217.006943 397.279814 
L 221.300666 399.585965 
L 225.666722 399.585965 
L 230.463538 401.892117 
L 234.766972 401.892117 
L 239.208655 403.396128 
L 242.755758 403.295861 
L 246.565094 399.38543 
L 250.498603 399.38543 
L 254.736228 400.789175 
L 259.369221 400.58864 
L 263.602841 401.491047 
L 267.335508 401.691582 
L 272.18494 402.092652 
L 277.048867 402.092652 
L 282.824865 406.604687 
L 287.501819 413.322606 
L 292.349525 411.417524 
L 297.660413 415.227687 
L 302.074283 415.327955 
L 307.257439 415.829292 
L 312.016398 417.233036 
L 317.002418 416.932234 
L 321.928793 418.636781 
L 327.142014 420.140792 
L 332.457658 420.040525 
L 337.621118 416.631432 
L 343.188289 406.203617 
L 348.737033 407.908164 
L 354.338614 408.810571 
L 359.186571 412.119396 
L 364.046779 414.72635 
L 368.883623 418.837316 
L 373.701396 418.837316 
L 378.429002 416.932234 
L 383.433362 417.634106 
L 388.778607 417.834641 
L 394.409694 420.24106 
L 399.532301 420.24106 
L 404.972118 417.233036 
L 410.705908 415.628757 
L 415.888626 415.628757 
L 423.2926 411.618059 
L 429.109643 410.615385 
L 434.003343 407.908164 
L 439.576771 412.119396 
L 444.724873 412.119396 
L 449.349696 413.021804 
L 455.857561 413.322606 
L 466.438658 414.124745 
L 471.252273 414.124745 
L 476.210434 407.406826 
L 481.832154 407.607361 
L 486.731633 403.797198 
L 491.708214 406.203617 
L 497.332545 405.30121 
L 501.845571 405.30121 
L 507.056965 407.406826 
L 511.726061 408.610036 
L 516.713091 410.114047 
L 521.604505 409.512443 
L 531.240995 407.106024 
L 535.929149 407.106024 
L 541.318043 404.90014 
L 546.092672 404.90014 
L 551.786101 408.309233 
L 557.612438 408.509768 
L 563.225656 407.106024 
L 568.52033 410.615385 
L 574.03772 412.219664 
L 578.78061 413.222338 
L 584.118641 415.92956 
L 588.619902 415.227687 
L 594.604594 414.626083 
L 599.670871 412.921536 
L 604.733462 414.626083 
L 609.950635 414.024478 
L 614.785055 415.52849 
L 619.527387 416.831967 
L 624.36281 416.230362 
L 635.213183 404.599338 
L 641.042628 403.997733 
L 647.01337 407.106024 
L 652.381187 412.420199 
L 657.885976 408.810571 
L 663.46173 409.311908 
L 668.936939 403.997733 
L 674.374989 399.38543 
L 680.040944 399.38543 
L 686.022533 400.58864 
L 691.366582 399.585965 
L 696.38098 399.585965 
L 701.280465 400.18757 
L 706.036953 400.58864 
L 711.168668 401.691582 
L 716.274476 402.092652 
L 721.076121 399.184896 
L 726.622679 400.98971 
L 731.702275 511.183636 
L 736.577966 511.183636 
L 741.616749 157.039005 
L 746.966232 178.09517 
L 752.103971 511.183636 
L 756.720962 511.183636 
L 761.674327 386.651464 
L 766.482016 386.651464 
L 771.34328 389.659488 
L 775.908172 391.263767 
L 780.45742 398.282488 
L 786.064454 392.166174 
L 790.639795 392.667511 
L 795.202827 511.183636 
L 799.723425 130.768934 
L 804.933411 152.92804 
L 809.80028 157.039005 
L 814.826821 164.960134 
L 819.688695 411.317257 
L 824.362621 411.818594 
L 828.989416 405.501745 
L 834.009507 405.70228 
L 839.260445 511.183636 
L 844.620157 195.140636 
L 849.791622 209.077812 
L 855.151799 216.297068 
L 860.295929 415.52849 
L 865.24105 419.43892 
L 870.138741 416.631432 
L 874.493764 416.631432 
L 879.025874 417.233036 
L 883.906793 414.926885 
L 889.602341 411.016455 
L 896.025478 417.834641 
L 900.866382 425.154165 
L 906.356876 426.257107 
L 912.251619 427.660851 
L 916.84738 425.254432 
L 922.395433 423.850688 
L 927.379965 211.985568 
L 932.442987 220.508301 
L 936.902858 188.522985 
L 941.712607 417.834641 
L 945.969011 419.03785 
L 950.978653 415.92956 
L 955.511573 416.531164 
L 960.618497 416.932234 
L 965.788759 421.043199 
L 971.483882 423.549886 
L 976.708057 423.549886 
L 982.536685 427.861386 
L 987.836048 430.06727 
L 993.297208 431.872084 
L 999.044197 432.273154 
L 1004.961758 431.069944 
L 1010.824337 425.254432 
L 1016.526342 424.652828 
L 1022.782296 420.040525 
L 1029.103873 416.932234 
L 1034.91634 418.235711 
L 1040.350298 418.235711 
L 1045.342608 412.119396 
L 1050.898354 406.404152 
L 1056.57774 411.918862 
L 1061.720568 412.620734 
L 1067.853539 408.509768 
L 1073.915791 407.406826 
L 1073.915791 407.406826 
" clip-path="url(#pa45095be50)" style="fill: none; stroke: #2ca02c; stroke-width: 1.5; stroke-linecap: square"/>
   </g>
   <g id="patch_3">
    <path d="M 66.17 530.44 
L 66.17 106.8 
" style="fill: none; stroke: #000000; stroke-width: 0.8; stroke-linejoin: miter; stroke-linecap: square"/>
   </g>
   <g id="patch_4">
    <path d="M 1429.2 530.44 
L 1429.2 106.8 
" style="fill: none; stroke: #000000; stroke-width: 0.8; stroke-linejoin: miter; stroke-linecap: square"/>
   </g>
   <g id="patch_5">
    <path d="M 66.17 530.44 
L 1429.2 530.44 
" style="fill: none; stroke: #000000; stroke-width: 0.8; stroke-linejoin: miter; stroke-linecap: square"/>
   </g>
   <g id="patch_6">
    <path d="M 66.17 106.8 
L 1429.2 106.8 
" style="fill: none; stroke: #000000; stroke-width: 0.8; stroke-linejoin: miter; stroke-linecap: square"/>
   </g>
   <g id="text_14">
    <!-- Distance to object -->
    <g transform="translate(656.7475 100.8) scale(0.2 -0.2)">
     <defs>
      <path id="DejaVuSans-6f" d="M 1959 3097 
Q 1497 3097 1228 2736 
Q 959 2375 959 1747 
Q 959 1119 1226 758 
Q 1494 397 1959 397 
Q 2419 397 2687 759 
Q 2956 1122 2956 1747 
Q 2956 2369 2687 2733 
Q 2419 3097 1959 3097 
z
M 1959 3584 
Q 2709 3584 3137 3096 
Q 3566 2609 3566 1747 
Q 3566 888 3137 398 
Q 2709 -91 1959 -91 
Q 1206 -91 779 398 
Q 353 888 353 1747 
Q 353 2609 779 3096 
Q 1206 3584 1959 3584 
z
" transform="scale(0.015625)"/>
      <path id="DejaVuSans-62" d="M 3116 1747 
Q 3116 2381 2855 2742 
Q 2594 3103 2138 3103 
Q 1681 3103 1420 2742 
Q 1159 2381 1159 1747 
Q 1159 1113 1420 752 
Q 1681 391 2138 391 
Q 2594 391 2855 752 
Q 3116 1113 3116 1747 
z
M 1159 2969 
Q 1341 3281 1617 3432 
Q 1894 3584 2278 3584 
Q 2916 3584 3314 3078 
Q 3713 2572 3713 1747 
Q 3713 922 3314 415 
Q 2916 -91 2278 -91 
Q 1894 -91 1617 61 
Q 1341 213 1159 525 
L 1159 0 
L 581 0 
L 581 4863 
L 1159 4863 
L 1159 2969 
z
" transform="scale(0.015625)"/>
      <path id="DejaVuSans-6a" d="M 603 3500 
L 1178 3500 
L 1178 -63 
Q 1178 -731 923 -1031 
Q 669 -1331 103 -1331 
L -116 -1331 
L -116 -844 
L 38 -844 
Q 366 -844 484 -692 
Q 603 -541 603 -63 
L 603 3500 
z
M 603 4863 
L 1178 4863 
L 1178 4134 
L 603 4134 
L 603 4863 
z
" transform="scale(0.015625)"/>
     </defs>
     <use xlink:href="#DejaVuSans-44"/>
     <use xlink:href="#DejaVuSans-69" x="77.001953"/>
     <use xlink:href="#DejaVuSans-73" x="104.785156"/>
     <use xlink:href="#DejaVuSans-74" x="156.884766"/>
     <use xlink:href="#DejaVuSans-61" x="196.09375"/>
     <use xlink:href="#DejaVuSans-6e" x="257.373047"/>
     <use xlink:href="#DejaVuSans-63" x="320.751953"/>
     <use xlink:href="#DejaVuSans-65" x="375.732422"/>
     <use xlink:href="#DejaVuSans-20" x="437.255859"/>
     <use xlink:href="#DejaVuSans-74" x="469.042969"/>
     <use xlink:href="#DejaVuSans-6f" x="508.251953"/>
     <use xlink:href="#DejaVuSans-20" x="569.433594"/>
     <use xlink:href="#DejaVuSans-6f" x="601.220703"/>
     <use xlink:href="#DejaVuSans-62" x="662.402344"/>
     <use xlink:href="#DejaVuSans-6a" x="725.878906"/>
     <use xlink:href="#DejaVuSans-65" x="753.662109"/>
     <use xlink:href="#DejaVuSans-63" x="815.185547"/>
     <use xlink:href="#DejaVuSans-74" x="870.166016"/>
    </g>
   </g>
   <g id="legend_1">
    <g id="patch_7">
     <path d="M 1361.485938 158.834375 
L 1422.2 158.834375 
Q 1424.2 158.834375 1424.2 156.834375 
L 1424.2 113.8 
Q 1424.2 111.8 1422.2 111.8 
L 1361.485938 111.8 
Q 1359.485938 111.8 1359.485938 113.8 
L 1359.485938 156.834375 
Q 1359.485938 158.834375 1361.485938 158.834375 
z
" style="fill: #ffffff; opacity: 0.8; stroke: #cccccc; stroke-linejoin: miter"/>
    </g>
    <g id="line2d_26">
     <path d="M 1363.485938 119.898438 
L 1373.485938 119.898438 
L 1383.485938 119.898438 
" style="fill: none; stroke: #1f77b4; stroke-width: 1.5; stroke-linecap: square"/>
    </g>
    <g id="text_15">
     <!-- Run 1 -->
     <g transform="translate(1391.485938 123.398438) scale(0.1 -0.1)">
      <defs>
       <path id="DejaVuSans-52" d="M 2841 2188 
Q 3044 2119 3236 1894 
Q 3428 1669 3622 1275 
L 4263 0 
L 3584 0 
L 2988 1197 
Q 2756 1666 2539 1819 
Q 2322 1972 1947 1972 
L 1259 1972 
L 1259 0 
L 628 0 
L 628 4666 
L 2053 4666 
Q 2853 4666 3247 4331 
Q 3641 3997 3641 3322 
Q 3641 2881 3436 2590 
Q 3231 2300 2841 2188 
z
M 1259 4147 
L 1259 2491 
L 2053 2491 
Q 2509 2491 2742 2702 
Q 2975 2913 2975 3322 
Q 2975 3731 2742 3939 
Q 2509 4147 2053 4147 
L 1259 4147 
z
" transform="scale(0.015625)"/>
       <path id="DejaVuSans-75" d="M 544 1381 
L 544 3500 
L 1119 3500 
L 1119 1403 
Q 1119 906 1312 657 
Q 1506 409 1894 409 
Q 2359 409 2629 706 
Q 2900 1003 2900 1516 
L 2900 3500 
L 3475 3500 
L 3475 0 
L 2900 0 
L 2900 538 
Q 2691 219 2414 64 
Q 2138 -91 1772 -91 
Q 1169 -91 856 284 
Q 544 659 544 1381 
z
M 1991 3584 
L 1991 3584 
z
" transform="scale(0.015625)"/>
      </defs>
      <use xlink:href="#DejaVuSans-52"/>
      <use xlink:href="#DejaVuSans-75" x="64.982422"/>
      <use xlink:href="#DejaVuSans-6e" x="128.361328"/>
      <use xlink:href="#DejaVuSans-20" x="191.740234"/>
      <use xlink:href="#DejaVuSans-31" x="223.527344"/>
     </g>
    </g>
    <g id="line2d_27">
     <path d="M 1363.485938 134.576563 
L 1373.485938 134.576563 
L 1383.485938 134.576563 
" style="fill: none; stroke: #ff7f0e; stroke-width: 1.5; stroke-linecap: square"/>
    </g>
    <g id="text_16">
     <!-- Run 2 -->
     <g transform="translate(1391.485938 138.076563) scale(0.1 -0.1)">
      <use xlink:href="#DejaVuSans-52"/>
      <use xlink:href="#DejaVuSans-75" x="64.982422"/>
      <use xlink:href="#DejaVuSans-6e" x="128.361328"/>
      <use xlink:href="#DejaVuSans-20" x="191.740234"/>
      <use xlink:href="#DejaVuSans-32" x="223.527344"/>
     </g>
    </g>
    <g id="line2d_28">
     <path d="M 1363.485938 149.254688 
L 1373.485938 149.254688 
L 1383.485938 149.254688 
" style="fill: none; stroke: #2ca02c; stroke-width: 1.5; stroke-linecap: square"/>
    </g>
    <g id="text_17">
     <!-- Run 3 -->
     <g transform="translate(1391.485938 152.754688) scale(0.1 -0.1)">
      <use xlink:href="#DejaVuSans-52"/>
      <use xlink:href="#DejaVuSans-75" x="64.982422"/>
      <use xlink:href="#DejaVuSans-6e" x="128.361328"/>
      <use xlink:href="#DejaVuSans-20" x="191.740234"/>
      <use xlink:href="#DejaVuSans-33" x="223.527344"/>
     </g>
    </g>
   </g>
  </g>
  <g id="axes_2">
   <g id="patch_8">
    <path d="M 66.17 1027.96 
L 1429.2 1027.96 
L 1429.2 604.32 
L 66.17 604.32 
z
" style="fill: #ffffff"/>
   </g>
   <g id="matplotlib.axis_3">
    <g id="xtick_6">
     <g id="line2d_29">
      <path d="M 128.125909 1027.96 
L 128.125909 604.32 
" clip-path="url(#pf5a842ef3e)" style="fill: none; stroke: #b0b0b0; stroke-width: 0.8; stroke-linecap: square"/>
     </g>
     <g id="line2d_30">
      <g>
       <use xlink:href="#m0e010f5292" x="128.125909" y="1027.96" style="stroke: #000000; stroke-width: 0.8"/>
      </g>
     </g>
     <g id="text_18">
      <!-- 0 -->
      <g transform="translate(124.944659 1042.558437) scale(0.1 -0.1)">
       <use xlink:href="#DejaVuSans-30"/>
      </g>
     </g>
    </g>
    <g id="xtick_7">
     <g id="line2d_31">
      <path d="M 406.741465 1027.96 
L 406.741465 604.32 
" clip-path="url(#pf5a842ef3e)" style="fill: none; stroke: #b0b0b0; stroke-width: 0.8; stroke-linecap: square"/>
     </g>
     <g id="line2d_32">
      <g>
       <use xlink:href="#m0e010f5292" x="406.741465" y="1027.96" style="stroke: #000000; stroke-width: 0.8"/>
      </g>
     </g>
     <g id="text_19">
      <!-- 10 -->
      <g transform="translate(400.378965 1042.558437) scale(0.1 -0.1)">
       <use xlink:href="#DejaVuSans-31"/>
       <use xlink:href="#DejaVuSans-30" x="63.623047"/>
      </g>
     </g>
    </g>
    <g id="xtick_8">
     <g id="line2d_33">
      <path d="M 685.35702 1027.96 
L 685.35702 604.32 
" clip-path="url(#pf5a842ef3e)" style="fill: none; stroke: #b0b0b0; stroke-width: 0.8; stroke-linecap: square"/>
     </g>
     <g id="line2d_34">
      <g>
       <use xlink:href="#m0e010f5292" x="685.35702" y="1027.96" style="stroke: #000000; stroke-width: 0.8"/>
      </g>
     </g>
     <g id="text_20">
      <!-- 20 -->
      <g transform="translate(678.99452 1042.558437) scale(0.1 -0.1)">
       <use xlink:href="#DejaVuSans-32"/>
       <use xlink:href="#DejaVuSans-30" x="63.623047"/>
      </g>
     </g>
    </g>
    <g id="xtick_9">
     <g id="line2d_35">
      <path d="M 963.972575 1027.96 
L 963.972575 604.32 
" clip-path="url(#pf5a842ef3e)" style="fill: none; stroke: #b0b0b0; stroke-width: 0.8; stroke-linecap: square"/>
     </g>
     <g id="line2d_36">
      <g>
       <use xlink:href="#m0e010f5292" x="963.972575" y="1027.96" style="stroke: #000000; stroke-width: 0.8"/>
      </g>
     </g>
     <g id="text_21">
      <!-- 30 -->
      <g transform="translate(957.610075 1042.558437) scale(0.1 -0.1)">
       <use xlink:href="#DejaVuSans-33"/>
       <use xlink:href="#DejaVuSans-30" x="63.623047"/>
      </g>
     </g>
    </g>
    <g id="xtick_10">
     <g id="line2d_37">
      <path d="M 1242.588131 1027.96 
L 1242.588131 604.32 
" clip-path="url(#pf5a842ef3e)" style="fill: none; stroke: #b0b0b0; stroke-width: 0.8; stroke-linecap: square"/>
     </g>
     <g id="line2d_38">
      <g>
       <use xlink:href="#m0e010f5292" x="1242.588131" y="1027.96" style="stroke: #000000; stroke-width: 0.8"/>
      </g>
     </g>
     <g id="text_22">
      <!-- 40 -->
      <g transform="translate(1236.225631 1042.558437) scale(0.1 -0.1)">
       <use xlink:href="#DejaVuSans-34"/>
       <use xlink:href="#DejaVuSans-30" x="63.623047"/>
      </g>
     </g>
    </g>
    <g id="text_23">
     <!-- Time (s) -->
     <g transform="translate(707.027187 1063.835) scale(0.2 -0.2)">
      <use xlink:href="#DejaVuSans-54"/>
      <use xlink:href="#DejaVuSans-69" x="57.958984"/>
      <use xlink:href="#DejaVuSans-6d" x="85.742188"/>
      <use xlink:href="#DejaVuSans-65" x="183.154297"/>
      <use xlink:href="#DejaVuSans-20" x="244.677734"/>
      <use xlink:href="#DejaVuSans-28" x="276.464844"/>
      <use xlink:href="#DejaVuSans-73" x="315.478516"/>
      <use xlink:href="#DejaVuSans-29" x="367.578125"/>
     </g>
    </g>
   </g>
   <g id="matplotlib.axis_4">
    <g id="ytick_7">
     <g id="line2d_39">
      <path d="M 66.17 969.073045 
L 1429.2 969.073045 
" clip-path="url(#pf5a842ef3e)" style="fill: none; stroke: #b0b0b0; stroke-width: 0.8; stroke-linecap: square"/>
     </g>
     <g id="line2d_40">
      <g>
       <use xlink:href="#m06642ed3f4" x="66.17" y="969.073045" style="stroke: #000000; stroke-width: 0.8"/>
      </g>
     </g>
     <g id="text_24">
      <!-- −0.3 -->
      <g transform="translate(34.887187 972.872263) scale(0.1 -0.1)">
       <defs>
        <path id="DejaVuSans-2212" d="M 678 2272 
L 4684 2272 
L 4684 1741 
L 678 1741 
L 678 2272 
z
" transform="scale(0.015625)"/>
        <path id="DejaVuSans-2e" d="M 684 794 
L 1344 794 
L 1344 0 
L 684 0 
L 684 794 
z
" transform="scale(0.015625)"/>
       </defs>
       <use xlink:href="#DejaVuSans-2212"/>
       <use xlink:href="#DejaVuSans-30" x="83.789062"/>
       <use xlink:href="#DejaVuSans-2e" x="147.412109"/>
       <use xlink:href="#DejaVuSans-33" x="179.199219"/>
      </g>
     </g>
    </g>
    <g id="ytick_8">
     <g id="line2d_41">
      <path d="M 66.17 903.706939 
L 1429.2 903.706939 
" clip-path="url(#pf5a842ef3e)" style="fill: none; stroke: #b0b0b0; stroke-width: 0.8; stroke-linecap: square"/>
     </g>
     <g id="line2d_42">
      <g>
       <use xlink:href="#m06642ed3f4" x="66.17" y="903.706939" style="stroke: #000000; stroke-width: 0.8"/>
      </g>
     </g>
     <g id="text_25">
      <!-- −0.2 -->
      <g transform="translate(34.887187 907.506158) scale(0.1 -0.1)">
       <use xlink:href="#DejaVuSans-2212"/>
       <use xlink:href="#DejaVuSans-30" x="83.789062"/>
       <use xlink:href="#DejaVuSans-2e" x="147.412109"/>
       <use xlink:href="#DejaVuSans-32" x="179.199219"/>
      </g>
     </g>
    </g>
    <g id="ytick_9">
     <g id="line2d_43">
      <path d="M 66.17 838.340834 
L 1429.2 838.340834 
" clip-path="url(#pf5a842ef3e)" style="fill: none; stroke: #b0b0b0; stroke-width: 0.8; stroke-linecap: square"/>
     </g>
     <g id="line2d_44">
      <g>
       <use xlink:href="#m06642ed3f4" x="66.17" y="838.340834" style="stroke: #000000; stroke-width: 0.8"/>
      </g>
     </g>
     <g id="text_26">
      <!-- −0.1 -->
      <g transform="translate(34.887187 842.140053) scale(0.1 -0.1)">
       <use xlink:href="#DejaVuSans-2212"/>
       <use xlink:href="#DejaVuSans-30" x="83.789062"/>
       <use xlink:href="#DejaVuSans-2e" x="147.412109"/>
       <use xlink:href="#DejaVuSans-31" x="179.199219"/>
      </g>
     </g>
    </g>
    <g id="ytick_10">
     <g id="line2d_45">
      <path d="M 66.17 772.974728 
L 1429.2 772.974728 
" clip-path="url(#pf5a842ef3e)" style="fill: none; stroke: #b0b0b0; stroke-width: 0.8; stroke-linecap: square"/>
     </g>
     <g id="line2d_46">
      <g>
       <use xlink:href="#m06642ed3f4" x="66.17" y="772.974728" style="stroke: #000000; stroke-width: 0.8"/>
      </g>
     </g>
     <g id="text_27">
      <!-- 0.0 -->
      <g transform="translate(43.266875 776.773947) scale(0.1 -0.1)">
       <use xlink:href="#DejaVuSans-30"/>
       <use xlink:href="#DejaVuSans-2e" x="63.623047"/>
       <use xlink:href="#DejaVuSans-30" x="95.410156"/>
      </g>
     </g>
    </g>
    <g id="ytick_11">
     <g id="line2d_47">
      <path d="M 66.17 707.608623 
L 1429.2 707.608623 
" clip-path="url(#pf5a842ef3e)" style="fill: none; stroke: #b0b0b0; stroke-width: 0.8; stroke-linecap: square"/>
     </g>
     <g id="line2d_48">
      <g>
       <use xlink:href="#m06642ed3f4" x="66.17" y="707.608623" style="stroke: #000000; stroke-width: 0.8"/>
      </g>
     </g>
     <g id="text_28">
      <!-- 0.1 -->
      <g transform="translate(43.266875 711.407842) scale(0.1 -0.1)">
       <use xlink:href="#DejaVuSans-30"/>
       <use xlink:href="#DejaVuSans-2e" x="63.623047"/>
       <use xlink:href="#DejaVuSans-31" x="95.410156"/>
      </g>
     </g>
    </g>
    <g id="ytick_12">
     <g id="line2d_49">
      <path d="M 66.17 642.242518 
L 1429.2 642.242518 
" clip-path="url(#pf5a842ef3e)" style="fill: none; stroke: #b0b0b0; stroke-width: 0.8; stroke-linecap: square"/>
     </g>
     <g id="line2d_50">
      <g>
       <use xlink:href="#m06642ed3f4" x="66.17" y="642.242518" style="stroke: #000000; stroke-width: 0.8"/>
      </g>
     </g>
     <g id="text_29">
      <!-- 0.2 -->
      <g transform="translate(43.266875 646.041736) scale(0.1 -0.1)">
       <use xlink:href="#DejaVuSans-30"/>
       <use xlink:href="#DejaVuSans-2e" x="63.623047"/>
       <use xlink:href="#DejaVuSans-32" x="95.410156"/>
      </g>
     </g>
    </g>
    <g id="text_30">
     <!-- Angle error (rad) -->
     <g transform="translate(26.727812 899.549375) rotate(-90) scale(0.2 -0.2)">
      <defs>
       <path id="DejaVuSans-41" d="M 2188 4044 
L 1331 1722 
L 3047 1722 
L 2188 4044 
z
M 1831 4666 
L 2547 4666 
L 4325 0 
L 3669 0 
L 3244 1197 
L 1141 1197 
L 716 0 
L 50 0 
L 1831 4666 
z
" transform="scale(0.015625)"/>
       <path id="DejaVuSans-67" d="M 2906 1791 
Q 2906 2416 2648 2759 
Q 2391 3103 1925 3103 
Q 1463 3103 1205 2759 
Q 947 2416 947 1791 
Q 947 1169 1205 825 
Q 1463 481 1925 481 
Q 2391 481 2648 825 
Q 2906 1169 2906 1791 
z
M 3481 434 
Q 3481 -459 3084 -895 
Q 2688 -1331 1869 -1331 
Q 1566 -1331 1297 -1286 
Q 1028 -1241 775 -1147 
L 775 -588 
Q 1028 -725 1275 -790 
Q 1522 -856 1778 -856 
Q 2344 -856 2625 -561 
Q 2906 -266 2906 331 
L 2906 616 
Q 2728 306 2450 153 
Q 2172 0 1784 0 
Q 1141 0 747 490 
Q 353 981 353 1791 
Q 353 2603 747 3093 
Q 1141 3584 1784 3584 
Q 2172 3584 2450 3431 
Q 2728 3278 2906 2969 
L 2906 3500 
L 3481 3500 
L 3481 434 
z
" transform="scale(0.015625)"/>
       <path id="DejaVuSans-6c" d="M 603 4863 
L 1178 4863 
L 1178 0 
L 603 0 
L 603 4863 
z
" transform="scale(0.015625)"/>
       <path id="DejaVuSans-72" d="M 2631 2963 
Q 2534 3019 2420 3045 
Q 2306 3072 2169 3072 
Q 1681 3072 1420 2755 
Q 1159 2438 1159 1844 
L 1159 0 
L 581 0 
L 581 3500 
L 1159 3500 
L 1159 2956 
Q 1341 3275 1631 3429 
Q 1922 3584 2338 3584 
Q 2397 3584 2469 3576 
Q 2541 3569 2628 3553 
L 2631 2963 
z
" transform="scale(0.015625)"/>
       <path id="DejaVuSans-64" d="M 2906 2969 
L 2906 4863 
L 3481 4863 
L 3481 0 
L 2906 0 
L 2906 525 
Q 2725 213 2448 61 
Q 2172 -91 1784 -91 
Q 1150 -91 751 415 
Q 353 922 353 1747 
Q 353 2572 751 3078 
Q 1150 3584 1784 3584 
Q 2172 3584 2448 3432 
Q 2725 3281 2906 2969 
z
M 947 1747 
Q 947 1113 1208 752 
Q 1469 391 1925 391 
Q 2381 391 2643 752 
Q 2906 1113 2906 1747 
Q 2906 2381 2643 2742 
Q 2381 3103 1925 3103 
Q 1469 3103 1208 2742 
Q 947 2381 947 1747 
z
" transform="scale(0.015625)"/>
      </defs>
      <use xlink:href="#DejaVuSans-41"/>
      <use xlink:href="#DejaVuSans-6e" x="68.408203"/>
      <use xlink:href="#DejaVuSans-67" x="131.787109"/>
      <use xlink:href="#DejaVuSans-6c" x="195.263672"/>
      <use xlink:href="#DejaVuSans-65" x="223.046875"/>
      <use xlink:href="#DejaVuSans-20" x="284.570312"/>
      <use xlink:href="#DejaVuSans-65" x="316.357422"/>
      <use xlink:href="#DejaVuSans-72" x="377.880859"/>
      <use xlink:href="#DejaVuSans-72" x="417.244141"/>
      <use xlink:href="#DejaVuSans-6f" x="456.107422"/>
      <use xlink:href="#DejaVuSans-72" x="517.289062"/>
      <use xlink:href="#DejaVuSans-20" x="558.402344"/>
      <use xlink:href="#DejaVuSans-28" x="590.189453"/>
      <use xlink:href="#DejaVuSans-72" x="629.203125"/>
      <use xlink:href="#DejaVuSans-61" x="670.316406"/>
      <use xlink:href="#DejaVuSans-64" x="731.595703"/>
      <use xlink:href="#DejaVuSans-29" x="795.072266"/>
     </g>
    </g>
   </g>
   <g id="line2d_51">
    <path d="M 128.125909 786.932361 
L 135.111312 786.932361 
L 139.479733 785.898462 
L 143.466523 785.898462 
L 148.082703 784.864564 
L 152.386258 784.347614 
L 156.630326 781.245918 
L 163.567769 780.728969 
L 172.744245 782.796766 
L 177.383867 783.313716 
L 182.441888 807.610336 
L 186.948888 808.127285 
L 191.851084 848.966284 
L 196.108531 873.779854 
L 200.563241 875.330702 
L 204.484301 872.745955 
L 208.195711 870.678157 
L 214.280183 861.890018 
L 218.64208 872.229005 
L 223.746134 869.127309 
L 228.340885 856.720525 
L 232.858787 856.203575 
L 237.288214 856.720525 
L 241.639715 861.373069 
L 246.837366 882.567993 
L 251.289551 880.500195 
L 255.344136 870.678157 
L 259.725762 868.093411 
L 265.33069 863.440866 
L 270.704266 866.025613 
L 276.909722 854.135778 
L 282.158886 851.034082 
L 287.951504 847.932386 
L 293.346124 847.415436 
L 298.993367 821.051019 
L 303.746839 815.881525 
L 308.620331 812.779829 
L 313.59365 811.228981 
L 318.730267 810.195082 
L 323.792133 807.610336 
L 328.552879 808.127285 
L 333.639895 829.322209 
L 338.552174 833.457804 
L 344.333573 890.839182 
L 349.47838 923.923941 
L 354.970017 924.440891 
L 360.339707 923.923941 
L 366.448431 921.339195 
L 372.386691 905.830714 
L 378.566698 903.762916 
L 384.217176 899.627322 
L 390.217325 899.110372 
L 401.371947 900.144271 
L 407.307709 900.144271 
L 412.927119 894.974777 
L 418.283171 892.390031 
L 424.238542 825.703563 
L 429.496143 815.881525 
L 434.740843 770.906931 
L 440.729953 764.703539 
L 446.791208 764.186589 
L 452.187237 815.364576 
L 457.656487 823.118816 
L 462.976549 862.406968 
L 467.769672 848.449335 
L 472.863948 845.864588 
L 478.517667 868.61036 
L 484.036578 847.932386 
L 489.854645 906.347663 
L 495.369179 936.330726 
L 500.902153 937.364625 
L 506.175424 939.949372 
L 511.748567 939.949372 
L 517.654144 934.779878 
L 523.237165 934.779878 
L 529.377469 939.432422 
L 534.446443 946.152764 
L 539.790498 950.805308 
L 544.117103 919.271397 
L 549.33223 915.135802 
L 554.282373 889.805284 
L 559.174704 888.254436 
L 564.425356 859.305272 
L 569.385251 887.737486 
L 574.416594 893.940879 
L 579.412286 905.830714 
L 585.052075 896.008676 
L 590.908655 899.627322 
L 597.055576 914.101904 
L 602.440271 909.966309 
L 607.521382 913.584954 
L 612.521783 916.68665 
L 617.459345 943.568017 
L 622.791516 918.237498 
L 627.472297 915.135802 
L 632.367631 893.940879 
L 637.66718 893.940879 
L 643.020303 923.923941 
L 648.547405 933.745979 
L 654.40091 952.356156 
L 659.494243 953.390055 
L 664.635205 959.593447 
L 670.010009 958.559549 
L 675.561948 949.771409 
L 681.003579 947.186663 
L 686.258954 922.373093 
L 692.558006 903.245967 
L 698.289843 903.245967 
L 704.279916 914.618853 
L 709.897478 916.68665 
L 716.222762 933.22903 
L 721.913335 933.745979 
L 727.729661 926.508688 
L 733.283553 891.356132 
L 740.317202 819.500171 
L 745.990384 820.53407 
L 751.686962 827.254411 
L 757.114915 841.728993 
L 762.305384 841.212044 
L 767.199848 827.771361 
L 772.261568 806.576437 
L 777.393243 782.796766 
L 782.100315 781.245918 
L 787.018168 815.881525 
L 791.960559 840.695095 
L 796.876804 839.661196 
L 801.878069 840.695095 
L 806.757925 840.178145 
L 811.506873 832.423905 
L 816.57234 830.873057 
L 822.208535 842.245943 
L 828.013854 838.110348 
L 833.020925 850.517132 
L 838.314031 892.390031 
L 843.803349 897.042575 
L 849.229568 920.305296 
L 853.975687 922.373093 
L 858.879849 929.610384 
L 869.68725 929.610384 
L 875.406207 925.47479 
L 882.053855 925.991739 
L 887.190857 938.398523 
L 892.09474 939.949372 
L 897.094729 950.288359 
L 903.693175 954.423954 
L 909.386677 954.423954 
L 914.480601 945.118865 
L 919.9014 943.568017 
L 925.480428 933.22903 
L 932.693245 934.779878 
L 939.057348 936.330726 
L 944.600513 948.737511 
L 950.009614 951.839207 
L 955.106753 949.25446 
L 960.194526 947.186663 
L 965.500452 923.406992 
L 971.033055 886.186638 
L 976.011907 860.85612 
L 981.137212 859.822221 
L 985.94346 875.847651 
L 990.621344 869.644259 
L 995.430515 867.059512 
L 1000.340324 858.271373 
L 1005.462978 855.169677 
L 1010.218289 851.551031 
L 1015.422469 891.356132 
L 1020.094209 875.330702 
L 1024.681348 873.262904 
L 1029.720616 858.271373 
L 1035.102947 893.940879 
L 1040.87549 889.805284 
L 1046.827095 913.068005 
L 1051.998958 945.118865 
L 1056.90215 956.491751 
L 1061.514245 957.0087 
L 1066.328923 954.423954 
L 1071.321526 941.50022 
L 1076.381466 940.98327 
L 1081.261422 951.322257 
L 1085.868395 979.754472 
L 1090.603321 981.30532 
L 1095.228814 981.82227 
L 1100.192223 974.068029 
L 1105.410379 972.517181 
L 1111.1003 954.940903 
L 1117.100895 948.737511 
L 1143.828573 973.55108 
L 1149.541385 945.118865 
L 1155.260289 942.534118 
L 1161.186552 924.95784 
L 1167.699971 922.890043 
L 1167.699971 922.890043 
" clip-path="url(#pf5a842ef3e)" style="fill: none; stroke: #1f77b4; stroke-width: 1.5; stroke-linecap: square"/>
   </g>
   <g id="line2d_52">
    <path d="M 128.125909 732.652678 
L 133.362858 734.720476 
L 137.734546 761.084893 
L 142.129205 766.254387 
L 149.440467 809.161184 
L 157.273142 837.593398 
L 161.639324 846.381538 
L 166.09934 846.381538 
L 170.463762 845.347639 
L 174.5574 845.347639 
L 178.829807 842.245943 
L 182.941546 841.212044 
L 187.216776 836.04255 
L 191.4861 835.525601 
L 195.894091 830.873057 
L 200.229245 830.356107 
L 204.484288 826.737462 
L 208.962897 826.737462 
L 213.448881 837.076449 
L 217.596942 841.728993 
L 222.489459 854.652727 
L 226.60268 881.017145 
L 230.876302 882.051043 
L 236.314964 886.186638 
L 240.655744 885.669689 
L 245.04572 885.669689 
L 249.302489 882.567993 
L 253.406643 881.017145 
L 258.279996 862.923917 
L 263.336289 857.754423 
L 268.124296 754.881501 
L 272.744416 744.542514 
L 277.693456 684.576388 
L 282.76419 680.957743 
L 287.507771 671.652654 
L 296.764125 760.050995 
L 301.196887 763.66964 
L 308.254158 784.864564 
L 319.003189 853.101879 
L 324.287049 902.729018 
L 329.794276 907.381562 
L 335.06198 934.262929 
L 340.379963 935.296827 
L 345.781246 933.22903 
L 351.078324 932.712081 
L 356.647122 919.788347 
L 361.877747 915.652752 
L 367.647879 884.63579 
L 372.641439 881.534094 
L 378.207766 881.534094 
L 383.904105 909.966309 
L 389.709769 908.93241 
L 394.814242 874.813752 
L 400.324717 873.262904 
L 405.632244 867.576461 
L 411.183958 866.542563 
L 416.979167 855.686626 
L 422.338587 854.652727 
L 428.275577 856.203575 
L 433.709104 861.890018 
L 439.589299 887.737486 
L 445.17772 930.644283 
L 450.329509 933.22903 
L 455.896501 945.635815 
L 461.335799 946.152764 
L 466.270558 948.737511 
L 471.192522 949.25446 
L 475.65305 949.25446 
L 480.584288 944.601916 
L 485.572447 943.568017 
L 490.777497 932.712081 
L 496.170463 932.712081 
L 501.363071 938.915473 
L 506.800271 940.466321 
L 512.415356 946.669713 
L 517.409021 945.635815 
L 522.683335 932.712081 
L 528.167678 917.720549 
L 533.50541 915.135802 
L 539.672484 902.729018 
L 545.663998 930.127334 
L 550.870357 931.161232 
L 556.139616 935.813777 
L 561.702695 935.813777 
L 572.056199 930.644283 
L 577.265115 931.678182 
L 582.956106 942.534118 
L 587.506809 963.212093 
L 592.171329 965.27989 
L 597.074381 974.068029 
L 601.70568 972.000232 
L 606.517263 971.483282 
L 611.81106 965.27989 
L 616.590405 964.245991 
L 621.322813 963.729042 
L 626.289622 955.974802 
L 631.541032 954.940903 
L 637.337668 954.940903 
L 642.095804 954.423954 
L 647.211616 954.423954 
L 652.705272 954.940903 
L 657.932356 954.940903 
L 668.768991 955.974802 
L 674.332927 957.52565 
L 679.703461 958.042599 
L 685.70177 959.593447 
L 691.299697 992.161257 
L 696.147827 992.161257 
L 701.227018 994.229054 
L 705.944566 994.229054 
L 771.748213 944.601916 
L 782.906761 940.466321 
L 788.297853 939.949372 
L 794.615644 927.025638 
L 800.192885 923.406992 
L 805.479276 913.584954 
L 811.386394 913.584954 
L 817.111037 920.822245 
L 822.366911 943.568017 
L 828.157489 945.635815 
L 833.93459 955.974802 
L 839.224042 955.974802 
L 844.154788 954.940903 
L 849.048853 950.288359 
L 853.586577 955.457852 
L 858.531332 957.0087 
L 863.314909 968.898536 
L 868.277952 978.203624 
L 873.152633 977.169725 
L 878.090062 974.584979 
L 883.012551 955.457852 
L 887.78706 953.907004 
L 893.449162 944.601916 
L 898.292304 943.051068 
L 903.564226 946.152764 
L 908.789955 946.669713 
L 914.126431 934.779878 
L 919.428412 933.22903 
L 925.358122 921.339195 
L 930.375602 934.779878 
L 935.892182 936.847675 
L 940.969858 951.839207 
L 946.076769 953.390055 
L 950.990483 968.381586 
L 955.820924 969.415485 
L 960.686771 968.381586 
L 965.459434 964.762941 
L 970.254183 964.762941 
L 975.072488 964.245991 
L 979.684078 964.245991 
L 984.748615 963.729042 
L 989.876696 964.245991 
L 995.122798 968.898536 
L 1000.084579 969.932434 
L 1005.470749 985.440915 
L 1009.803439 991.127358 
L 1014.444503 991.127358 
L 1023.546467 995.262953 
L 1028.062787 995.262953 
L 1032.690964 997.8477 
L 1037.552121 984.407016 
L 1042.027197 983.373118 
L 1046.681653 970.966333 
L 1051.474529 968.898536 
L 1057.306964 943.051068 
L 1063.072393 929.610384 
L 1068.787145 928.576486 
L 1074.547015 928.576486 
L 1080.10278 934.262929 
L 1085.55292 951.839207 
L 1091.090145 953.390055 
L 1095.698228 956.491751 
L 1100.478988 956.491751 
L 1106.124012 955.974802 
L 1110.715973 955.974802 
L 1115.714661 954.423954 
L 1120.625924 954.423954 
L 1125.271491 953.907004 
L 1130.454534 952.873106 
L 1135.573893 952.873106 
L 1146.743269 951.839207 
L 1151.795736 950.288359 
L 1157.054546 945.635815 
L 1162.536006 944.601916 
L 1169.401209 943.568017 
L 1174.607023 956.491751 
L 1179.747945 958.042599 
L 1184.82574 951.839207 
L 1190.425334 951.839207 
L 1195.298143 947.703612 
L 1200.135193 905.830714 
L 1204.665815 901.695119 
L 1209.980643 870.161208 
L 1214.74843 868.093411 
L 1220.801402 888.771385 
L 1226.50805 888.254436 
L 1231.531575 885.152739 
L 1236.530283 886.703588 
L 1241.691464 889.288334 
L 1246.63988 859.822221 
L 1260.483193 746.093362 
L 1265.264611 741.440818 
L 1270.132125 713.525552 
L 1274.998862 712.491653 
L 1279.520676 713.008603 
L 1289.444264 702.152666 
L 1308.412529 623.576364 
L 1313.385031 623.576364 
L 1319.216795 637.533996 
L 1325.105958 683.02554 
L 1329.655279 695.949274 
L 1334.700752 696.466223 
L 1340.025909 737.822172 
L 1345.370077 778.144222 
L 1351.074526 787.96626 
L 1356.653701 853.618829 
L 1362.235758 857.237474 
L 1367.244091 904.279866 
L 1367.244091 904.279866 
" clip-path="url(#pf5a842ef3e)" style="fill: none; stroke: #ff7f0e; stroke-width: 1.5; stroke-linecap: square"/>
   </g>
   <g id="line2d_53">
    <path d="M 128.125909 814.330677 
L 143.544362 814.330677 
L 152.025771 815.364576 
L 156.040527 821.567968 
L 160.124147 822.084918 
L 166.05043 817.432373 
L 171.10034 853.618829 
L 175.6925 860.33917 
L 181.247222 920.305296 
L 185.339359 923.406992 
L 189.623318 948.737511 
L 194.359538 951.322257 
L 200.111749 958.559549 
L 204.792908 964.245991 
L 208.817057 964.762941 
L 212.995921 960.627346 
L 217.006943 959.593447 
L 221.300666 956.491751 
L 225.666722 957.0087 
L 230.463538 966.313789 
L 234.766972 966.830738 
L 239.208655 967.864637 
L 242.755758 966.313789 
L 246.565094 966.830738 
L 250.498603 966.830738 
L 254.736228 967.864637 
L 259.369221 968.381586 
L 263.602841 977.686675 
L 267.335508 981.30532 
L 272.18494 988.542611 
L 277.048867 988.542611 
L 282.824865 979.754472 
L 287.501819 977.686675 
L 292.349525 962.695143 
L 297.660413 969.932434 
L 302.074283 972.000232 
L 307.257439 976.135827 
L 312.016398 975.618877 
L 317.002418 961.144295 
L 321.928793 959.076498 
L 327.142014 940.98327 
L 332.457658 937.881574 
L 337.621118 928.059536 
L 343.188289 928.576486 
L 348.737033 939.432422 
L 354.338614 943.568017 
L 359.186571 973.034131 
L 364.046779 975.101928 
L 368.883623 981.30532 
L 373.701396 981.30532 
L 378.429002 975.101928 
L 383.433362 950.288359 
L 388.778607 945.635815 
L 394.409694 915.135802 
L 399.532301 913.068005 
L 404.972118 902.212068 
L 410.705908 924.440891 
L 415.888626 928.059536 
L 423.2926 935.813777 
L 429.109643 939.432422 
L 434.003343 940.98327 
L 439.576771 952.356156 
L 444.724873 953.907004 
L 449.349696 960.627346 
L 455.857561 956.491751 
L 461.299025 951.322257 
L 466.438658 950.805308 
L 471.252273 950.805308 
L 476.210434 951.322257 
L 481.832154 952.356156 
L 486.731633 964.245991 
L 491.708214 964.762941 
L 497.332545 967.347688 
L 501.845571 966.313789 
L 507.056965 957.0087 
L 511.726061 964.762941 
L 516.713091 966.830738 
L 526.483598 966.830738 
L 535.929149 968.898536 
L 541.318043 962.695143 
L 546.092672 961.661245 
L 551.786101 946.669713 
L 557.612438 945.118865 
L 563.225656 934.779878 
L 568.52033 934.262929 
L 574.03772 942.534118 
L 578.78061 944.601916 
L 584.118641 922.890043 
L 588.619902 917.720549 
L 594.604594 911.517157 
L 599.670871 897.042575 
L 604.733462 900.144271 
L 609.950635 912.551056 
L 614.785055 886.703588 
L 619.527387 882.567993 
L 624.36281 855.169677 
L 630.309991 856.720525 
L 635.213183 862.923917 
L 641.042628 856.203575 
L 647.01337 880.500195 
L 652.381187 932.195131 
L 657.885976 934.262929 
L 663.46173 940.466321 
L 668.936939 940.466321 
L 674.374989 939.432422 
L 680.040944 938.915473 
L 686.022533 935.296827 
L 691.366582 947.186663 
L 696.38098 948.220561 
L 701.280465 960.627346 
L 706.036953 961.144295 
L 711.168668 965.27989 
L 716.274476 957.52565 
L 721.076121 955.974802 
L 726.622679 941.50022 
L 731.702275 933.745979 
L 736.577966 935.296827 
L 741.616749 938.915473 
L 746.966232 937.364625 
L 752.103971 902.729018 
L 756.720962 897.042575 
L 761.674327 857.237474 
L 766.482016 857.754423 
L 771.34328 818.466272 
L 775.908172 800.889994 
L 780.45742 801.406943 
L 786.064454 799.856095 
L 790.639795 804.508639 
L 795.202827 792.618804 
L 799.723425 777.110323 
L 804.933411 789.000159 
L 809.80028 785.381513 
L 814.826821 814.847627 
L 819.688695 895.491727 
L 824.362621 900.66122 
L 828.989416 929.610384 
L 834.009507 933.22903 
L 839.260445 942.534118 
L 844.620157 942.534118 
L 849.791622 939.432422 
L 855.151799 940.466321 
L 860.295929 957.52565 
L 865.24105 994.746004 
L 870.138741 1008.186687 
L 874.493764 1008.703636 
L 879.025874 1000.949396 
L 883.906793 976.652776 
L 889.602341 956.491751 
L 896.025478 963.729042 
L 900.866382 966.313789 
L 906.356876 982.856168 
L 912.251619 981.30532 
L 916.84738 976.652776 
L 922.395433 958.559549 
L 927.379965 945.118865 
L 932.442987 969.415485 
L 936.902858 997.8477 
L 941.712607 1000.432447 
L 945.969011 1008.186687 
L 950.978653 980.788371 
L 955.511573 977.686675 
L 960.618497 953.907004 
L 965.788759 950.805308 
L 971.483882 934.262929 
L 976.708057 933.22903 
L 982.536685 938.398523 
L 987.836048 949.771409 
L 993.297208 948.220561 
L 999.044197 935.296827 
L 1004.961758 932.195131 
L 1010.824337 914.618853 
L 1016.526342 901.695119 
L 1022.782296 901.17817 
L 1029.103873 908.93241 
L 1034.91634 924.440891 
L 1040.350298 924.95784 
L 1045.342608 934.262929 
L 1050.898354 934.779878 
L 1056.57774 920.305296 
L 1061.720568 916.68665 
L 1067.853539 888.254436 
L 1073.915791 892.390031 
L 1073.915791 892.390031 
" clip-path="url(#pf5a842ef3e)" style="fill: none; stroke: #2ca02c; stroke-width: 1.5; stroke-linecap: square"/>
   </g>
   <g id="patch_9">
    <path d="M 66.17 1027.96 
L 66.17 604.32 
" style="fill: none; stroke: #000000; stroke-width: 0.8; stroke-linejoin: miter; stroke-linecap: square"/>
   </g>
   <g id="patch_10">
    <path d="M 1429.2 1027.96 
L 1429.2 604.32 
" style="fill: none; stroke: #000000; stroke-width: 0.8; stroke-linejoin: miter; stroke-linecap: square"/>
   </g>
   <g id="patch_11">
    <path d="M 66.17 1027.96 
L 1429.2 1027.96 
" style="fill: none; stroke: #000000; stroke-width: 0.8; stroke-linejoin: miter; stroke-linecap: square"/>
   </g>
   <g id="patch_12">
    <path d="M 66.17 604.32 
L 1429.2 604.32 
" style="fill: none; stroke: #000000; stroke-width: 0.8; stroke-linejoin: miter; stroke-linecap: square"/>
   </g>
   <g id="text_31">
    <!-- Angle error -->
    <g transform="translate(691.844375 598.32) scale(0.2 -0.2)">
     <use xlink:href="#DejaVuSans-41"/>
     <use xlink:href="#DejaVuSans-6e" x="68.408203"/>
     <use xlink:href="#DejaVuSans-67" x="131.787109"/>
     <use xlink:href="#DejaVuSans-6c" x="195.263672"/>
     <use xlink:href="#DejaVuSans-65" x="223.046875"/>
     <use xlink:href="#DejaVuSans-20" x="284.570312"/>
     <use xlink:href="#DejaVuSans-65" x="316.357422"/>
     <use xlink:href="#DejaVuSans-72" x="377.880859"/>
     <use xlink:href="#DejaVuSans-72" x="417.244141"/>
     <use xlink:href="#DejaVuSans-6f" x="456.107422"/>
     <use xlink:href="#DejaVuSans-72" x="517.289062"/>
    </g>
   </g>
   <g id="legend_2">
    <g id="patch_13">
     <path d="M 1361.485938 656.354375 
L 1422.2 656.354375 
Q 1424.2 656.354375 1424.2 654.354375 
L 1424.2 611.32 
Q 1424.2 609.32 1422.2 609.32 
L 1361.485938 609.32 
Q 1359.485938 609.32 1359.485938 611.32 
L 1359.485938 654.354375 
Q 1359.485938 656.354375 1361.485938 656.354375 
z
" style="fill: #ffffff; opacity: 0.8; stroke: #cccccc; stroke-linejoin: miter"/>
    </g>
    <g id="line2d_54">
     <path d="M 1363.485938 617.418437 
L 1373.485938 617.418437 
L 1383.485938 617.418437 
" style="fill: none; stroke: #1f77b4; stroke-width: 1.5; stroke-linecap: square"/>
    </g>
    <g id="text_32">
     <!-- Run 1 -->
     <g transform="translate(1391.485938 620.918437) scale(0.1 -0.1)">
      <use xlink:href="#DejaVuSans-52"/>
      <use xlink:href="#DejaVuSans-75" x="64.982422"/>
      <use xlink:href="#DejaVuSans-6e" x="128.361328"/>
      <use xlink:href="#DejaVuSans-20" x="191.740234"/>
      <use xlink:href="#DejaVuSans-31" x="223.527344"/>
     </g>
    </g>
    <g id="line2d_55">
     <path d="M 1363.485938 632.096563 
L 1373.485938 632.096563 
L 1383.485938 632.096563 
" style="fill: none; stroke: #ff7f0e; stroke-width: 1.5; stroke-linecap: square"/>
    </g>
    <g id="text_33">
     <!-- Run 2 -->
     <g transform="translate(1391.485938 635.596563) scale(0.1 -0.1)">
      <use xlink:href="#DejaVuSans-52"/>
      <use xlink:href="#DejaVuSans-75" x="64.982422"/>
      <use xlink:href="#DejaVuSans-6e" x="128.361328"/>
      <use xlink:href="#DejaVuSans-20" x="191.740234"/>
      <use xlink:href="#DejaVuSans-32" x="223.527344"/>
     </g>
    </g>
    <g id="line2d_56">
     <path d="M 1363.485938 646.774688 
L 1373.485938 646.774688 
L 1383.485938 646.774688 
" style="fill: none; stroke: #2ca02c; stroke-width: 1.5; stroke-linecap: square"/>
    </g>
    <g id="text_34">
     <!-- Run 3 -->
     <g transform="translate(1391.485938 650.274688) scale(0.1 -0.1)">
      <use xlink:href="#DejaVuSans-52"/>
      <use xlink:href="#DejaVuSans-75" x="64.982422"/>
      <use xlink:href="#DejaVuSans-6e" x="128.361328"/>
      <use xlink:href="#DejaVuSans-20" x="191.740234"/>
      <use xlink:href="#DejaVuSans-33" x="223.527344"/>
     </g>
    </g>
   </g>
  </g>
  <g id="text_35">
   <!-- Experiment 3 -->
   <g transform="translate(652.679688 36.796875) scale(0.2 -0.2)">
    <defs>
     <path id="DejaVuSans-45" d="M 628 4666 
L 3578 4666 
L 3578 4134 
L 1259 4134 
L 1259 2753 
L 3481 2753 
L 3481 2222 
L 1259 2222 
L 1259 531 
L 3634 531 
L 3634 0 
L 628 0 
L 628 4666 
z
" transform="scale(0.015625)"/>
     <path id="DejaVuSans-78" d="M 3513 3500 
L 2247 1797 
L 3578 0 
L 2900 0 
L 1881 1375 
L 863 0 
L 184 0 
L 1544 1831 
L 300 3500 
L 978 3500 
L 1906 2253 
L 2834 3500 
L 3513 3500 
z
" transform="scale(0.015625)"/>
     <path id="DejaVuSans-70" d="M 1159 525 
L 1159 -1331 
L 581 -1331 
L 581 3500 
L 1159 3500 
L 1159 2969 
Q 1341 3281 1617 3432 
Q 1894 3584 2278 3584 
Q 2916 3584 3314 3078 
Q 3713 2572 3713 1747 
Q 3713 922 3314 415 
Q 2916 -91 2278 -91 
Q 1894 -91 1617 61 
Q 1341 213 1159 525 
z
M 3116 1747 
Q 3116 2381 2855 2742 
Q 2594 3103 2138 3103 
Q 1681 3103 1420 2742 
Q 1159 2381 1159 1747 
Q 1159 1113 1420 752 
Q 1681 391 2138 391 
Q 2594 391 2855 752 
Q 3116 1113 3116 1747 
z
" transform="scale(0.015625)"/>
    </defs>
    <use xlink:href="#DejaVuSans-45"/>
    <use xlink:href="#DejaVuSans-78" x="63.183594"/>
    <use xlink:href="#DejaVuSans-70" x="122.363281"/>
    <use xlink:href="#DejaVuSans-65" x="185.839844"/>
    <use xlink:href="#DejaVuSans-72" x="247.363281"/>
    <use xlink:href="#DejaVuSans-69" x="288.476562"/>
    <use xlink:href="#DejaVuSans-6d" x="316.259766"/>
    <use xlink:href="#DejaVuSans-65" x="413.671875"/>
    <use xlink:href="#DejaVuSans-6e" x="475.195312"/>
    <use xlink:href="#DejaVuSans-74" x="538.574219"/>
    <use xlink:href="#DejaVuSans-20" x="577.783203"/>
    <use xlink:href="#DejaVuSans-33" x="609.570312"/>
   </g>
  </g>
 </g>
 <defs>
  <clipPath id="pa45095be50">
   <rect x="66.17" y="106.8" width="1363.03" height="423.64"/>
  </clipPath>
  <clipPath id="pf5a842ef3e">
   <rect x="66.17" y="604.32" width="1363.03" height="423.64"/>
  </clipPath>
 </defs>
</svg>
