<?xml version="1.0" encoding="utf-8" standalone="no"?>
<!DOCTYPE svg PUBLIC "-//W3C//DTD SVG 1.1//EN"
  "http://www.w3.org/Graphics/SVG/1.1/DTD/svg11.dtd">
<svg xmlns:xlink="http://www.w3.org/1999/xlink" width="1440pt" height="1080pt" viewBox="0 0 1440 1080" xmlns="http://www.w3.org/2000/svg" version="1.1">
 <metadata>
  <rdf:RDF xmlns:dc="http://purl.org/dc/elements/1.1/" xmlns:cc="http://creativecommons.org/ns#" xmlns:rdf="http://www.w3.org/1999/02/22-rdf-syntax-ns#">
   <cc:Work>
    <dc:type rdf:resource="http://purl.org/dc/dcmitype/StillImage"/>
    <dc:date>2024-05-17T21:03:01.283197</dc:date>
    <dc:format>image/svg+xml</dc:format>
    <dc:creator>
     <cc:Agent>
      <dc:title>Matplotlib v3.8.1, https://matplotlib.org/</dc:title>
     </cc:Agent>
    </dc:creator>
   </cc:Work>
  </rdf:RDF>
 </metadata>
 <defs>
  <style type="text/css">*{stroke-linejoin: round; stroke-linecap: butt}</style>
 </defs>
 <g id="figure_1">
  <g id="patch_1">
   <path d="M 0 1080 
L 1440 1080 
L 1440 0 
L 0 0 
z
" style="fill: #ffffff"/>
  </g>
  <g id="axes_1">
   <g id="patch_2">
    <path d="M 66.17 530.44 
L 1429.2 530.44 
L 1429.2 106.8 
L 66.17 106.8 
z
" style="fill: #ffffff"/>
   </g>
   <g id="matplotlib.axis_1">
    <g id="xtick_1">
     <g id="line2d_1">
      <path d="M 128.125909 530.44 
L 128.125909 106.8 
" clip-path="url(#pf830f9a8dd)" style="fill: none; stroke: #b0b0b0; stroke-width: 0.8; stroke-linecap: square"/>
     </g>
     <g id="line2d_2">
      <defs>
       <path id="ma7bc50c5e6" d="M 0 0 
L 0 3.5 
" style="stroke: #000000; stroke-width: 0.8"/>
      </defs>
      <g>
       <use xlink:href="#ma7bc50c5e6" x="128.125909" y="530.44" style="stroke: #000000; stroke-width: 0.8"/>
      </g>
     </g>
     <g id="text_1">
      <!-- 0 -->
      <g transform="translate(124.944659 545.038438) scale(0.1 -0.1)">
       <defs>
        <path id="DejaVuSans-30" d="M 2034 4250 
Q 1547 4250 1301 3770 
Q 1056 3291 1056 2328 
Q 1056 1369 1301 889 
Q 1547 409 2034 409 
Q 2525 409 2770 889 
Q 3016 1369 3016 2328 
Q 3016 3291 2770 3770 
Q 2525 4250 2034 4250 
z
M 2034 4750 
Q 2819 4750 3233 4129 
Q 3647 3509 3647 2328 
Q 3647 1150 3233 529 
Q 2819 -91 2034 -91 
Q 1250 -91 836 529 
Q 422 1150 422 2328 
Q 422 3509 836 4129 
Q 1250 4750 2034 4750 
z
" transform="scale(0.015625)"/>
       </defs>
       <use xlink:href="#DejaVuSans-30"/>
      </g>
     </g>
    </g>
    <g id="xtick_2">
     <g id="line2d_3">
      <path d="M 413.222525 530.44 
L 413.222525 106.8 
" clip-path="url(#pf830f9a8dd)" style="fill: none; stroke: #b0b0b0; stroke-width: 0.8; stroke-linecap: square"/>
     </g>
     <g id="line2d_4">
      <g>
       <use xlink:href="#ma7bc50c5e6" x="413.222525" y="530.44" style="stroke: #000000; stroke-width: 0.8"/>
      </g>
     </g>
     <g id="text_2">
      <!-- 10 -->
      <g transform="translate(406.860025 545.038438) scale(0.1 -0.1)">
       <defs>
        <path id="DejaVuSans-31" d="M 794 531 
L 1825 531 
L 1825 4091 
L 703 3866 
L 703 4441 
L 1819 4666 
L 2450 4666 
L 2450 531 
L 3481 531 
L 3481 0 
L 794 0 
L 794 531 
z
" transform="scale(0.015625)"/>
       </defs>
       <use xlink:href="#DejaVuSans-31"/>
       <use xlink:href="#DejaVuSans-30" x="63.623047"/>
      </g>
     </g>
    </g>
    <g id="xtick_3">
     <g id="line2d_5">
      <path d="M 698.31914 530.44 
L 698.31914 106.8 
" clip-path="url(#pf830f9a8dd)" style="fill: none; stroke: #b0b0b0; stroke-width: 0.8; stroke-linecap: square"/>
     </g>
     <g id="line2d_6">
      <g>
       <use xlink:href="#ma7bc50c5e6" x="698.31914" y="530.44" style="stroke: #000000; stroke-width: 0.8"/>
      </g>
     </g>
     <g id="text_3">
      <!-- 20 -->
      <g transform="translate(691.95664 545.038438) scale(0.1 -0.1)">
       <defs>
        <path id="DejaVuSans-32" d="M 1228 531 
L 3431 531 
L 3431 0 
L 469 0 
L 469 531 
Q 828 903 1448 1529 
Q 2069 2156 2228 2338 
Q 2531 2678 2651 2914 
Q 2772 3150 2772 3378 
Q 2772 3750 2511 3984 
Q 2250 4219 1831 4219 
Q 1534 4219 1204 4116 
Q 875 4013 500 3803 
L 500 4441 
Q 881 4594 1212 4672 
Q 1544 4750 1819 4750 
Q 2544 4750 2975 4387 
Q 3406 4025 3406 3419 
Q 3406 3131 3298 2873 
Q 3191 2616 2906 2266 
Q 2828 2175 2409 1742 
Q 1991 1309 1228 531 
z
" transform="scale(0.015625)"/>
       </defs>
       <use xlink:href="#DejaVuSans-32"/>
       <use xlink:href="#DejaVuSans-30" x="63.623047"/>
      </g>
     </g>
    </g>
    <g id="xtick_4">
     <g id="line2d_7">
      <path d="M 983.415756 530.44 
L 983.415756 106.8 
" clip-path="url(#pf830f9a8dd)" style="fill: none; stroke: #b0b0b0; stroke-width: 0.8; stroke-linecap: square"/>
     </g>
     <g id="line2d_8">
      <g>
       <use xlink:href="#ma7bc50c5e6" x="983.415756" y="530.44" style="stroke: #000000; stroke-width: 0.8"/>
      </g>
     </g>
     <g id="text_4">
      <!-- 30 -->
      <g transform="translate(977.053256 545.038438) scale(0.1 -0.1)">
       <defs>
        <path id="DejaVuSans-33" d="M 2597 2516 
Q 3050 2419 3304 2112 
Q 3559 1806 3559 1356 
Q 3559 666 3084 287 
Q 2609 -91 1734 -91 
Q 1441 -91 1130 -33 
Q 819 25 488 141 
L 488 750 
Q 750 597 1062 519 
Q 1375 441 1716 441 
Q 2309 441 2620 675 
Q 2931 909 2931 1356 
Q 2931 1769 2642 2001 
Q 2353 2234 1838 2234 
L 1294 2234 
L 1294 2753 
L 1863 2753 
Q 2328 2753 2575 2939 
Q 2822 3125 2822 3475 
Q 2822 3834 2567 4026 
Q 2313 4219 1838 4219 
Q 1578 4219 1281 4162 
Q 984 4106 628 3988 
L 628 4550 
Q 988 4650 1302 4700 
Q 1616 4750 1894 4750 
Q 2613 4750 3031 4423 
Q 3450 4097 3450 3541 
Q 3450 3153 3228 2886 
Q 3006 2619 2597 2516 
z
" transform="scale(0.015625)"/>
       </defs>
       <use xlink:href="#DejaVuSans-33"/>
       <use xlink:href="#DejaVuSans-30" x="63.623047"/>
      </g>
     </g>
    </g>
    <g id="xtick_5">
     <g id="line2d_9">
      <path d="M 1268.512372 530.44 
L 1268.512372 106.8 
" clip-path="url(#pf830f9a8dd)" style="fill: none; stroke: #b0b0b0; stroke-width: 0.8; stroke-linecap: square"/>
     </g>
     <g id="line2d_10">
      <g>
       <use xlink:href="#ma7bc50c5e6" x="1268.512372" y="530.44" style="stroke: #000000; stroke-width: 0.8"/>
      </g>
     </g>
     <g id="text_5">
      <!-- 40 -->
      <g transform="translate(1262.149872 545.038438) scale(0.1 -0.1)">
       <defs>
        <path id="DejaVuSans-34" d="M 2419 4116 
L 825 1625 
L 2419 1625 
L 2419 4116 
z
M 2253 4666 
L 3047 4666 
L 3047 1625 
L 3713 1625 
L 3713 1100 
L 3047 1100 
L 3047 0 
L 2419 0 
L 2419 1100 
L 313 1100 
L 313 1709 
L 2253 4666 
z
" transform="scale(0.015625)"/>
       </defs>
       <use xlink:href="#DejaVuSans-34"/>
       <use xlink:href="#DejaVuSans-30" x="63.623047"/>
      </g>
     </g>
    </g>
    <g id="text_6">
     <!-- Time (s) -->
     <g transform="translate(707.027187 566.315) scale(0.2 -0.2)">
      <defs>
       <path id="DejaVuSans-54" d="M -19 4666 
L 3928 4666 
L 3928 4134 
L 2272 4134 
L 2272 0 
L 1638 0 
L 1638 4134 
L -19 4134 
L -19 4666 
z
" transform="scale(0.015625)"/>
       <path id="DejaVuSans-69" d="M 603 3500 
L 1178 3500 
L 1178 0 
L 603 0 
L 603 3500 
z
M 603 4863 
L 1178 4863 
L 1178 4134 
L 603 4134 
L 603 4863 
z
" transform="scale(0.015625)"/>
       <path id="DejaVuSans-6d" d="M 3328 2828 
Q 3544 3216 3844 3400 
Q 4144 3584 4550 3584 
Q 5097 3584 5394 3201 
Q 5691 2819 5691 2113 
L 5691 0 
L 5113 0 
L 5113 2094 
Q 5113 2597 4934 2840 
Q 4756 3084 4391 3084 
Q 3944 3084 3684 2787 
Q 3425 2491 3425 1978 
L 3425 0 
L 2847 0 
L 2847 2094 
Q 2847 2600 2669 2842 
Q 2491 3084 2119 3084 
Q 1678 3084 1418 2786 
Q 1159 2488 1159 1978 
L 1159 0 
L 581 0 
L 581 3500 
L 1159 3500 
L 1159 2956 
Q 1356 3278 1631 3431 
Q 1906 3584 2284 3584 
Q 2666 3584 2933 3390 
Q 3200 3197 3328 2828 
z
" transform="scale(0.015625)"/>
       <path id="DejaVuSans-65" d="M 3597 1894 
L 3597 1613 
L 953 1613 
Q 991 1019 1311 708 
Q 1631 397 2203 397 
Q 2534 397 2845 478 
Q 3156 559 3463 722 
L 3463 178 
Q 3153 47 2828 -22 
Q 2503 -91 2169 -91 
Q 1331 -91 842 396 
Q 353 884 353 1716 
Q 353 2575 817 3079 
Q 1281 3584 2069 3584 
Q 2775 3584 3186 3129 
Q 3597 2675 3597 1894 
z
M 3022 2063 
Q 3016 2534 2758 2815 
Q 2500 3097 2075 3097 
Q 1594 3097 1305 2825 
Q 1016 2553 972 2059 
L 3022 2063 
z
" transform="scale(0.015625)"/>
       <path id="DejaVuSans-20" transform="scale(0.015625)"/>
       <path id="DejaVuSans-28" d="M 1984 4856 
Q 1566 4138 1362 3434 
Q 1159 2731 1159 2009 
Q 1159 1288 1364 580 
Q 1569 -128 1984 -844 
L 1484 -844 
Q 1016 -109 783 600 
Q 550 1309 550 2009 
Q 550 2706 781 3412 
Q 1013 4119 1484 4856 
L 1984 4856 
z
" transform="scale(0.015625)"/>
       <path id="DejaVuSans-73" d="M 2834 3397 
L 2834 2853 
Q 2591 2978 2328 3040 
Q 2066 3103 1784 3103 
Q 1356 3103 1142 2972 
Q 928 2841 928 2578 
Q 928 2378 1081 2264 
Q 1234 2150 1697 2047 
L 1894 2003 
Q 2506 1872 2764 1633 
Q 3022 1394 3022 966 
Q 3022 478 2636 193 
Q 2250 -91 1575 -91 
Q 1294 -91 989 -36 
Q 684 19 347 128 
L 347 722 
Q 666 556 975 473 
Q 1284 391 1588 391 
Q 1994 391 2212 530 
Q 2431 669 2431 922 
Q 2431 1156 2273 1281 
Q 2116 1406 1581 1522 
L 1381 1569 
Q 847 1681 609 1914 
Q 372 2147 372 2553 
Q 372 3047 722 3315 
Q 1072 3584 1716 3584 
Q 2034 3584 2315 3537 
Q 2597 3491 2834 3397 
z
" transform="scale(0.015625)"/>
       <path id="DejaVuSans-29" d="M 513 4856 
L 1013 4856 
Q 1481 4119 1714 3412 
Q 1947 2706 1947 2009 
Q 1947 1309 1714 600 
Q 1481 -109 1013 -844 
L 513 -844 
Q 928 -128 1133 580 
Q 1338 1288 1338 2009 
Q 1338 2731 1133 3434 
Q 928 4138 513 4856 
z
" transform="scale(0.015625)"/>
      </defs>
      <use xlink:href="#DejaVuSans-54"/>
      <use xlink:href="#DejaVuSans-69" x="57.958984"/>
      <use xlink:href="#DejaVuSans-6d" x="85.742188"/>
      <use xlink:href="#DejaVuSans-65" x="183.154297"/>
      <use xlink:href="#DejaVuSans-20" x="244.677734"/>
      <use xlink:href="#DejaVuSans-28" x="276.464844"/>
      <use xlink:href="#DejaVuSans-73" x="315.478516"/>
      <use xlink:href="#DejaVuSans-29" x="367.578125"/>
     </g>
    </g>
   </g>
   <g id="matplotlib.axis_2">
    <g id="ytick_1">
     <g id="line2d_11">
      <path d="M 66.17 511.183636 
L 1429.2 511.183636 
" clip-path="url(#pf830f9a8dd)" style="fill: none; stroke: #b0b0b0; stroke-width: 0.8; stroke-linecap: square"/>
     </g>
     <g id="line2d_12">
      <defs>
       <path id="md7e3a92377" d="M 0 0 
L -3.5 0 
" style="stroke: #000000; stroke-width: 0.8"/>
      </defs>
      <g>
       <use xlink:href="#md7e3a92377" x="66.17" y="511.183636" style="stroke: #000000; stroke-width: 0.8"/>
      </g>
     </g>
     <g id="text_7">
      <!-- 0 -->
      <g transform="translate(52.8075 514.982855) scale(0.1 -0.1)">
       <use xlink:href="#DejaVuSans-30"/>
      </g>
     </g>
    </g>
    <g id="ytick_2">
     <g id="line2d_13">
      <path d="M 66.17 434.171853 
L 1429.2 434.171853 
" clip-path="url(#pf830f9a8dd)" style="fill: none; stroke: #b0b0b0; stroke-width: 0.8; stroke-linecap: square"/>
     </g>
     <g id="line2d_14">
      <g>
       <use xlink:href="#md7e3a92377" x="66.17" y="434.171853" style="stroke: #000000; stroke-width: 0.8"/>
      </g>
     </g>
     <g id="text_8">
      <!-- 50 -->
      <g transform="translate(46.445 437.971072) scale(0.1 -0.1)">
       <defs>
        <path id="DejaVuSans-35" d="M 691 4666 
L 3169 4666 
L 3169 4134 
L 1269 4134 
L 1269 2991 
Q 1406 3038 1543 3061 
Q 1681 3084 1819 3084 
Q 2600 3084 3056 2656 
Q 3513 2228 3513 1497 
Q 3513 744 3044 326 
Q 2575 -91 1722 -91 
Q 1428 -91 1123 -41 
Q 819 9 494 109 
L 494 744 
Q 775 591 1075 516 
Q 1375 441 1709 441 
Q 2250 441 2565 725 
Q 2881 1009 2881 1497 
Q 2881 1984 2565 2268 
Q 2250 2553 1709 2553 
Q 1456 2553 1204 2497 
Q 953 2441 691 2322 
L 691 4666 
z
" transform="scale(0.015625)"/>
       </defs>
       <use xlink:href="#DejaVuSans-35"/>
       <use xlink:href="#DejaVuSans-30" x="63.623047"/>
      </g>
     </g>
    </g>
    <g id="ytick_3">
     <g id="line2d_15">
      <path d="M 66.17 357.16007 
L 1429.2 357.16007 
" clip-path="url(#pf830f9a8dd)" style="fill: none; stroke: #b0b0b0; stroke-width: 0.8; stroke-linecap: square"/>
     </g>
     <g id="line2d_16">
      <g>
       <use xlink:href="#md7e3a92377" x="66.17" y="357.16007" style="stroke: #000000; stroke-width: 0.8"/>
      </g>
     </g>
     <g id="text_9">
      <!-- 100 -->
      <g transform="translate(40.0825 360.959288) scale(0.1 -0.1)">
       <use xlink:href="#DejaVuSans-31"/>
       <use xlink:href="#DejaVuSans-30" x="63.623047"/>
       <use xlink:href="#DejaVuSans-30" x="127.246094"/>
      </g>
     </g>
    </g>
    <g id="ytick_4">
     <g id="line2d_17">
      <path d="M 66.17 280.148286 
L 1429.2 280.148286 
" clip-path="url(#pf830f9a8dd)" style="fill: none; stroke: #b0b0b0; stroke-width: 0.8; stroke-linecap: square"/>
     </g>
     <g id="line2d_18">
      <g>
       <use xlink:href="#md7e3a92377" x="66.17" y="280.148286" style="stroke: #000000; stroke-width: 0.8"/>
      </g>
     </g>
     <g id="text_10">
      <!-- 150 -->
      <g transform="translate(40.0825 283.947505) scale(0.1 -0.1)">
       <use xlink:href="#DejaVuSans-31"/>
       <use xlink:href="#DejaVuSans-35" x="63.623047"/>
       <use xlink:href="#DejaVuSans-30" x="127.246094"/>
      </g>
     </g>
    </g>
    <g id="ytick_5">
     <g id="line2d_19">
      <path d="M 66.17 203.136503 
L 1429.2 203.136503 
" clip-path="url(#pf830f9a8dd)" style="fill: none; stroke: #b0b0b0; stroke-width: 0.8; stroke-linecap: square"/>
     </g>
     <g id="line2d_20">
      <g>
       <use xlink:href="#md7e3a92377" x="66.17" y="203.136503" style="stroke: #000000; stroke-width: 0.8"/>
      </g>
     </g>
     <g id="text_11">
      <!-- 200 -->
      <g transform="translate(40.0825 206.935722) scale(0.1 -0.1)">
       <use xlink:href="#DejaVuSans-32"/>
       <use xlink:href="#DejaVuSans-30" x="63.623047"/>
       <use xlink:href="#DejaVuSans-30" x="127.246094"/>
      </g>
     </g>
    </g>
    <g id="ytick_6">
     <g id="line2d_21">
      <path d="M 66.17 126.12472 
L 1429.2 126.12472 
" clip-path="url(#pf830f9a8dd)" style="fill: none; stroke: #b0b0b0; stroke-width: 0.8; stroke-linecap: square"/>
     </g>
     <g id="line2d_22">
      <g>
       <use xlink:href="#md7e3a92377" x="66.17" y="126.12472" style="stroke: #000000; stroke-width: 0.8"/>
      </g>
     </g>
     <g id="text_12">
      <!-- 250 -->
      <g transform="translate(40.0825 129.923938) scale(0.1 -0.1)">
       <use xlink:href="#DejaVuSans-32"/>
       <use xlink:href="#DejaVuSans-35" x="63.623047"/>
       <use xlink:href="#DejaVuSans-30" x="127.246094"/>
      </g>
     </g>
    </g>
    <g id="text_13">
     <!-- Distance (cm) -->
     <g transform="translate(31.923125 388.565313) rotate(-90) scale(0.2 -0.2)">
      <defs>
       <path id="DejaVuSans-44" d="M 1259 4147 
L 1259 519 
L 2022 519 
Q 2988 519 3436 956 
Q 3884 1394 3884 2338 
Q 3884 3275 3436 3711 
Q 2988 4147 2022 4147 
L 1259 4147 
z
M 628 4666 
L 1925 4666 
Q 3281 4666 3915 4102 
Q 4550 3538 4550 2338 
Q 4550 1131 3912 565 
Q 3275 0 1925 0 
L 628 0 
L 628 4666 
z
" transform="scale(0.015625)"/>
       <path id="DejaVuSans-74" d="M 1172 4494 
L 1172 3500 
L 2356 3500 
L 2356 3053 
L 1172 3053 
L 1172 1153 
Q 1172 725 1289 603 
Q 1406 481 1766 481 
L 2356 481 
L 2356 0 
L 1766 0 
Q 1100 0 847 248 
Q 594 497 594 1153 
L 594 3053 
L 172 3053 
L 172 3500 
L 594 3500 
L 594 4494 
L 1172 4494 
z
" transform="scale(0.015625)"/>
       <path id="DejaVuSans-61" d="M 2194 1759 
Q 1497 1759 1228 1600 
Q 959 1441 959 1056 
Q 959 750 1161 570 
Q 1363 391 1709 391 
Q 2188 391 2477 730 
Q 2766 1069 2766 1631 
L 2766 1759 
L 2194 1759 
z
M 3341 1997 
L 3341 0 
L 2766 0 
L 2766 531 
Q 2569 213 2275 61 
Q 1981 -91 1556 -91 
Q 1019 -91 701 211 
Q 384 513 384 1019 
Q 384 1609 779 1909 
Q 1175 2209 1959 2209 
L 2766 2209 
L 2766 2266 
Q 2766 2663 2505 2880 
Q 2244 3097 1772 3097 
Q 1472 3097 1187 3025 
Q 903 2953 641 2809 
L 641 3341 
Q 956 3463 1253 3523 
Q 1550 3584 1831 3584 
Q 2591 3584 2966 3190 
Q 3341 2797 3341 1997 
z
" transform="scale(0.015625)"/>
       <path id="DejaVuSans-6e" d="M 3513 2113 
L 3513 0 
L 2938 0 
L 2938 2094 
Q 2938 2591 2744 2837 
Q 2550 3084 2163 3084 
Q 1697 3084 1428 2787 
Q 1159 2491 1159 1978 
L 1159 0 
L 581 0 
L 581 3500 
L 1159 3500 
L 1159 2956 
Q 1366 3272 1645 3428 
Q 1925 3584 2291 3584 
Q 2894 3584 3203 3211 
Q 3513 2838 3513 2113 
z
" transform="scale(0.015625)"/>
       <path id="DejaVuSans-63" d="M 3122 3366 
L 3122 2828 
Q 2878 2963 2633 3030 
Q 2388 3097 2138 3097 
Q 1578 3097 1268 2742 
Q 959 2388 959 1747 
Q 959 1106 1268 751 
Q 1578 397 2138 397 
Q 2388 397 2633 464 
Q 2878 531 3122 666 
L 3122 134 
Q 2881 22 2623 -34 
Q 2366 -91 2075 -91 
Q 1284 -91 818 406 
Q 353 903 353 1747 
Q 353 2603 823 3093 
Q 1294 3584 2113 3584 
Q 2378 3584 2631 3529 
Q 2884 3475 3122 3366 
z
" transform="scale(0.015625)"/>
      </defs>
      <use xlink:href="#DejaVuSans-44"/>
      <use xlink:href="#DejaVuSans-69" x="77.001953"/>
      <use xlink:href="#DejaVuSans-73" x="104.785156"/>
      <use xlink:href="#DejaVuSans-74" x="156.884766"/>
      <use xlink:href="#DejaVuSans-61" x="196.09375"/>
      <use xlink:href="#DejaVuSans-6e" x="257.373047"/>
      <use xlink:href="#DejaVuSans-63" x="320.751953"/>
      <use xlink:href="#DejaVuSans-65" x="375.732422"/>
      <use xlink:href="#DejaVuSans-20" x="437.255859"/>
      <use xlink:href="#DejaVuSans-28" x="469.042969"/>
      <use xlink:href="#DejaVuSans-63" x="508.056641"/>
      <use xlink:href="#DejaVuSans-6d" x="563.037109"/>
      <use xlink:href="#DejaVuSans-29" x="660.449219"/>
     </g>
    </g>
   </g>
   <g id="line2d_23">
    <path d="M 128.125909 390.497224 
L 134.47443 390.002201 
L 139.327348 390.002201 
L 143.264081 389.012157 
L 148.006082 389.012157 
L 152.126681 387.52709 
L 157.238241 388.517135 
L 162.007866 390.002201 
L 167.298139 393.269348 
L 170.714435 390.893241 
L 175.267092 390.497224 
L 179.458735 389.012157 
L 183.260801 390.497224 
L 187.616305 388.517135 
L 192.116135 391.586272 
L 201.791962 390.497224 
L 222.310144 393.665366 
L 227.114475 393.665366 
L 232.078794 395.249437 
L 236.590824 395.54645 
L 241.568017 397.427534 
L 246.974481 397.229526 
L 251.659046 397.625543 
L 256.383456 395.942468 
L 261.77341 394.160388 
L 266.11901 396.635499 
L 270.779669 393.962379 
L 275.461454 400.100654 
L 280.223194 401.981739 
L 285.179199 402.872779 
L 295.348281 406.23893 
L 300.315353 405.941916 
L 305.793555 408.615036 
L 311.178249 411.090147 
L 316.73566 411.387161 
L 322.094652 410.298112 
L 328.027794 408.91205 
L 334.054805 411.585169 
L 339.052165 413.16924 
L 343.851922 413.070236 
L 348.959248 413.16924 
L 359.570102 407.922005 
L 365.186146 408.615036 
L 370.760638 401.387712 
L 376.854609 398.516583 
L 382.062812 398.714592 
L 387.934534 393.962379 
L 392.939935 511.183636 
L 408.253537 511.183636 
L 412.748581 391.388264 
L 417.752765 391.190255 
L 423.218726 383.863926 
L 428.075383 384.655962 
L 432.952989 322.18416 
L 437.511023 511.183636 
L 442.709961 149.025394 
L 447.297713 151.104487 
L 453.441141 315.550862 
L 457.993934 165.460131 
L 462.560356 381.48782 
L 477.126942 384.952975 
L 481.714123 382.576868 
L 486.169362 385.745011 
L 500.760085 386.537046 
L 506.295745 385.447997 
L 510.933504 386.537046 
L 515.680059 393.467357 
L 520.172976 393.269348 
L 524.774403 395.744459 
L 529.860127 395.249437 
L 534.713644 393.665366 
L 539.602159 391.190255 
L 544.506934 391.190255 
L 549.469811 389.210166 
L 554.146437 394.358397 
L 558.759576 393.269348 
L 563.927179 394.358397 
L 568.871378 394.358397 
L 573.738033 394.853419 
L 578.598565 394.853419 
L 583.458076 392.081295 
L 588.622199 395.942468 
L 593.494891 396.338486 
L 598.469317 394.160388 
L 603.188813 393.467357 
L 608.129028 398.318574 
L 612.955539 400.991694 
L 617.718387 397.823552 
L 622.641732 395.942468 
L 628.845553 393.269348 
L 633.533142 394.160388 
L 638.456011 395.942468 
L 643.288762 394.358397 
L 648.518173 511.183636 
L 653.40554 392.576317 
L 658.928747 393.665366 
L 664.211502 184.072966 
L 669.210948 391.388264 
L 674.474637 187.538121 
L 679.524173 159.42086 
L 685.142759 126.056364 
L 721.88877 426.930858 
L 726.772385 426.435835 
L 731.659894 428.811942 
L 788.708425 413.16924 
L 793.562207 413.070236 
L 799.06019 409.902094 
L 804.529298 410.595125 
L 810.23656 413.070236 
L 815.429728 413.961276 
L 820.62796 410.298112 
L 826.017309 409.407072 
L 830.958272 409.407072 
L 836.53513 404.753863 
L 842.229559 399.506628 
L 847.970577 399.902645 
L 853.074429 392.576317 
L 858.286778 511.183636 
L 863.644371 511.183636 
L 868.892358 142.392096 
L 874.063917 142.392096 
L 879.372577 171.202388 
L 884.259162 159.42086 
L 889.032634 163.480042 
L 893.683865 511.183636 
L 898.603703 511.183636 
L 903.679835 382.774877 
L 908.666795 385.745011 
L 913.516043 386.240033 
L 918.368955 391.586272 
L 922.956707 392.378308 
L 927.413285 384.457953 
L 932.655631 384.457953 
L 937.263169 377.428638 
L 941.728333 372.874433 
L 946.571015 367.033171 
L 951.435019 377.725651 
L 956.243885 379.210717 
L 960.773194 383.368904 
L 965.572904 383.368904 
L 975.046554 390.497224 
L 989.075187 392.576317 
L 993.656053 387.725099 
L 998.621832 384.655962 
L 1003.508356 383.368904 
L 1008.2925 382.576868 
L 1012.967787 383.566913 
L 1026.776576 393.467357 
L 1032.244264 393.665366 
L 1037.4646 393.665366 
L 1042.298466 511.183636 
L 1047.535441 185.756041 
L 1052.440406 184.072966 
L 1057.282816 385.150984 
L 1062.009034 385.447997 
L 1075.65989 390.695233 
L 1081.051809 390.695233 
L 1085.657933 392.378308 
L 1090.328224 388.517135 
L 1094.978632 386.537046 
L 1099.849088 511.183636 
L 1109.519049 511.183636 
L 1114.381225 389.012157 
L 1129.094169 390.695233 
L 1134.194351 390.893241 
L 1155.420532 384.952975 
L 1166.533111 387.230077 
L 1171.445233 390.695233 
L 1176.270168 391.190255 
L 1180.944652 390.20021 
L 1199.764137 390.695233 
L 1253.589441 146.847296 
L 1258.282529 146.847296 
L 1262.769621 155.361678 
L 1267.64915 161.499953 
L 1272.300816 386.735055 
L 1281.776193 394.853419 
L 1286.452492 394.65541 
L 1291.778532 405.743907 
L 1296.49 412.080192 
L 1301.645905 412.080192 
L 1306.469609 417.426431 
L 1311.640869 418.317471 
L 1316.303452 418.119462 
L 1321.100463 416.7334 
L 1325.88978 416.7334 
L 1332.142439 169.321304 
L 1337.043529 167.44022 
L 1341.746338 412.575214 
L 1355.857828 426.930858 
L 1361.556499 429.702982 
L 1367.244091 429.702982 
L 1367.244091 429.702982 
" clip-path="url(#pf830f9a8dd)" style="fill: none; stroke: #1f77b4; stroke-width: 1.5; stroke-linecap: square"/>
   </g>
   <g id="line2d_24">
    <path d="M 128.125909 388.517135 
L 134.379921 388.517135 
L 138.991463 387.230077 
L 143.964645 387.230077 
L 148.661254 388.220122 
L 152.248358 388.022113 
L 156.131243 387.230077 
L 160.502014 393.269348 
L 164.990682 392.576317 
L 169.671746 393.467357 
L 174.079085 393.071339 
L 178.782757 388.220122 
L 183.783175 386.735055 
L 188.00907 384.160939 
L 192.506744 384.952975 
L 196.658515 383.863926 
L 200.878305 380.59678 
L 205.108875 380.299766 
L 209.746791 381.48782 
L 219.976273 382.576868 
L 224.55981 383.368904 
L 233.614003 383.368904 
L 236.792056 382.576868 
L 245.470043 382.279855 
L 249.967894 382.774877 
L 254.232811 383.368904 
L 267.537029 381.190806 
L 274.98683 380.893793 
L 278.955197 381.982842 
L 283.489557 382.774877 
L 287.822215 382.774877 
L 304.08227 379.804744 
L 308.851889 382.279855 
L 313.621711 384.952975 
L 318.359104 384.457953 
L 323.213076 383.566913 
L 328.414509 383.863926 
L 333.087178 384.952975 
L 337.769949 384.952975 
L 342.287729 384.457953 
L 347.201619 384.952975 
L 351.997686 386.240033 
L 356.674515 385.447997 
L 361.379743 385.150984 
L 365.811784 385.447997 
L 370.271965 386.240033 
L 375.18544 385.447997 
L 384.288036 385.447997 
L 388.785364 384.160939 
L 393.440028 384.160939 
L 397.9355 386.240033 
L 402.619541 386.735055 
L 407.344359 386.537046 
L 411.692005 385.447997 
L 416.457681 382.774877 
L 420.997472 383.368904 
L 425.612337 384.655962 
L 430.131369 384.655962 
L 434.667401 385.745011 
L 439.567363 385.447997 
L 444.807873 389.507179 
L 449.581121 391.388264 
L 454.005821 391.388264 
L 459.482107 390.497224 
L 464.093424 390.497224 
L 468.89673 387.52709 
L 473.593346 137.837892 
L 478.441744 384.457953 
L 483.246253 385.150984 
L 488.433425 393.071339 
L 493.316714 393.467357 
L 498.188814 390.695233 
L 503.73832 511.183636 
L 508.787379 380.59678 
L 518.101281 387.52709 
L 522.843003 387.725099 
L 527.442242 389.012157 
L 531.790704 389.012157 
L 536.758496 386.735055 
L 550.633321 384.457953 
L 555.485016 383.368904 
L 560.015895 384.457953 
L 569.264781 386.240033 
L 574.139376 385.745011 
L 578.671139 386.537046 
L 583.626362 386.537046 
L 588.399407 386.735055 
L 593.560804 385.447997 
L 618.921239 395.744459 
L 623.920985 395.942468 
L 629.140288 395.942468 
L 634.27417 399.308619 
L 639.305359 399.506628 
L 654.215919 397.625543 
L 659.41133 400.298663 
L 664.404217 391.190255 
L 669.746564 394.160388 
L 674.537423 511.183636 
L 679.581935 389.210166 
L 684.511894 385.447997 
L 689.960671 382.774877 
L 694.726001 383.863926 
L 699.350274 380.299766 
L 713.861394 135.56079 
L 718.311298 137.837892 
L 736.538071 385.943019 
L 741.371074 382.576868 
L 745.840527 383.863926 
L 750.558085 511.183636 
L 781.477101 387.230077 
L 819.668279 353.568567 
L 895.197908 380.59678 
L 900.20231 380.59678 
L 936.537279 385.447997 
L 945.848258 326.243342 
L 955.566316 401.981739 
L 960.082548 401.981739 
L 964.831373 401.189703 
L 969.923303 394.160388 
L 974.83011 396.338486 
L 980.479657 402.872779 
L 985.695208 404.060832 
L 990.71523 393.071339 
L 996.354112 185.756041 
L 1001.44509 386.537046 
L 1006.284822 176.845642 
L 1011.204048 171.202388 
L 1016.651982 398.516583 
L 1021.629324 171.202388 
L 1027.615022 408.615036 
L 1032.471407 413.862272 
L 1069.11028 221.39764 
L 1074.876237 174.964557 
L 1079.975895 221.39764 
L 1085.153164 410.793134 
L 1096.871839 425.148778 
L 1102.704734 430.792031 
L 1108.164938 432.475106 
L 1114.07864 436.633293 
L 1114.07864 436.633293 
" clip-path="url(#pf830f9a8dd)" style="fill: none; stroke: #ff7f0e; stroke-width: 1.5; stroke-linecap: square"/>
   </g>
   <g id="line2d_25">
    <path d="M 128.125909 391.388264 
L 134.028368 390.695233 
L 138.349002 390.695233 
L 141.740284 390.497224 
L 146.299413 390.497224 
L 149.5511 391.586272 
L 153.808771 391.586272 
L 161.510465 392.378308 
L 165.844251 392.378308 
L 170.447487 393.962379 
L 174.552764 395.249437 
L 178.694678 395.54645 
L 182.848033 387.032068 
L 187.589239 393.071339 
L 191.759287 390.002201 
L 196.394299 390.20021 
L 199.687266 385.943019 
L 204.77174 385.943019 
L 210.487077 387.725099 
L 214.718647 387.230077 
L 218.965049 390.497224 
L 222.129052 389.507179 
L 228.791557 390.695233 
L 232.970672 390.002201 
L 237.242373 391.388264 
L 242.445777 389.210166 
L 246.778157 388.022113 
L 255.02282 388.517135 
L 263.093555 392.774326 
L 266.777479 387.725099 
L 271.426609 394.358397 
L 275.985425 393.467357 
L 280.564612 395.744459 
L 284.729087 398.714592 
L 288.976943 398.714592 
L 293.18131 395.942468 
L 297.905122 395.942468 
L 302.519845 394.358397 
L 307.039604 394.65541 
L 315.601963 394.160388 
L 320.172422 393.467357 
L 325.189167 389.705188 
L 334.789607 392.774326 
L 339.413044 392.576317 
L 344.073546 391.883286 
L 348.748377 391.388264 
L 353.477382 392.774326 
L 358.334236 394.358397 
L 363.313264 394.358397 
L 368.151677 385.150984 
L 372.787335 391.883286 
L 377.917622 378.022664 
L 382.745336 374.755518 
L 391.760703 392.378308 
L 396.61216 392.576317 
L 401.497352 394.358397 
L 406.86977 393.269348 
L 411.735073 393.269348 
L 416.9553 393.962379 
L 421.9763 393.665366 
L 426.696537 387.032068 
L 431.435486 390.20021 
L 436.150577 371.290362 
L 464.874617 393.269348 
L 469.483603 395.54645 
L 505.134716 395.051428 
L 515.107222 389.507179 
L 519.856993 375.349544 
L 534.114223 379.210717 
L 538.677776 380.002753 
L 568.138636 402.476761 
L 572.928109 402.67477 
L 578.354585 402.67477 
L 588.383284 403.664814 
L 613.18324 399.506628 
L 618.408701 393.665366 
L 623.672859 395.249437 
L 628.371528 511.183636 
L 642.350805 384.655962 
L 651.122152 388.715144 
L 656.152091 388.715144 
L 660.906123 375.943571 
L 670.040714 367.330185 
L 674.632075 369.706291 
L 679.187336 371.587376 
L 719.696771 370.003305 
L 743.457791 393.665366 
L 781.275991 389.507179 
L 791.386773 192.587348 
L 795.977182 190.904272 
L 800.795938 372.874433 
L 810.226657 379.507731 
L 814.747252 379.804744 
L 819.340849 381.190806 
L 823.902261 383.071891 
L 828.498143 385.150984 
L 833.4912 386.240033 
L 838.38238 388.022113 
L 842.777715 385.943019 
L 847.533427 378.022664 
L 852.246961 380.299766 
L 857.167036 226.842884 
L 861.794368 511.183636 
L 866.425676 161.499953 
L 880.911334 511.183636 
L 885.885318 511.183636 
L 890.745775 390.497224 
L 895.608624 392.774326 
L 899.959948 395.249437 
L 904.552396 376.537598 
L 909.431158 380.893793 
L 914.461973 374.755518 
L 920.33029 374.755518 
L 925.475673 376.240584 
L 930.251382 378.913704 
L 935.297267 369.01326 
L 940.009462 370.696336 
L 944.729284 375.943571 
L 949.324322 387.032068 
L 954.068043 395.942468 
L 959.286191 402.476761 
L 964.519006 407.12997 
L 969.995768 412.674218 
L 974.63038 412.872227 
L 983.926303 414.95132 
L 988.850626 416.832405 
L 993.364519 415.347338 
L 993.364519 415.347338 
" clip-path="url(#pf830f9a8dd)" style="fill: none; stroke: #2ca02c; stroke-width: 1.5; stroke-linecap: square"/>
   </g>
   <g id="patch_3">
    <path d="M 66.17 530.44 
L 66.17 106.8 
" style="fill: none; stroke: #000000; stroke-width: 0.8; stroke-linejoin: miter; stroke-linecap: square"/>
   </g>
   <g id="patch_4">
    <path d="M 1429.2 530.44 
L 1429.2 106.8 
" style="fill: none; stroke: #000000; stroke-width: 0.8; stroke-linejoin: miter; stroke-linecap: square"/>
   </g>
   <g id="patch_5">
    <path d="M 66.17 530.44 
L 1429.2 530.44 
" style="fill: none; stroke: #000000; stroke-width: 0.8; stroke-linejoin: miter; stroke-linecap: square"/>
   </g>
   <g id="patch_6">
    <path d="M 66.17 106.8 
L 1429.2 106.8 
" style="fill: none; stroke: #000000; stroke-width: 0.8; stroke-linejoin: miter; stroke-linecap: square"/>
   </g>
   <g id="text_14">
    <!-- Distance to object -->
    <g transform="translate(656.7475 100.8) scale(0.2 -0.2)">
     <defs>
      <path id="DejaVuSans-6f" d="M 1959 3097 
Q 1497 3097 1228 2736 
Q 959 2375 959 1747 
Q 959 1119 1226 758 
Q 1494 397 1959 397 
Q 2419 397 2687 759 
Q 2956 1122 2956 1747 
Q 2956 2369 2687 2733 
Q 2419 3097 1959 3097 
z
M 1959 3584 
Q 2709 3584 3137 3096 
Q 3566 2609 3566 1747 
Q 3566 888 3137 398 
Q 2709 -91 1959 -91 
Q 1206 -91 779 398 
Q 353 888 353 1747 
Q 353 2609 779 3096 
Q 1206 3584 1959 3584 
z
" transform="scale(0.015625)"/>
      <path id="DejaVuSans-62" d="M 3116 1747 
Q 3116 2381 2855 2742 
Q 2594 3103 2138 3103 
Q 1681 3103 1420 2742 
Q 1159 2381 1159 1747 
Q 1159 1113 1420 752 
Q 1681 391 2138 391 
Q 2594 391 2855 752 
Q 3116 1113 3116 1747 
z
M 1159 2969 
Q 1341 3281 1617 3432 
Q 1894 3584 2278 3584 
Q 2916 3584 3314 3078 
Q 3713 2572 3713 1747 
Q 3713 922 3314 415 
Q 2916 -91 2278 -91 
Q 1894 -91 1617 61 
Q 1341 213 1159 525 
L 1159 0 
L 581 0 
L 581 4863 
L 1159 4863 
L 1159 2969 
z
" transform="scale(0.015625)"/>
      <path id="DejaVuSans-6a" d="M 603 3500 
L 1178 3500 
L 1178 -63 
Q 1178 -731 923 -1031 
Q 669 -1331 103 -1331 
L -116 -1331 
L -116 -844 
L 38 -844 
Q 366 -844 484 -692 
Q 603 -541 603 -63 
L 603 3500 
z
M 603 4863 
L 1178 4863 
L 1178 4134 
L 603 4134 
L 603 4863 
z
" transform="scale(0.015625)"/>
     </defs>
     <use xlink:href="#DejaVuSans-44"/>
     <use xlink:href="#DejaVuSans-69" x="77.001953"/>
     <use xlink:href="#DejaVuSans-73" x="104.785156"/>
     <use xlink:href="#DejaVuSans-74" x="156.884766"/>
     <use xlink:href="#DejaVuSans-61" x="196.09375"/>
     <use xlink:href="#DejaVuSans-6e" x="257.373047"/>
     <use xlink:href="#DejaVuSans-63" x="320.751953"/>
     <use xlink:href="#DejaVuSans-65" x="375.732422"/>
     <use xlink:href="#DejaVuSans-20" x="437.255859"/>
     <use xlink:href="#DejaVuSans-74" x="469.042969"/>
     <use xlink:href="#DejaVuSans-6f" x="508.251953"/>
     <use xlink:href="#DejaVuSans-20" x="569.433594"/>
     <use xlink:href="#DejaVuSans-6f" x="601.220703"/>
     <use xlink:href="#DejaVuSans-62" x="662.402344"/>
     <use xlink:href="#DejaVuSans-6a" x="725.878906"/>
     <use xlink:href="#DejaVuSans-65" x="753.662109"/>
     <use xlink:href="#DejaVuSans-63" x="815.185547"/>
     <use xlink:href="#DejaVuSans-74" x="870.166016"/>
    </g>
   </g>
   <g id="legend_1">
    <g id="patch_7">
     <path d="M 1361.485938 158.834375 
L 1422.2 158.834375 
Q 1424.2 158.834375 1424.2 156.834375 
L 1424.2 113.8 
Q 1424.2 111.8 1422.2 111.8 
L 1361.485938 111.8 
Q 1359.485938 111.8 1359.485938 113.8 
L 1359.485938 156.834375 
Q 1359.485938 158.834375 1361.485938 158.834375 
z
" style="fill: #ffffff; opacity: 0.8; stroke: #cccccc; stroke-linejoin: miter"/>
    </g>
    <g id="line2d_26">
     <path d="M 1363.485938 119.898438 
L 1373.485938 119.898438 
L 1383.485938 119.898438 
" style="fill: none; stroke: #1f77b4; stroke-width: 1.5; stroke-linecap: square"/>
    </g>
    <g id="text_15">
     <!-- Run 1 -->
     <g transform="translate(1391.485938 123.398438) scale(0.1 -0.1)">
      <defs>
       <path id="DejaVuSans-52" d="M 2841 2188 
Q 3044 2119 3236 1894 
Q 3428 1669 3622 1275 
L 4263 0 
L 3584 0 
L 2988 1197 
Q 2756 1666 2539 1819 
Q 2322 1972 1947 1972 
L 1259 1972 
L 1259 0 
L 628 0 
L 628 4666 
L 2053 4666 
Q 2853 4666 3247 4331 
Q 3641 3997 3641 3322 
Q 3641 2881 3436 2590 
Q 3231 2300 2841 2188 
z
M 1259 4147 
L 1259 2491 
L 2053 2491 
Q 2509 2491 2742 2702 
Q 2975 2913 2975 3322 
Q 2975 3731 2742 3939 
Q 2509 4147 2053 4147 
L 1259 4147 
z
" transform="scale(0.015625)"/>
       <path id="DejaVuSans-75" d="M 544 1381 
L 544 3500 
L 1119 3500 
L 1119 1403 
Q 1119 906 1312 657 
Q 1506 409 1894 409 
Q 2359 409 2629 706 
Q 2900 1003 2900 1516 
L 2900 3500 
L 3475 3500 
L 3475 0 
L 2900 0 
L 2900 538 
Q 2691 219 2414 64 
Q 2138 -91 1772 -91 
Q 1169 -91 856 284 
Q 544 659 544 1381 
z
M 1991 3584 
L 1991 3584 
z
" transform="scale(0.015625)"/>
      </defs>
      <use xlink:href="#DejaVuSans-52"/>
      <use xlink:href="#DejaVuSans-75" x="64.982422"/>
      <use xlink:href="#DejaVuSans-6e" x="128.361328"/>
      <use xlink:href="#DejaVuSans-20" x="191.740234"/>
      <use xlink:href="#DejaVuSans-31" x="223.527344"/>
     </g>
    </g>
    <g id="line2d_27">
     <path d="M 1363.485938 134.576563 
L 1373.485938 134.576563 
L 1383.485938 134.576563 
" style="fill: none; stroke: #ff7f0e; stroke-width: 1.5; stroke-linecap: square"/>
    </g>
    <g id="text_16">
     <!-- Run 2 -->
     <g transform="translate(1391.485938 138.076563) scale(0.1 -0.1)">
      <use xlink:href="#DejaVuSans-52"/>
      <use xlink:href="#DejaVuSans-75" x="64.982422"/>
      <use xlink:href="#DejaVuSans-6e" x="128.361328"/>
      <use xlink:href="#DejaVuSans-20" x="191.740234"/>
      <use xlink:href="#DejaVuSans-32" x="223.527344"/>
     </g>
    </g>
    <g id="line2d_28">
     <path d="M 1363.485938 149.254688 
L 1373.485938 149.254688 
L 1383.485938 149.254688 
" style="fill: none; stroke: #2ca02c; stroke-width: 1.5; stroke-linecap: square"/>
    </g>
    <g id="text_17">
     <!-- Run 3 -->
     <g transform="translate(1391.485938 152.754688) scale(0.1 -0.1)">
      <use xlink:href="#DejaVuSans-52"/>
      <use xlink:href="#DejaVuSans-75" x="64.982422"/>
      <use xlink:href="#DejaVuSans-6e" x="128.361328"/>
      <use xlink:href="#DejaVuSans-20" x="191.740234"/>
      <use xlink:href="#DejaVuSans-33" x="223.527344"/>
     </g>
    </g>
   </g>
  </g>
  <g id="axes_2">
   <g id="patch_8">
    <path d="M 66.17 1027.96 
L 1429.2 1027.96 
L 1429.2 604.32 
L 66.17 604.32 
z
" style="fill: #ffffff"/>
   </g>
   <g id="matplotlib.axis_3">
    <g id="xtick_6">
     <g id="line2d_29">
      <path d="M 128.125909 1027.96 
L 128.125909 604.32 
" clip-path="url(#p4fc6fa93cd)" style="fill: none; stroke: #b0b0b0; stroke-width: 0.8; stroke-linecap: square"/>
     </g>
     <g id="line2d_30">
      <g>
       <use xlink:href="#ma7bc50c5e6" x="128.125909" y="1027.96" style="stroke: #000000; stroke-width: 0.8"/>
      </g>
     </g>
     <g id="text_18">
      <!-- 0 -->
      <g transform="translate(124.944659 1042.558437) scale(0.1 -0.1)">
       <use xlink:href="#DejaVuSans-30"/>
      </g>
     </g>
    </g>
    <g id="xtick_7">
     <g id="line2d_31">
      <path d="M 413.222525 1027.96 
L 413.222525 604.32 
" clip-path="url(#p4fc6fa93cd)" style="fill: none; stroke: #b0b0b0; stroke-width: 0.8; stroke-linecap: square"/>
     </g>
     <g id="line2d_32">
      <g>
       <use xlink:href="#ma7bc50c5e6" x="413.222525" y="1027.96" style="stroke: #000000; stroke-width: 0.8"/>
      </g>
     </g>
     <g id="text_19">
      <!-- 10 -->
      <g transform="translate(406.860025 1042.558437) scale(0.1 -0.1)">
       <use xlink:href="#DejaVuSans-31"/>
       <use xlink:href="#DejaVuSans-30" x="63.623047"/>
      </g>
     </g>
    </g>
    <g id="xtick_8">
     <g id="line2d_33">
      <path d="M 698.31914 1027.96 
L 698.31914 604.32 
" clip-path="url(#p4fc6fa93cd)" style="fill: none; stroke: #b0b0b0; stroke-width: 0.8; stroke-linecap: square"/>
     </g>
     <g id="line2d_34">
      <g>
       <use xlink:href="#ma7bc50c5e6" x="698.31914" y="1027.96" style="stroke: #000000; stroke-width: 0.8"/>
      </g>
     </g>
     <g id="text_20">
      <!-- 20 -->
      <g transform="translate(691.95664 1042.558437) scale(0.1 -0.1)">
       <use xlink:href="#DejaVuSans-32"/>
       <use xlink:href="#DejaVuSans-30" x="63.623047"/>
      </g>
     </g>
    </g>
    <g id="xtick_9">
     <g id="line2d_35">
      <path d="M 983.415756 1027.96 
L 983.415756 604.32 
" clip-path="url(#p4fc6fa93cd)" style="fill: none; stroke: #b0b0b0; stroke-width: 0.8; stroke-linecap: square"/>
     </g>
     <g id="line2d_36">
      <g>
       <use xlink:href="#ma7bc50c5e6" x="983.415756" y="1027.96" style="stroke: #000000; stroke-width: 0.8"/>
      </g>
     </g>
     <g id="text_21">
      <!-- 30 -->
      <g transform="translate(977.053256 1042.558437) scale(0.1 -0.1)">
       <use xlink:href="#DejaVuSans-33"/>
       <use xlink:href="#DejaVuSans-30" x="63.623047"/>
      </g>
     </g>
    </g>
    <g id="xtick_10">
     <g id="line2d_37">
      <path d="M 1268.512372 1027.96 
L 1268.512372 604.32 
" clip-path="url(#p4fc6fa93cd)" style="fill: none; stroke: #b0b0b0; stroke-width: 0.8; stroke-linecap: square"/>
     </g>
     <g id="line2d_38">
      <g>
       <use xlink:href="#ma7bc50c5e6" x="1268.512372" y="1027.96" style="stroke: #000000; stroke-width: 0.8"/>
      </g>
     </g>
     <g id="text_22">
      <!-- 40 -->
      <g transform="translate(1262.149872 1042.558437) scale(0.1 -0.1)">
       <use xlink:href="#DejaVuSans-34"/>
       <use xlink:href="#DejaVuSans-30" x="63.623047"/>
      </g>
     </g>
    </g>
    <g id="text_23">
     <!-- Time (s) -->
     <g transform="translate(707.027187 1063.835) scale(0.2 -0.2)">
      <use xlink:href="#DejaVuSans-54"/>
      <use xlink:href="#DejaVuSans-69" x="57.958984"/>
      <use xlink:href="#DejaVuSans-6d" x="85.742188"/>
      <use xlink:href="#DejaVuSans-65" x="183.154297"/>
      <use xlink:href="#DejaVuSans-20" x="244.677734"/>
      <use xlink:href="#DejaVuSans-28" x="276.464844"/>
      <use xlink:href="#DejaVuSans-73" x="315.478516"/>
      <use xlink:href="#DejaVuSans-29" x="367.578125"/>
     </g>
    </g>
   </g>
   <g id="matplotlib.axis_4">
    <g id="ytick_7">
     <g id="line2d_39">
      <path d="M 66.17 1015.607754 
L 1429.2 1015.607754 
" clip-path="url(#p4fc6fa93cd)" style="fill: none; stroke: #b0b0b0; stroke-width: 0.8; stroke-linecap: square"/>
     </g>
     <g id="line2d_40">
      <g>
       <use xlink:href="#md7e3a92377" x="66.17" y="1015.607754" style="stroke: #000000; stroke-width: 0.8"/>
      </g>
     </g>
     <g id="text_24">
      <!-- −0.4 -->
      <g transform="translate(34.887187 1019.406973) scale(0.1 -0.1)">
       <defs>
        <path id="DejaVuSans-2212" d="M 678 2272 
L 4684 2272 
L 4684 1741 
L 678 1741 
L 678 2272 
z
" transform="scale(0.015625)"/>
        <path id="DejaVuSans-2e" d="M 684 794 
L 1344 794 
L 1344 0 
L 684 0 
L 684 794 
z
" transform="scale(0.015625)"/>
       </defs>
       <use xlink:href="#DejaVuSans-2212"/>
       <use xlink:href="#DejaVuSans-30" x="83.789062"/>
       <use xlink:href="#DejaVuSans-2e" x="147.412109"/>
       <use xlink:href="#DejaVuSans-34" x="179.199219"/>
      </g>
     </g>
    </g>
    <g id="ytick_8">
     <g id="line2d_41">
      <path d="M 66.17 966.517282 
L 1429.2 966.517282 
" clip-path="url(#p4fc6fa93cd)" style="fill: none; stroke: #b0b0b0; stroke-width: 0.8; stroke-linecap: square"/>
     </g>
     <g id="line2d_42">
      <g>
       <use xlink:href="#md7e3a92377" x="66.17" y="966.517282" style="stroke: #000000; stroke-width: 0.8"/>
      </g>
     </g>
     <g id="text_25">
      <!-- −0.3 -->
      <g transform="translate(34.887187 970.316501) scale(0.1 -0.1)">
       <use xlink:href="#DejaVuSans-2212"/>
       <use xlink:href="#DejaVuSans-30" x="83.789062"/>
       <use xlink:href="#DejaVuSans-2e" x="147.412109"/>
       <use xlink:href="#DejaVuSans-33" x="179.199219"/>
      </g>
     </g>
    </g>
    <g id="ytick_9">
     <g id="line2d_43">
      <path d="M 66.17 917.42681 
L 1429.2 917.42681 
" clip-path="url(#p4fc6fa93cd)" style="fill: none; stroke: #b0b0b0; stroke-width: 0.8; stroke-linecap: square"/>
     </g>
     <g id="line2d_44">
      <g>
       <use xlink:href="#md7e3a92377" x="66.17" y="917.42681" style="stroke: #000000; stroke-width: 0.8"/>
      </g>
     </g>
     <g id="text_26">
      <!-- −0.2 -->
      <g transform="translate(34.887187 921.226028) scale(0.1 -0.1)">
       <use xlink:href="#DejaVuSans-2212"/>
       <use xlink:href="#DejaVuSans-30" x="83.789062"/>
       <use xlink:href="#DejaVuSans-2e" x="147.412109"/>
       <use xlink:href="#DejaVuSans-32" x="179.199219"/>
      </g>
     </g>
    </g>
    <g id="ytick_10">
     <g id="line2d_45">
      <path d="M 66.17 868.336337 
L 1429.2 868.336337 
" clip-path="url(#p4fc6fa93cd)" style="fill: none; stroke: #b0b0b0; stroke-width: 0.8; stroke-linecap: square"/>
     </g>
     <g id="line2d_46">
      <g>
       <use xlink:href="#md7e3a92377" x="66.17" y="868.336337" style="stroke: #000000; stroke-width: 0.8"/>
      </g>
     </g>
     <g id="text_27">
      <!-- −0.1 -->
      <g transform="translate(34.887187 872.135556) scale(0.1 -0.1)">
       <use xlink:href="#DejaVuSans-2212"/>
       <use xlink:href="#DejaVuSans-30" x="83.789062"/>
       <use xlink:href="#DejaVuSans-2e" x="147.412109"/>
       <use xlink:href="#DejaVuSans-31" x="179.199219"/>
      </g>
     </g>
    </g>
    <g id="ytick_11">
     <g id="line2d_47">
      <path d="M 66.17 819.245865 
L 1429.2 819.245865 
" clip-path="url(#p4fc6fa93cd)" style="fill: none; stroke: #b0b0b0; stroke-width: 0.8; stroke-linecap: square"/>
     </g>
     <g id="line2d_48">
      <g>
       <use xlink:href="#md7e3a92377" x="66.17" y="819.245865" style="stroke: #000000; stroke-width: 0.8"/>
      </g>
     </g>
     <g id="text_28">
      <!-- 0.0 -->
      <g transform="translate(43.266875 823.045084) scale(0.1 -0.1)">
       <use xlink:href="#DejaVuSans-30"/>
       <use xlink:href="#DejaVuSans-2e" x="63.623047"/>
       <use xlink:href="#DejaVuSans-30" x="95.410156"/>
      </g>
     </g>
    </g>
    <g id="ytick_12">
     <g id="line2d_49">
      <path d="M 66.17 770.155393 
L 1429.2 770.155393 
" clip-path="url(#p4fc6fa93cd)" style="fill: none; stroke: #b0b0b0; stroke-width: 0.8; stroke-linecap: square"/>
     </g>
     <g id="line2d_50">
      <g>
       <use xlink:href="#md7e3a92377" x="66.17" y="770.155393" style="stroke: #000000; stroke-width: 0.8"/>
      </g>
     </g>
     <g id="text_29">
      <!-- 0.1 -->
      <g transform="translate(43.266875 773.954612) scale(0.1 -0.1)">
       <use xlink:href="#DejaVuSans-30"/>
       <use xlink:href="#DejaVuSans-2e" x="63.623047"/>
       <use xlink:href="#DejaVuSans-31" x="95.410156"/>
      </g>
     </g>
    </g>
    <g id="ytick_13">
     <g id="line2d_51">
      <path d="M 66.17 721.06492 
L 1429.2 721.06492 
" clip-path="url(#p4fc6fa93cd)" style="fill: none; stroke: #b0b0b0; stroke-width: 0.8; stroke-linecap: square"/>
     </g>
     <g id="line2d_52">
      <g>
       <use xlink:href="#md7e3a92377" x="66.17" y="721.06492" style="stroke: #000000; stroke-width: 0.8"/>
      </g>
     </g>
     <g id="text_30">
      <!-- 0.2 -->
      <g transform="translate(43.266875 724.864139) scale(0.1 -0.1)">
       <use xlink:href="#DejaVuSans-30"/>
       <use xlink:href="#DejaVuSans-2e" x="63.623047"/>
       <use xlink:href="#DejaVuSans-32" x="95.410156"/>
      </g>
     </g>
    </g>
    <g id="ytick_14">
     <g id="line2d_53">
      <path d="M 66.17 671.974448 
L 1429.2 671.974448 
" clip-path="url(#p4fc6fa93cd)" style="fill: none; stroke: #b0b0b0; stroke-width: 0.8; stroke-linecap: square"/>
     </g>
     <g id="line2d_54">
      <g>
       <use xlink:href="#md7e3a92377" x="66.17" y="671.974448" style="stroke: #000000; stroke-width: 0.8"/>
      </g>
     </g>
     <g id="text_31">
      <!-- 0.3 -->
      <g transform="translate(43.266875 675.773667) scale(0.1 -0.1)">
       <use xlink:href="#DejaVuSans-30"/>
       <use xlink:href="#DejaVuSans-2e" x="63.623047"/>
       <use xlink:href="#DejaVuSans-33" x="95.410156"/>
      </g>
     </g>
    </g>
    <g id="ytick_15">
     <g id="line2d_55">
      <path d="M 66.17 622.883976 
L 1429.2 622.883976 
" clip-path="url(#p4fc6fa93cd)" style="fill: none; stroke: #b0b0b0; stroke-width: 0.8; stroke-linecap: square"/>
     </g>
     <g id="line2d_56">
      <g>
       <use xlink:href="#md7e3a92377" x="66.17" y="622.883976" style="stroke: #000000; stroke-width: 0.8"/>
      </g>
     </g>
     <g id="text_32">
      <!-- 0.4 -->
      <g transform="translate(43.266875 626.683195) scale(0.1 -0.1)">
       <use xlink:href="#DejaVuSans-30"/>
       <use xlink:href="#DejaVuSans-2e" x="63.623047"/>
       <use xlink:href="#DejaVuSans-34" x="95.410156"/>
      </g>
     </g>
    </g>
    <g id="text_33">
     <!-- Angle error (rad) -->
     <g transform="translate(26.727812 899.549375) rotate(-90) scale(0.2 -0.2)">
      <defs>
       <path id="DejaVuSans-41" d="M 2188 4044 
L 1331 1722 
L 3047 1722 
L 2188 4044 
z
M 1831 4666 
L 2547 4666 
L 4325 0 
L 3669 0 
L 3244 1197 
L 1141 1197 
L 716 0 
L 50 0 
L 1831 4666 
z
" transform="scale(0.015625)"/>
       <path id="DejaVuSans-67" d="M 2906 1791 
Q 2906 2416 2648 2759 
Q 2391 3103 1925 3103 
Q 1463 3103 1205 2759 
Q 947 2416 947 1791 
Q 947 1169 1205 825 
Q 1463 481 1925 481 
Q 2391 481 2648 825 
Q 2906 1169 2906 1791 
z
M 3481 434 
Q 3481 -459 3084 -895 
Q 2688 -1331 1869 -1331 
Q 1566 -1331 1297 -1286 
Q 1028 -1241 775 -1147 
L 775 -588 
Q 1028 -725 1275 -790 
Q 1522 -856 1778 -856 
Q 2344 -856 2625 -561 
Q 2906 -266 2906 331 
L 2906 616 
Q 2728 306 2450 153 
Q 2172 0 1784 0 
Q 1141 0 747 490 
Q 353 981 353 1791 
Q 353 2603 747 3093 
Q 1141 3584 1784 3584 
Q 2172 3584 2450 3431 
Q 2728 3278 2906 2969 
L 2906 3500 
L 3481 3500 
L 3481 434 
z
" transform="scale(0.015625)"/>
       <path id="DejaVuSans-6c" d="M 603 4863 
L 1178 4863 
L 1178 0 
L 603 0 
L 603 4863 
z
" transform="scale(0.015625)"/>
       <path id="DejaVuSans-72" d="M 2631 2963 
Q 2534 3019 2420 3045 
Q 2306 3072 2169 3072 
Q 1681 3072 1420 2755 
Q 1159 2438 1159 1844 
L 1159 0 
L 581 0 
L 581 3500 
L 1159 3500 
L 1159 2956 
Q 1341 3275 1631 3429 
Q 1922 3584 2338 3584 
Q 2397 3584 2469 3576 
Q 2541 3569 2628 3553 
L 2631 2963 
z
" transform="scale(0.015625)"/>
       <path id="DejaVuSans-64" d="M 2906 2969 
L 2906 4863 
L 3481 4863 
L 3481 0 
L 2906 0 
L 2906 525 
Q 2725 213 2448 61 
Q 2172 -91 1784 -91 
Q 1150 -91 751 415 
Q 353 922 353 1747 
Q 353 2572 751 3078 
Q 1150 3584 1784 3584 
Q 2172 3584 2448 3432 
Q 2725 3281 2906 2969 
z
M 947 1747 
Q 947 1113 1208 752 
Q 1469 391 1925 391 
Q 2381 391 2643 752 
Q 2906 1113 2906 1747 
Q 2906 2381 2643 2742 
Q 2381 3103 1925 3103 
Q 1469 3103 1208 2742 
Q 947 2381 947 1747 
z
" transform="scale(0.015625)"/>
      </defs>
      <use xlink:href="#DejaVuSans-41"/>
      <use xlink:href="#DejaVuSans-6e" x="68.408203"/>
      <use xlink:href="#DejaVuSans-67" x="131.787109"/>
      <use xlink:href="#DejaVuSans-6c" x="195.263672"/>
      <use xlink:href="#DejaVuSans-65" x="223.046875"/>
      <use xlink:href="#DejaVuSans-20" x="284.570312"/>
      <use xlink:href="#DejaVuSans-65" x="316.357422"/>
      <use xlink:href="#DejaVuSans-72" x="377.880859"/>
      <use xlink:href="#DejaVuSans-72" x="417.244141"/>
      <use xlink:href="#DejaVuSans-6f" x="456.107422"/>
      <use xlink:href="#DejaVuSans-72" x="517.289062"/>
      <use xlink:href="#DejaVuSans-20" x="558.402344"/>
      <use xlink:href="#DejaVuSans-28" x="590.189453"/>
      <use xlink:href="#DejaVuSans-72" x="629.203125"/>
      <use xlink:href="#DejaVuSans-61" x="670.316406"/>
      <use xlink:href="#DejaVuSans-64" x="731.595703"/>
      <use xlink:href="#DejaVuSans-29" x="795.072266"/>
     </g>
    </g>
   </g>
   <g id="line2d_57">
    <path d="M 128.125909 820.022331 
L 143.264081 820.022331 
L 148.006082 819.245865 
L 152.126681 819.634098 
L 157.238241 828.951694 
L 162.007866 831.669326 
L 167.298139 832.057559 
L 170.714435 836.328123 
L 175.267092 836.328123 
L 179.458735 838.269289 
L 183.260801 838.657522 
L 187.616305 835.551657 
L 192.116135 835.163424 
L 201.791962 823.128196 
L 222.310144 703.164157 
L 227.114475 700.834758 
L 232.078794 688.023065 
L 236.590824 686.858365 
L 241.568017 686.858365 
L 246.974481 688.023065 
L 251.659046 692.293629 
L 256.383456 717.14055 
L 261.77341 721.799348 
L 266.11901 755.57563 
L 270.779669 761.399128 
L 275.461454 799.057742 
L 280.223194 800.998908 
L 285.179199 824.292896 
L 290.404654 849.52805 
L 295.348281 851.857449 
L 300.315353 869.32794 
L 305.793555 870.880872 
L 311.178249 900.386591 
L 316.73566 903.104223 
L 322.094652 925.621745 
L 328.027794 928.72761 
L 334.054805 945.033402 
L 339.052165 946.974567 
L 343.851922 951.245132 
L 348.959248 950.080433 
L 354.208608 946.586334 
L 359.570102 946.198101 
L 365.186146 931.833475 
L 370.760638 931.057009 
L 376.854609 926.009978 
L 382.062812 921.35118 
L 387.934534 930.280543 
L 392.939935 941.927537 
L 397.744097 940.374604 
L 402.949656 927.174677 
L 408.253537 924.457045 
L 412.748581 895.33956 
L 417.752765 890.292529 
L 423.218726 863.11621 
L 428.075383 853.410381 
L 432.952989 871.657339 
L 437.511023 866.610308 
L 442.709961 861.563277 
L 447.297713 858.457412 
L 457.993934 749.752133 
L 462.560356 708.987654 
L 477.126942 650.752683 
L 481.714123 648.423284 
L 486.169362 647.646818 
L 500.760085 653.470315 
L 506.295745 654.246782 
L 510.933504 667.834941 
L 515.680059 696.17596 
L 520.172976 697.34066 
L 524.774403 703.164157 
L 529.860127 703.164157 
L 534.713644 709.76412 
L 539.602159 713.258218 
L 544.506934 743.15217 
L 549.469811 747.422735 
L 554.146437 770.716723 
L 558.759576 773.434355 
L 563.927179 774.599054 
L 568.871378 774.210821 
L 573.738033 754.410931 
L 578.598565 753.246232 
L 583.458076 753.634465 
L 588.622199 755.187397 
L 593.494891 769.940257 
L 598.469317 771.493189 
L 603.188813 781.975484 
L 608.129028 762.95206 
L 612.955539 757.905029 
L 617.718387 739.269839 
L 622.641732 738.105139 
L 628.845553 742.763937 
L 633.533142 745.093336 
L 638.456011 766.057925 
L 643.288762 768.387324 
L 648.518173 787.022515 
L 653.40554 789.351913 
L 658.928747 806.434172 
L 664.211502 808.76357 
L 669.210948 828.951694 
L 674.474637 858.845645 
L 679.524173 861.95151 
L 685.142759 896.50426 
L 721.88877 973.762654 
L 726.772385 976.092053 
L 731.659894 975.70382 
L 788.708425 942.31577 
L 793.562207 940.374604 
L 799.06019 936.492273 
L 804.529298 936.880506 
L 810.23656 945.421635 
L 815.429728 954.73923 
L 820.62796 955.127463 
L 826.017309 956.680396 
L 830.958272 956.292163 
L 836.53513 953.186298 
L 842.229559 952.409831 
L 847.970577 947.362801 
L 853.074429 947.362801 
L 858.286778 949.303966 
L 863.644371 949.303966 
L 868.892358 953.186298 
L 874.063917 948.139267 
L 879.372577 946.974567 
L 884.259162 920.186481 
L 889.032634 915.527683 
L 893.683865 842.928087 
L 898.603703 839.433988 
L 903.679835 816.528233 
L 908.666795 814.587067 
L 913.516043 792.457779 
L 918.368955 776.151987 
L 922.956707 772.269655 
L 927.413285 800.998908 
L 932.655631 811.481202 
L 937.263169 808.76357 
L 941.728333 795.951877 
L 946.571015 794.010711 
L 951.435019 756.352097 
L 956.243885 754.799164 
L 960.773194 746.646268 
L 965.572904 745.093336 
L 975.046554 718.305249 
L 989.075187 719.469949 
L 998.621832 689.187764 
L 1003.508356 689.187764 
L 1008.2925 698.117126 
L 1012.967787 700.446525 
L 1026.776576 735.77574 
L 1032.244264 735.387507 
L 1037.4646 734.611041 
L 1042.298466 712.093519 
L 1047.535441 715.587617 
L 1052.440406 717.14055 
L 1057.282816 736.552207 
L 1062.009034 740.046305 
L 1075.65989 789.351913 
L 1081.051809 790.904846 
L 1085.657933 789.351913 
L 1090.328224 788.575447 
L 1094.978632 771.881422 
L 1099.849088 768.387324 
L 1109.519049 791.293079 
L 1114.381225 794.010711 
L 1129.094169 856.904479 
L 1134.194351 872.433805 
L 1166.533111 929.115843 
L 1171.445233 956.680396 
L 1176.270168 966.774457 
L 1199.764137 966.774457 
L 1253.589441 832.445792 
L 1258.282529 831.669326 
L 1262.769621 810.316503 
L 1267.64915 806.434172 
L 1272.300816 774.210821 
L 1281.776193 726.846378 
L 1286.452492 714.811151 
L 1291.778532 713.646452 
L 1296.49 715.587617 
L 1301.645905 716.364084 
L 1306.469609 711.705286 
L 1316.303452 710.92882 
L 1321.100463 705.105323 
L 1325.88978 703.55239 
L 1332.142439 709.375887 
L 1337.043529 737.328673 
L 1341.746338 739.658072 
L 1355.857828 865.445609 
L 1361.556499 868.16324 
L 1367.244091 867.386774 
L 1367.244091 867.386774 
" clip-path="url(#p4fc6fa93cd)" style="fill: none; stroke: #1f77b4; stroke-width: 1.5; stroke-linecap: square"/>
   </g>
   <g id="line2d_58">
    <path d="M 128.125909 826.234062 
L 134.379921 826.234062 
L 138.991463 826.622295 
L 143.964645 826.622295 
L 148.661254 825.845828 
L 152.248358 826.234062 
L 156.131243 831.669326 
L 160.502014 831.669326 
L 164.990682 831.281092 
L 169.671746 832.057559 
L 174.079085 836.328123 
L 178.782757 837.104589 
L 183.783175 827.786994 
L 188.00907 805.269472 
L 192.506744 802.55184 
L 196.658515 790.516613 
L 200.878305 789.740147 
L 209.746791 792.069545 
L 219.976273 793.622478 
L 224.55981 792.846012 
L 233.614003 777.316686 
L 236.792056 762.95206 
L 245.470043 764.504993 
L 249.967894 766.834391 
L 254.232811 778.481386 
L 267.537029 807.598871 
L 274.98683 829.339927 
L 278.955197 846.810418 
L 283.489557 848.36335 
L 287.822215 859.622111 
L 292.112608 861.175044 
L 299.319103 874.763204 
L 304.08227 884.080799 
L 308.851889 885.633732 
L 313.621711 908.151254 
L 318.359104 912.033585 
L 323.213076 927.951144 
L 328.414509 927.562911 
L 333.087178 919.410015 
L 337.769949 917.857082 
L 342.287729 905.433622 
L 347.201619 903.104223 
L 351.997686 893.010161 
L 356.674515 892.233695 
L 361.379743 887.574897 
L 365.811784 886.798431 
L 370.271965 899.610125 
L 375.18544 899.221891 
L 379.800075 889.904296 
L 384.288036 888.739597 
L 388.785364 875.151437 
L 393.440028 870.880872 
L 397.9355 848.751584 
L 402.619541 829.72816 
L 407.344359 824.292896 
L 411.692005 790.516613 
L 416.457681 787.410748 
L 420.997472 793.622478 
L 425.612337 794.010711 
L 430.131369 763.728526 
L 434.667401 757.516796 
L 439.567363 731.893409 
L 444.807873 729.56401 
L 449.581121 712.481752 
L 454.005821 711.705286 
L 459.482107 705.493556 
L 464.093424 706.658255 
L 468.89673 715.97585 
L 473.593346 718.305249 
L 478.441744 737.328673 
L 483.246253 740.822771 
L 488.433425 769.940257 
L 493.316714 769.16379 
L 498.188814 757.128563 
L 503.73832 756.352097 
L 508.787379 777.316686 
L 518.101281 814.587067 
L 522.843003 818.081166 
L 527.442242 827.398761 
L 531.790704 827.010528 
L 536.758496 822.739963 
L 550.633321 788.187214 
L 555.485016 793.622478 
L 560.015895 820.022331 
L 569.264781 833.610491 
L 574.139376 834.386957 
L 578.671139 838.269289 
L 588.399407 840.598688 
L 593.560804 855.351547 
L 618.921239 932.998174 
L 623.920985 931.445242 
L 629.140288 931.445242 
L 634.27417 941.15107 
L 639.305359 942.31577 
L 654.215919 964.056826 
L 659.41133 973.762654 
L 664.404217 975.315587 
L 669.746564 969.880323 
L 674.537423 968.715623 
L 679.581935 953.574531 
L 684.511894 952.021598 
L 689.960671 927.951144 
L 694.726001 905.433622 
L 699.350274 901.55129 
L 713.861394 815.751767 
L 718.311298 811.869435 
L 736.538071 649.587984 
L 741.371074 649.199751 
L 745.840527 643.376254 
L 750.558085 642.211554 
L 781.477101 623.576364 
L 819.668279 818.469399 
L 895.197908 1008.703636 
L 900.20231 1008.315403 
L 936.537279 873.210271 
L 945.848258 798.669509 
L 955.566316 725.681679 
L 960.082548 719.469949 
L 964.831373 675.599604 
L 969.923303 672.105506 
L 974.83011 683.364267 
L 980.479657 712.093519 
L 985.695208 715.587617 
L 990.71523 739.269839 
L 996.354112 740.046305 
L 1001.44509 778.093152 
L 1006.284822 837.492823 
L 1011.204048 846.422185 
L 1016.651982 917.468849 
L 1021.629324 926.398211 
L 1027.615022 981.91555 
L 1032.471407 982.692016 
L 1069.11028 953.962764 
L 1074.876237 901.55129 
L 1079.975895 885.245499 
L 1085.153164 780.034318 
L 1096.871839 695.399494 
L 1102.704734 693.070095 
L 1108.164938 682.199567 
L 1114.07864 682.587801 
L 1114.07864 682.587801 
" clip-path="url(#p4fc6fa93cd)" style="fill: none; stroke: #ff7f0e; stroke-width: 1.5; stroke-linecap: square"/>
   </g>
   <g id="line2d_59">
    <path d="M 128.125909 760.622661 
L 153.808771 760.622661 
L 161.510465 761.010894 
L 165.844251 761.787361 
L 170.447487 776.928453 
L 174.552764 779.257852 
L 178.694678 790.12838 
L 182.848033 794.398944 
L 187.589239 832.834025 
L 191.759287 831.669326 
L 196.394299 829.72816 
L 199.687266 821.963497 
L 204.77174 822.35173 
L 210.487077 823.904663 
L 214.718647 831.281092 
L 218.965049 832.445792 
L 222.129052 837.492823 
L 228.791557 837.881056 
L 232.970672 837.104589 
L 237.242373 835.163424 
L 242.445777 813.422368 
L 246.778157 811.869435 
L 250.959182 805.657705 
L 255.02282 803.328306 
L 263.093555 807.210638 
L 266.777479 845.257485 
L 271.426609 850.692749 
L 275.985425 863.11621 
L 280.564612 864.280909 
L 284.729087 872.433805 
L 288.976943 873.210271 
L 293.18131 871.657339 
L 297.905122 871.657339 
L 302.519845 873.598504 
L 307.039604 873.598504 
L 311.338092 874.763204 
L 315.601963 872.822038 
L 320.172422 859.622111 
L 325.189167 858.845645 
L 330.266544 839.045755 
L 334.789607 799.445975 
L 339.413044 795.175411 
L 344.073546 767.999091 
L 348.748377 763.728526 
L 353.477382 738.881606 
L 358.334236 734.999274 
L 363.313264 735.387507 
L 368.151677 738.105139 
L 372.787335 759.846195 
L 377.917622 764.504993 
L 382.745336 807.987104 
L 391.760703 872.433805 
L 396.61216 873.210271 
L 401.497352 873.598504 
L 406.86977 884.080799 
L 411.735073 882.9161 
L 416.9553 884.469032 
L 421.9763 881.7514 
L 426.696537 875.927903 
L 431.435486 853.022148 
L 436.150577 847.586884 
L 464.874617 639.493922 
L 469.483603 639.105689 
L 505.134716 651.52915 
L 515.107222 704.328856 
L 519.856993 708.987654 
L 534.114223 798.281276 
L 538.677776 800.998908 
L 568.138636 993.950777 
L 572.928109 994.33901 
L 578.354585 988.903746 
L 588.383284 972.986188 
L 613.18324 906.210088 
L 618.408701 896.892493 
L 623.672859 862.727977 
L 628.371528 856.128013 
L 642.350805 713.646452 
L 651.122152 675.987837 
L 656.152091 673.270205 
L 660.906123 663.564377 
L 670.040714 676.764304 
L 674.632075 681.423101 
L 679.187336 679.481935 
L 719.696771 896.892493 
L 743.457791 977.256752 
L 781.275991 903.104223 
L 791.386773 862.339743 
L 795.977182 860.010345 
L 800.795938 811.481202 
L 810.226657 731.893409 
L 814.747252 729.952243 
L 819.340849 722.187581 
L 823.902261 722.187581 
L 828.498143 713.646452 
L 833.4912 715.199384 
L 838.38238 696.952427 
L 842.777715 685.305433 
L 847.533427 686.470132 
L 852.246961 698.117126 
L 857.167036 701.222991 
L 861.794368 713.646452 
L 866.425676 715.97585 
L 880.911334 793.234245 
L 885.885318 795.175411 
L 890.745775 828.175227 
L 895.608624 832.445792 
L 899.959948 856.904479 
L 904.552396 860.786811 
L 909.431158 872.045572 
L 914.461973 873.210271 
L 920.33029 873.986738 
L 925.475673 888.739597 
L 930.251382 893.398394 
L 935.297267 924.845279 
L 940.009462 930.280543 
L 944.729284 922.904113 
L 949.324322 901.55129 
L 954.068043 880.974934 
L 959.286191 879.422001 
L 964.519006 866.222075 
L 969.995768 868.551474 
L 974.63038 867.775007 
L 979.501087 856.516246 
L 983.926303 854.575081 
L 988.850626 842.539853 
L 993.364519 839.822221 
L 993.364519 839.822221 
" clip-path="url(#p4fc6fa93cd)" style="fill: none; stroke: #2ca02c; stroke-width: 1.5; stroke-linecap: square"/>
   </g>
   <g id="patch_9">
    <path d="M 66.17 1027.96 
L 66.17 604.32 
" style="fill: none; stroke: #000000; stroke-width: 0.8; stroke-linejoin: miter; stroke-linecap: square"/>
   </g>
   <g id="patch_10">
    <path d="M 1429.2 1027.96 
L 1429.2 604.32 
" style="fill: none; stroke: #000000; stroke-width: 0.8; stroke-linejoin: miter; stroke-linecap: square"/>
   </g>
   <g id="patch_11">
    <path d="M 66.17 1027.96 
L 1429.2 1027.96 
" style="fill: none; stroke: #000000; stroke-width: 0.8; stroke-linejoin: miter; stroke-linecap: square"/>
   </g>
   <g id="patch_12">
    <path d="M 66.17 604.32 
L 1429.2 604.32 
" style="fill: none; stroke: #000000; stroke-width: 0.8; stroke-linejoin: miter; stroke-linecap: square"/>
   </g>
   <g id="text_34">
    <!-- Angle error -->
    <g transform="translate(691.844375 598.32) scale(0.2 -0.2)">
     <use xlink:href="#DejaVuSans-41"/>
     <use xlink:href="#DejaVuSans-6e" x="68.408203"/>
     <use xlink:href="#DejaVuSans-67" x="131.787109"/>
     <use xlink:href="#DejaVuSans-6c" x="195.263672"/>
     <use xlink:href="#DejaVuSans-65" x="223.046875"/>
     <use xlink:href="#DejaVuSans-20" x="284.570312"/>
     <use xlink:href="#DejaVuSans-65" x="316.357422"/>
     <use xlink:href="#DejaVuSans-72" x="377.880859"/>
     <use xlink:href="#DejaVuSans-72" x="417.244141"/>
     <use xlink:href="#DejaVuSans-6f" x="456.107422"/>
     <use xlink:href="#DejaVuSans-72" x="517.289062"/>
    </g>
   </g>
   <g id="legend_2">
    <g id="patch_13">
     <path d="M 1361.485938 656.354375 
L 1422.2 656.354375 
Q 1424.2 656.354375 1424.2 654.354375 
L 1424.2 611.32 
Q 1424.2 609.32 1422.2 609.32 
L 1361.485938 609.32 
Q 1359.485938 609.32 1359.485938 611.32 
L 1359.485938 654.354375 
Q 1359.485938 656.354375 1361.485938 656.354375 
z
" style="fill: #ffffff; opacity: 0.8; stroke: #cccccc; stroke-linejoin: miter"/>
    </g>
    <g id="line2d_60">
     <path d="M 1363.485938 617.418437 
L 1373.485938 617.418437 
L 1383.485938 617.418437 
" style="fill: none; stroke: #1f77b4; stroke-width: 1.5; stroke-linecap: square"/>
    </g>
    <g id="text_35">
     <!-- Run 1 -->
     <g transform="translate(1391.485938 620.918437) scale(0.1 -0.1)">
      <use xlink:href="#DejaVuSans-52"/>
      <use xlink:href="#DejaVuSans-75" x="64.982422"/>
      <use xlink:href="#DejaVuSans-6e" x="128.361328"/>
      <use xlink:href="#DejaVuSans-20" x="191.740234"/>
      <use xlink:href="#DejaVuSans-31" x="223.527344"/>
     </g>
    </g>
    <g id="line2d_61">
     <path d="M 1363.485938 632.096563 
L 1373.485938 632.096563 
L 1383.485938 632.096563 
" style="fill: none; stroke: #ff7f0e; stroke-width: 1.5; stroke-linecap: square"/>
    </g>
    <g id="text_36">
     <!-- Run 2 -->
     <g transform="translate(1391.485938 635.596563) scale(0.1 -0.1)">
      <use xlink:href="#DejaVuSans-52"/>
      <use xlink:href="#DejaVuSans-75" x="64.982422"/>
      <use xlink:href="#DejaVuSans-6e" x="128.361328"/>
      <use xlink:href="#DejaVuSans-20" x="191.740234"/>
      <use xlink:href="#DejaVuSans-32" x="223.527344"/>
     </g>
    </g>
    <g id="line2d_62">
     <path d="M 1363.485938 646.774688 
L 1373.485938 646.774688 
L 1383.485938 646.774688 
" style="fill: none; stroke: #2ca02c; stroke-width: 1.5; stroke-linecap: square"/>
    </g>
    <g id="text_37">
     <!-- Run 3 -->
     <g transform="translate(1391.485938 650.274688) scale(0.1 -0.1)">
      <use xlink:href="#DejaVuSans-52"/>
      <use xlink:href="#DejaVuSans-75" x="64.982422"/>
      <use xlink:href="#DejaVuSans-6e" x="128.361328"/>
      <use xlink:href="#DejaVuSans-20" x="191.740234"/>
      <use xlink:href="#DejaVuSans-33" x="223.527344"/>
     </g>
    </g>
   </g>
  </g>
  <g id="text_38">
   <!-- Experiment 5 -->
   <g transform="translate(652.679688 36.796875) scale(0.2 -0.2)">
    <defs>
     <path id="DejaVuSans-45" d="M 628 4666 
L 3578 4666 
L 3578 4134 
L 1259 4134 
L 1259 2753 
L 3481 2753 
L 3481 2222 
L 1259 2222 
L 1259 531 
L 3634 531 
L 3634 0 
L 628 0 
L 628 4666 
z
" transform="scale(0.015625)"/>
     <path id="DejaVuSans-78" d="M 3513 3500 
L 2247 1797 
L 3578 0 
L 2900 0 
L 1881 1375 
L 863 0 
L 184 0 
L 1544 1831 
L 300 3500 
L 978 3500 
L 1906 2253 
L 2834 3500 
L 3513 3500 
z
" transform="scale(0.015625)"/>
     <path id="DejaVuSans-70" d="M 1159 525 
L 1159 -1331 
L 581 -1331 
L 581 3500 
L 1159 3500 
L 1159 2969 
Q 1341 3281 1617 3432 
Q 1894 3584 2278 3584 
Q 2916 3584 3314 3078 
Q 3713 2572 3713 1747 
Q 3713 922 3314 415 
Q 2916 -91 2278 -91 
Q 1894 -91 1617 61 
Q 1341 213 1159 525 
z
M 3116 1747 
Q 3116 2381 2855 2742 
Q 2594 3103 2138 3103 
Q 1681 3103 1420 2742 
Q 1159 2381 1159 1747 
Q 1159 1113 1420 752 
Q 1681 391 2138 391 
Q 2594 391 2855 752 
Q 3116 1113 3116 1747 
z
" transform="scale(0.015625)"/>
    </defs>
    <use xlink:href="#DejaVuSans-45"/>
    <use xlink:href="#DejaVuSans-78" x="63.183594"/>
    <use xlink:href="#DejaVuSans-70" x="122.363281"/>
    <use xlink:href="#DejaVuSans-65" x="185.839844"/>
    <use xlink:href="#DejaVuSans-72" x="247.363281"/>
    <use xlink:href="#DejaVuSans-69" x="288.476562"/>
    <use xlink:href="#DejaVuSans-6d" x="316.259766"/>
    <use xlink:href="#DejaVuSans-65" x="413.671875"/>
    <use xlink:href="#DejaVuSans-6e" x="475.195312"/>
    <use xlink:href="#DejaVuSans-74" x="538.574219"/>
    <use xlink:href="#DejaVuSans-20" x="577.783203"/>
    <use xlink:href="#DejaVuSans-35" x="609.570312"/>
   </g>
  </g>
 </g>
 <defs>
  <clipPath id="pf830f9a8dd">
   <rect x="66.17" y="106.8" width="1363.03" height="423.64"/>
  </clipPath>
  <clipPath id="p4fc6fa93cd">
   <rect x="66.17" y="604.32" width="1363.03" height="423.64"/>
  </clipPath>
 </defs>
</svg>
